G04 EAGLE Gerber RS-274X export*
G75*
%MOMM*%
%FSLAX34Y34*%
%LPD*%
%INTop Copper*%
%IPPOS*%
%AMOC8*
5,1,8,0,0,1.08239X$1,22.5*%
G01*
G04 Define Apertures*
%ADD10R,1.800000X1.150000*%
%ADD11R,0.280000X0.430000*%
%ADD12R,0.430000X0.280000*%
%ADD13R,0.230000X0.220000*%
%ADD14R,0.220000X0.230000*%
%ADD15R,1.150000X0.800000*%
%ADD16R,1.200000X0.600000*%
%ADD17C,0.200000*%
%ADD18C,0.250000*%
%ADD19R,0.300000X0.350000*%
%ADD20R,0.350000X0.300000*%
%ADD21C,0.216000*%
%ADD22R,0.700000X0.300000*%
%ADD23R,1.000000X0.300000*%
%ADD24C,0.783000*%
%ADD25R,0.300000X1.150000*%
%ADD26R,0.600000X1.150000*%
%ADD27C,1.170000*%
%ADD28R,0.500000X0.600000*%
%ADD29R,0.600000X0.500000*%
%ADD30R,5.300000X0.900000*%
%ADD31R,2.200000X1.200000*%
%ADD32R,0.900000X0.800000*%
%ADD33R,1.050000X0.500000*%
%ADD34R,0.250000X0.350000*%
%ADD35R,0.350000X0.250000*%
%ADD36R,1.168400X1.600200*%
%ADD37R,0.711200X1.092200*%
%ADD38R,1.066800X1.066800*%
%ADD39R,1.397000X1.092200*%
%ADD40C,2.000000*%
%ADD41R,4.850000X4.850000*%
%ADD42C,0.808000*%
%ADD43C,0.067500*%
%ADD44R,0.900000X1.300000*%
%ADD45R,0.950000X0.850000*%
%ADD46R,1.000000X1.800000*%
%ADD47C,0.127000*%
%ADD48C,0.452400*%
%ADD49C,0.300000*%
G36*
X453184Y526829D02*
X452888Y526764D01*
X452590Y526819D01*
X452337Y526987D01*
X413292Y566032D01*
X413139Y566252D01*
X413069Y566547D01*
X413120Y566846D01*
X413283Y567101D01*
X413483Y567238D01*
X414117Y567872D01*
X414358Y568035D01*
X414656Y568095D01*
X420568Y568095D01*
X420848Y568042D01*
X421102Y567876D01*
X421272Y567625D01*
X422394Y564916D01*
X425564Y561746D01*
X429706Y560030D01*
X434190Y560030D01*
X438332Y561746D01*
X441502Y564916D01*
X443218Y569058D01*
X443218Y573542D01*
X441502Y577684D01*
X438332Y580854D01*
X434190Y582570D01*
X429706Y582570D01*
X425564Y580854D01*
X422394Y577684D01*
X420911Y574105D01*
X420755Y573867D01*
X420505Y573695D01*
X420207Y573635D01*
X414656Y573635D01*
X414370Y573691D01*
X414117Y573858D01*
X413578Y574397D01*
X410337Y574397D01*
X410062Y574448D01*
X409807Y574612D01*
X409635Y574862D01*
X409575Y575159D01*
X409575Y610389D01*
X402473Y617491D01*
X402310Y617733D01*
X402250Y618030D01*
X402250Y623216D01*
X401506Y623960D01*
X388454Y623960D01*
X387710Y623216D01*
X387710Y616164D01*
X388395Y615479D01*
X388553Y615248D01*
X388618Y614952D01*
X388563Y614654D01*
X388395Y614401D01*
X387857Y613863D01*
X387616Y613700D01*
X387318Y613640D01*
X382271Y613640D01*
X381985Y613696D01*
X381732Y613863D01*
X381193Y614402D01*
X378676Y614402D01*
X378390Y614458D01*
X378137Y614625D01*
X377463Y615299D01*
X377305Y615530D01*
X377240Y615826D01*
X377250Y615881D01*
X377250Y623216D01*
X376506Y623960D01*
X363454Y623960D01*
X362710Y623216D01*
X362710Y621792D01*
X362659Y621517D01*
X362495Y621262D01*
X362245Y621090D01*
X361948Y621030D01*
X322176Y621030D01*
X321890Y621086D01*
X321637Y621253D01*
X320233Y622657D01*
X317307Y622657D01*
X315238Y620588D01*
X315238Y617662D01*
X317307Y615593D01*
X320233Y615593D01*
X321637Y616997D01*
X321878Y617160D01*
X322176Y617220D01*
X361948Y617220D01*
X362223Y617169D01*
X362478Y617005D01*
X362650Y616755D01*
X362710Y616458D01*
X362710Y615897D01*
X362720Y615850D01*
X362665Y615552D01*
X362497Y615299D01*
X361440Y614242D01*
X361440Y610952D01*
X370742Y610952D01*
X370742Y609428D01*
X361440Y609428D01*
X361440Y606138D01*
X362497Y605081D01*
X362655Y604850D01*
X362720Y604554D01*
X362710Y604499D01*
X362710Y602742D01*
X362659Y602467D01*
X362495Y602212D01*
X362245Y602040D01*
X361948Y601980D01*
X330046Y601980D01*
X328541Y600475D01*
X328321Y600322D01*
X328026Y600252D01*
X327727Y600303D01*
X327472Y600466D01*
X327300Y600717D01*
X327240Y601014D01*
X327240Y602718D01*
X318660Y602718D01*
X318660Y601178D01*
X319097Y600741D01*
X319250Y600521D01*
X319320Y600226D01*
X319269Y599927D01*
X319106Y599672D01*
X318856Y599500D01*
X318558Y599440D01*
X309372Y599440D01*
X309097Y599491D01*
X308842Y599655D01*
X308670Y599905D01*
X308610Y600202D01*
X308610Y600476D01*
X304308Y600476D01*
X304308Y604778D01*
X304292Y604778D01*
X304017Y604829D01*
X303762Y604993D01*
X303590Y605243D01*
X303530Y605540D01*
X303530Y611670D01*
X303586Y611956D01*
X303753Y612209D01*
X310951Y619407D01*
X311193Y619570D01*
X311490Y619630D01*
X312756Y619630D01*
X313500Y620374D01*
X313500Y621962D01*
X313556Y622248D01*
X313723Y622501D01*
X314770Y623548D01*
X314770Y624938D01*
X307390Y624938D01*
X307390Y623548D01*
X308008Y622930D01*
X308166Y622699D01*
X308231Y622403D01*
X308176Y622105D01*
X308008Y621852D01*
X299720Y613564D01*
X299720Y610997D01*
X299669Y610722D01*
X299505Y610467D01*
X299255Y610295D01*
X298958Y610235D01*
X292189Y610235D01*
X291925Y610282D01*
X291667Y610441D01*
X291492Y610689D01*
X291427Y610985D01*
X291482Y611283D01*
X291650Y611536D01*
X297791Y617677D01*
X298033Y617840D01*
X298330Y617900D01*
X300786Y617900D01*
X301530Y618644D01*
X301530Y621632D01*
X301586Y621918D01*
X301753Y622171D01*
X302800Y623218D01*
X302800Y624908D01*
X293420Y624908D01*
X293420Y623218D01*
X294467Y622171D01*
X294630Y621930D01*
X294690Y621632D01*
X294690Y620280D01*
X294634Y619994D01*
X294467Y619741D01*
X293123Y618397D01*
X292903Y618244D01*
X292608Y618174D01*
X292309Y618225D01*
X292054Y618388D01*
X291917Y618588D01*
X289753Y620752D01*
X288991Y620752D01*
X288705Y620808D01*
X288452Y620975D01*
X288019Y621409D01*
X287861Y621639D01*
X287795Y621936D01*
X287851Y622234D01*
X288019Y622486D01*
X288440Y622908D01*
X288440Y624298D01*
X281060Y624298D01*
X281060Y622908D01*
X281366Y622602D01*
X281496Y622429D01*
X281585Y622139D01*
X281706Y620930D01*
X281710Y620854D01*
X281710Y619856D01*
X281760Y619790D01*
X281806Y619639D01*
X282590Y618998D01*
X282646Y618947D01*
X284535Y617058D01*
X284698Y616816D01*
X284758Y616519D01*
X284758Y615442D01*
X284707Y615167D01*
X284543Y614912D01*
X284293Y614740D01*
X283996Y614680D01*
X270397Y614680D01*
X269990Y614798D01*
X269771Y615008D01*
X269651Y615286D01*
X269650Y615589D01*
X269766Y615869D01*
X269815Y615941D01*
X270431Y616922D01*
X270537Y617106D01*
X270623Y617287D01*
X270691Y617460D01*
X271073Y618554D01*
X271136Y618758D01*
X271179Y618952D01*
X271207Y619137D01*
X271335Y620279D01*
X271354Y620607D01*
X271354Y621449D01*
X271412Y621740D01*
X271900Y622919D01*
X271900Y623826D01*
X255120Y623826D01*
X255120Y622919D01*
X255608Y621740D01*
X255666Y621449D01*
X255666Y620607D01*
X255685Y620279D01*
X255813Y619138D01*
X255845Y618929D01*
X255890Y618734D01*
X255946Y618556D01*
X256329Y617462D01*
X256407Y617264D01*
X256494Y617085D01*
X256588Y616923D01*
X257204Y615943D01*
X257252Y615872D01*
X257385Y615466D01*
X257334Y615167D01*
X257171Y614912D01*
X256921Y614740D01*
X256623Y614680D01*
X247496Y614680D01*
X245814Y612998D01*
X245573Y612835D01*
X245275Y612775D01*
X182002Y612775D01*
X181586Y612898D01*
X181370Y613111D01*
X181254Y613391D01*
X181256Y613695D01*
X181377Y613973D01*
X181596Y614182D01*
X181755Y614282D01*
X181931Y614402D01*
X182087Y614528D01*
X182222Y614654D01*
X183042Y615474D01*
X183186Y615630D01*
X183310Y615787D01*
X183415Y615942D01*
X184031Y616922D01*
X184137Y617106D01*
X184223Y617287D01*
X184291Y617460D01*
X184673Y618554D01*
X184736Y618758D01*
X184779Y618952D01*
X184807Y619137D01*
X184935Y620279D01*
X184954Y620607D01*
X184954Y621449D01*
X185012Y621740D01*
X185500Y622919D01*
X185500Y623826D01*
X168720Y623826D01*
X168720Y622919D01*
X169208Y621740D01*
X169266Y621449D01*
X169266Y620607D01*
X169285Y620279D01*
X169413Y619138D01*
X169445Y618929D01*
X169490Y618734D01*
X169546Y618556D01*
X169929Y617462D01*
X170007Y617264D01*
X170094Y617085D01*
X170188Y616923D01*
X170804Y615943D01*
X170924Y615767D01*
X171050Y615611D01*
X171176Y615476D01*
X171996Y614656D01*
X172152Y614512D01*
X172309Y614388D01*
X172464Y614283D01*
X172624Y614182D01*
X172910Y613856D01*
X172980Y613561D01*
X172929Y613262D01*
X172766Y613007D01*
X172516Y612835D01*
X172218Y612775D01*
X170015Y612775D01*
X169729Y612831D01*
X169476Y612998D01*
X155729Y626745D01*
X123671Y626745D01*
X116579Y619653D01*
X116338Y619490D01*
X116040Y619430D01*
X115257Y619430D01*
X115175Y619348D01*
X114933Y619185D01*
X114636Y619125D01*
X113824Y619125D01*
X113538Y619181D01*
X113285Y619348D01*
X113203Y619430D01*
X111257Y619430D01*
X111175Y619348D01*
X110933Y619185D01*
X110636Y619125D01*
X109824Y619125D01*
X109538Y619181D01*
X109285Y619348D01*
X109203Y619430D01*
X107257Y619430D01*
X107175Y619348D01*
X106933Y619185D01*
X106636Y619125D01*
X95720Y619125D01*
X95434Y619181D01*
X95181Y619348D01*
X92229Y622300D01*
X92092Y622300D01*
X91806Y622356D01*
X91553Y622523D01*
X90766Y623310D01*
X87414Y623310D01*
X87262Y623158D01*
X87021Y622995D01*
X86723Y622935D01*
X82017Y622935D01*
X81731Y622991D01*
X81478Y623158D01*
X80976Y623660D01*
X75624Y623660D01*
X74847Y622883D01*
X74829Y622787D01*
X74665Y622532D01*
X74415Y622360D01*
X74118Y622300D01*
X48298Y622300D01*
X48018Y622353D01*
X47763Y622519D01*
X47732Y622566D01*
X44471Y625827D01*
X40329Y627542D01*
X40162Y627542D01*
X39865Y627603D01*
X39615Y627774D01*
X39452Y628030D01*
X39401Y628329D01*
X39471Y628624D01*
X39650Y628869D01*
X39911Y629024D01*
X51356Y633029D01*
X51522Y633067D01*
X66315Y634733D01*
X66400Y634738D01*
X170402Y634738D01*
X170580Y634717D01*
X170855Y634589D01*
X171058Y634363D01*
X171158Y634077D01*
X171137Y633774D01*
X171000Y633504D01*
X170910Y633389D01*
X170805Y633234D01*
X170189Y632254D01*
X170083Y632070D01*
X169997Y631889D01*
X169929Y631716D01*
X169547Y630622D01*
X169484Y630418D01*
X169441Y630224D01*
X169413Y630039D01*
X169285Y628897D01*
X169266Y628569D01*
X169266Y627727D01*
X169208Y627436D01*
X168720Y626257D01*
X168720Y625350D01*
X185500Y625350D01*
X185500Y626257D01*
X185012Y627436D01*
X184954Y627727D01*
X184954Y628569D01*
X184935Y628897D01*
X184807Y630038D01*
X184775Y630247D01*
X184730Y630442D01*
X184674Y630620D01*
X184291Y631714D01*
X184213Y631912D01*
X184126Y632091D01*
X184032Y632253D01*
X183416Y633233D01*
X183296Y633409D01*
X183224Y633498D01*
X183126Y633657D01*
X183056Y633952D01*
X183107Y634251D01*
X183270Y634506D01*
X183520Y634678D01*
X183817Y634738D01*
X256802Y634738D01*
X256980Y634717D01*
X257255Y634589D01*
X257458Y634363D01*
X257558Y634077D01*
X257537Y633774D01*
X257400Y633504D01*
X257310Y633389D01*
X257205Y633234D01*
X256589Y632254D01*
X256483Y632070D01*
X256397Y631889D01*
X256329Y631716D01*
X255947Y630622D01*
X255884Y630418D01*
X255841Y630224D01*
X255813Y630039D01*
X255685Y628897D01*
X255666Y628569D01*
X255666Y627727D01*
X255608Y627436D01*
X255120Y626257D01*
X255120Y625350D01*
X271900Y625350D01*
X271900Y626257D01*
X271412Y627436D01*
X271354Y627727D01*
X271354Y628569D01*
X271335Y628897D01*
X271207Y630038D01*
X271175Y630247D01*
X271130Y630442D01*
X271074Y630620D01*
X270691Y631714D01*
X270613Y631912D01*
X270526Y632091D01*
X270432Y632253D01*
X269816Y633233D01*
X269696Y633409D01*
X269624Y633498D01*
X269526Y633657D01*
X269456Y633952D01*
X269507Y634251D01*
X269670Y634506D01*
X269920Y634678D01*
X270217Y634738D01*
X386293Y634738D01*
X386404Y634730D01*
X401679Y632473D01*
X401844Y632430D01*
X416248Y626825D01*
X416399Y626746D01*
X429194Y618077D01*
X429324Y617966D01*
X439869Y606667D01*
X439971Y606530D01*
X447738Y593168D01*
X447807Y593012D01*
X452405Y578257D01*
X452438Y578089D01*
X453636Y562707D01*
X453638Y562648D01*
X453638Y562561D01*
X453638Y562534D01*
X453596Y561320D01*
X453638Y561111D01*
X453638Y527526D01*
X453591Y527262D01*
X453432Y527004D01*
X453184Y526829D01*
G37*
%LPC*%
G36*
X293420Y626432D02*
X297348Y626432D01*
X297348Y629610D01*
X294908Y629610D01*
X293420Y628122D01*
X293420Y626432D01*
G37*
G36*
X298872Y626432D02*
X302800Y626432D01*
X302800Y628122D01*
X301312Y629610D01*
X298872Y629610D01*
X298872Y626432D01*
G37*
G36*
X307390Y626462D02*
X310318Y626462D01*
X310318Y629340D01*
X308878Y629340D01*
X307390Y627852D01*
X307390Y626462D01*
G37*
G36*
X311842Y626462D02*
X314770Y626462D01*
X314770Y627852D01*
X313282Y629340D01*
X311842Y629340D01*
X311842Y626462D01*
G37*
G36*
X281060Y625822D02*
X283988Y625822D01*
X283988Y628700D01*
X282548Y628700D01*
X281060Y627212D01*
X281060Y625822D01*
G37*
G36*
X285512Y625822D02*
X288440Y625822D01*
X288440Y627212D01*
X286952Y628700D01*
X285512Y628700D01*
X285512Y625822D01*
G37*
G36*
X318660Y604242D02*
X322188Y604242D01*
X322188Y607270D01*
X320148Y607270D01*
X318660Y605782D01*
X318660Y604242D01*
G37*
G36*
X323712Y604242D02*
X327240Y604242D01*
X327240Y605782D01*
X325752Y607270D01*
X323712Y607270D01*
X323712Y604242D01*
G37*
G36*
X305832Y602000D02*
X308610Y602000D01*
X308610Y602704D01*
X306536Y604778D01*
X305832Y604778D01*
X305832Y602000D01*
G37*
%LPD*%
G36*
X70159Y531892D02*
X69948Y531842D01*
X69649Y531893D01*
X69394Y532056D01*
X69222Y532307D01*
X69162Y532604D01*
X69162Y532644D01*
X67544Y534262D01*
X-76Y534262D01*
X-351Y534313D01*
X-606Y534477D01*
X-778Y534727D01*
X-838Y535024D01*
X-838Y567500D01*
X-833Y567585D01*
X833Y582378D01*
X871Y582544D01*
X5788Y596595D01*
X5862Y596748D01*
X13782Y609353D01*
X13888Y609486D01*
X24414Y620012D01*
X24548Y620118D01*
X26489Y621338D01*
X26864Y621455D01*
X27164Y621406D01*
X27420Y621245D01*
X27594Y620996D01*
X27657Y620699D01*
X27599Y620402D01*
X26817Y618514D01*
X26817Y614031D01*
X28533Y609888D01*
X31703Y606718D01*
X35845Y605002D01*
X40329Y605002D01*
X44471Y606718D01*
X47641Y609888D01*
X49357Y614031D01*
X49357Y617728D01*
X49408Y618003D01*
X49572Y618258D01*
X49822Y618430D01*
X50119Y618490D01*
X72848Y618490D01*
X73123Y618439D01*
X73378Y618275D01*
X73550Y618025D01*
X73610Y617728D01*
X73610Y616652D01*
X82990Y616652D01*
X82990Y618363D01*
X83041Y618638D01*
X83205Y618893D01*
X83455Y619065D01*
X83752Y619125D01*
X84638Y619125D01*
X84913Y619074D01*
X85168Y618910D01*
X85340Y618660D01*
X85400Y618363D01*
X85400Y618002D01*
X89852Y618002D01*
X89852Y613470D01*
X89976Y613394D01*
X90151Y613146D01*
X90216Y612850D01*
X90161Y612552D01*
X89993Y612299D01*
X89919Y612225D01*
X89688Y612067D01*
X89392Y612002D01*
X89094Y612057D01*
X88841Y612225D01*
X88767Y612299D01*
X88614Y612519D01*
X88544Y612814D01*
X88595Y613113D01*
X88663Y613219D01*
X88328Y613219D01*
X88328Y616478D01*
X85400Y616478D01*
X85400Y615088D01*
X86527Y613961D01*
X86680Y613741D01*
X86750Y613446D01*
X86699Y613147D01*
X86536Y612892D01*
X86286Y612720D01*
X85988Y612660D01*
X84854Y612660D01*
X83938Y611744D01*
X83708Y611586D01*
X83412Y611521D01*
X83113Y611577D01*
X82861Y611744D01*
X82617Y611988D01*
X82459Y612218D01*
X82394Y612514D01*
X82450Y612812D01*
X82617Y613065D01*
X82990Y613438D01*
X82990Y615128D01*
X79062Y615128D01*
X79062Y611569D01*
X78711Y611569D01*
X78762Y611496D01*
X78827Y611200D01*
X78772Y610902D01*
X78604Y610649D01*
X77748Y609793D01*
X77748Y606552D01*
X77697Y606277D01*
X77533Y606022D01*
X77283Y605850D01*
X76986Y605790D01*
X75411Y605790D01*
X64171Y594550D01*
X63951Y594397D01*
X63656Y594327D01*
X63357Y594378D01*
X63102Y594541D01*
X62930Y594792D01*
X62870Y595089D01*
X62870Y596692D01*
X61382Y598180D01*
X59692Y598180D01*
X59692Y592728D01*
X58168Y592728D01*
X58168Y598180D01*
X56478Y598180D01*
X55431Y597133D01*
X55190Y596970D01*
X54892Y596910D01*
X51904Y596910D01*
X51160Y596166D01*
X51160Y595248D01*
X51072Y594892D01*
X50880Y594658D01*
X50679Y594494D01*
X50659Y594412D01*
X50491Y594159D01*
X48030Y591697D01*
X48030Y589916D01*
X47974Y589630D01*
X47807Y589377D01*
X47268Y588838D01*
X47268Y585597D01*
X47217Y585322D01*
X47053Y585067D01*
X46803Y584895D01*
X46506Y584835D01*
X39216Y584835D01*
X31750Y577369D01*
X31750Y563726D01*
X41121Y554355D01*
X53848Y554355D01*
X54123Y554304D01*
X54378Y554140D01*
X54550Y553890D01*
X54610Y553593D01*
X54610Y552296D01*
X73713Y533193D01*
X73866Y532973D01*
X73936Y532678D01*
X73885Y532379D01*
X73722Y532124D01*
X73472Y531952D01*
X73174Y531892D01*
X70159Y531892D01*
G37*
%LPC*%
G36*
X75098Y611950D02*
X77538Y611950D01*
X77538Y615128D01*
X73610Y615128D01*
X73610Y613438D01*
X75098Y611950D01*
G37*
%LPD*%
G36*
X104145Y607120D02*
X103848Y607060D01*
X98260Y607060D01*
X97974Y607116D01*
X97721Y607283D01*
X94873Y610131D01*
X94710Y610373D01*
X94650Y610670D01*
X94650Y611916D01*
X93906Y612660D01*
X92192Y612660D01*
X91928Y612707D01*
X91670Y612866D01*
X91495Y613114D01*
X91430Y613410D01*
X91485Y613708D01*
X91653Y613961D01*
X92878Y615186D01*
X93108Y615344D01*
X93404Y615409D01*
X93702Y615353D01*
X93760Y615315D01*
X103848Y615315D01*
X104123Y615264D01*
X104378Y615100D01*
X104550Y614850D01*
X104610Y614553D01*
X104610Y613842D01*
X108992Y613842D01*
X108992Y612318D01*
X104610Y612318D01*
X104610Y611563D01*
X104730Y611388D01*
X104795Y611092D01*
X104739Y610794D01*
X104610Y610599D01*
X104610Y609842D01*
X108992Y609842D01*
X108992Y608318D01*
X104610Y608318D01*
X104610Y607822D01*
X104559Y607547D01*
X104395Y607292D01*
X104145Y607120D01*
G37*
G36*
X451171Y338491D02*
X450875Y338424D01*
X450577Y338477D01*
X450323Y338642D01*
X450153Y338894D01*
X448793Y342179D01*
X448763Y342208D01*
X448600Y342450D01*
X448540Y342747D01*
X448540Y393577D01*
X436574Y405544D01*
X436416Y405774D01*
X436351Y406070D01*
X436406Y406368D01*
X436574Y406621D01*
X446000Y416048D01*
X446000Y427354D01*
X446056Y427640D01*
X446223Y427893D01*
X446762Y428432D01*
X446762Y431358D01*
X444693Y433427D01*
X441767Y433427D01*
X440172Y431832D01*
X439947Y431676D01*
X439651Y431609D01*
X439353Y431662D01*
X439099Y431828D01*
X438962Y432030D01*
X434930Y436062D01*
X429691Y438232D01*
X424020Y438232D01*
X418781Y436062D01*
X414771Y432052D01*
X412601Y426813D01*
X412601Y421142D01*
X414771Y415902D01*
X418781Y411892D01*
X420863Y411030D01*
X421092Y410882D01*
X421268Y410634D01*
X421333Y410338D01*
X421277Y410040D01*
X421110Y409787D01*
X419446Y408123D01*
X419204Y407960D01*
X418907Y407900D01*
X418831Y407900D01*
X418545Y407956D01*
X418292Y408123D01*
X416303Y410112D01*
X412008Y410112D01*
X408774Y406879D01*
X408550Y406723D01*
X408254Y406656D01*
X407955Y406709D01*
X407701Y406874D01*
X407532Y407126D01*
X406928Y408584D01*
X405112Y410399D01*
X403744Y410966D01*
X403514Y411114D01*
X403339Y411362D01*
X403274Y411658D01*
X403329Y411956D01*
X403497Y412209D01*
X407190Y415902D01*
X409361Y421142D01*
X409361Y426813D01*
X407190Y432052D01*
X403180Y436062D01*
X397941Y438232D01*
X392270Y438232D01*
X387031Y436062D01*
X383021Y432052D01*
X380851Y426813D01*
X380851Y421142D01*
X383021Y415902D01*
X386711Y412212D01*
X386867Y411987D01*
X386934Y411691D01*
X386881Y411393D01*
X386716Y411138D01*
X386464Y410969D01*
X385089Y410399D01*
X384635Y409945D01*
X384410Y409790D01*
X384114Y409722D01*
X383816Y409775D01*
X383562Y409941D01*
X383392Y410192D01*
X382274Y412892D01*
X380211Y414955D01*
X377515Y416072D01*
X374597Y416072D01*
X371901Y414955D01*
X369837Y412892D01*
X369131Y411187D01*
X368991Y410966D01*
X368746Y410787D01*
X368451Y410717D01*
X368152Y410768D01*
X367897Y410931D01*
X367725Y411181D01*
X367665Y411479D01*
X367665Y449731D01*
X367716Y450006D01*
X367880Y450261D01*
X368130Y450433D01*
X368427Y450493D01*
X371668Y450493D01*
X373737Y452562D01*
X373737Y455048D01*
X373788Y455323D01*
X373952Y455578D01*
X374202Y455750D01*
X374499Y455810D01*
X375142Y455810D01*
X375428Y455754D01*
X375681Y455587D01*
X376728Y454540D01*
X378418Y454540D01*
X378418Y463920D01*
X378309Y463920D01*
X378034Y463971D01*
X377779Y464135D01*
X377607Y464385D01*
X377547Y464682D01*
X377547Y466918D01*
X375478Y468987D01*
X374499Y468987D01*
X374224Y469038D01*
X373969Y469202D01*
X373797Y469452D01*
X373737Y469749D01*
X373737Y471998D01*
X371668Y474067D01*
X368427Y474067D01*
X368152Y474118D01*
X367897Y474282D01*
X367725Y474532D01*
X367665Y474829D01*
X367665Y489104D01*
X365032Y491737D01*
X364879Y491957D01*
X364809Y492252D01*
X364860Y492551D01*
X365023Y492806D01*
X365274Y492978D01*
X365571Y493038D01*
X366588Y493038D01*
X367992Y494442D01*
X368233Y494605D01*
X368531Y494665D01*
X377355Y494665D01*
X377641Y494609D01*
X377894Y494442D01*
X378277Y494059D01*
X378440Y493818D01*
X378500Y493520D01*
X378500Y492078D01*
X378444Y491792D01*
X378277Y491539D01*
X377230Y490492D01*
X377230Y488802D01*
X386825Y488802D01*
X387064Y488971D01*
X387360Y489036D01*
X387658Y488981D01*
X387911Y488813D01*
X388144Y488580D01*
X394196Y488580D01*
X394940Y489324D01*
X394940Y496376D01*
X394196Y497120D01*
X388144Y497120D01*
X387400Y496376D01*
X387400Y495427D01*
X387349Y495152D01*
X387185Y494897D01*
X386935Y494725D01*
X386638Y494665D01*
X386057Y494665D01*
X385771Y494721D01*
X385518Y494888D01*
X384596Y495810D01*
X382230Y495810D01*
X381944Y495866D01*
X381691Y496033D01*
X379249Y498475D01*
X368531Y498475D01*
X368245Y498531D01*
X367992Y498698D01*
X366588Y500102D01*
X366206Y500102D01*
X365942Y500149D01*
X365684Y500308D01*
X365509Y500556D01*
X365444Y500852D01*
X365499Y501150D01*
X365667Y501403D01*
X367030Y502766D01*
X367030Y531649D01*
X344324Y554355D01*
X337302Y554355D01*
X337027Y554406D01*
X336772Y554570D01*
X336675Y554711D01*
X335796Y555590D01*
X330444Y555590D01*
X330067Y555213D01*
X329826Y555050D01*
X329528Y554990D01*
X328822Y554990D01*
X328536Y555046D01*
X328283Y555213D01*
X328056Y555440D01*
X322704Y555440D01*
X321960Y554696D01*
X321960Y554205D01*
X321904Y553919D01*
X321737Y553666D01*
X321571Y553500D01*
X321351Y553347D01*
X321056Y553277D01*
X320757Y553328D01*
X320502Y553491D01*
X320330Y553742D01*
X320270Y554039D01*
X320270Y555486D01*
X319526Y556230D01*
X312474Y556230D01*
X311730Y555486D01*
X311730Y551026D01*
X311683Y550762D01*
X311524Y550504D01*
X311276Y550329D01*
X310980Y550264D01*
X310682Y550319D01*
X310429Y550487D01*
X310116Y550800D01*
X303064Y550800D01*
X302320Y550056D01*
X302320Y544004D01*
X303064Y543260D01*
X307170Y543260D01*
X307456Y543204D01*
X307709Y543037D01*
X308645Y542101D01*
X308798Y541881D01*
X308868Y541586D01*
X308817Y541287D01*
X308654Y541032D01*
X308404Y540860D01*
X308106Y540800D01*
X303064Y540800D01*
X302320Y540056D01*
X302320Y539242D01*
X302269Y538967D01*
X302105Y538712D01*
X301855Y538540D01*
X301558Y538480D01*
X297026Y538480D01*
X287655Y529109D01*
X287655Y520689D01*
X287599Y520403D01*
X287432Y520150D01*
X287100Y519818D01*
X287100Y517938D01*
X287430Y517608D01*
X287588Y517377D01*
X287653Y517081D01*
X287598Y516783D01*
X287580Y516757D01*
X287580Y514410D01*
X287529Y514135D01*
X287365Y513880D01*
X287115Y513708D01*
X286818Y513648D01*
X285930Y513648D01*
X285585Y513303D01*
X285343Y513140D01*
X285046Y513080D01*
X284902Y513080D01*
X284627Y513131D01*
X284372Y513295D01*
X284200Y513545D01*
X284140Y513842D01*
X284140Y514818D01*
X283477Y515481D01*
X283323Y515704D01*
X283254Y515999D01*
X283306Y516298D01*
X283471Y516553D01*
X284653Y517763D01*
X284626Y520058D01*
X283255Y521397D01*
X283249Y521404D01*
X282439Y522213D01*
X281293Y522200D01*
X281284Y522200D01*
X276418Y522200D01*
X276132Y522256D01*
X275879Y522423D01*
X258577Y539725D01*
X258410Y539977D01*
X258354Y540275D01*
X258370Y541407D01*
X257636Y542161D01*
X254648Y542203D01*
X254363Y542262D01*
X254113Y542433D01*
X253081Y543495D01*
X251391Y543518D01*
X251314Y538067D01*
X249791Y538088D01*
X249867Y543539D01*
X248177Y543563D01*
X246668Y542096D01*
X246643Y540264D01*
X246604Y540034D01*
X246453Y539771D01*
X246211Y539588D01*
X245917Y539514D01*
X245617Y539560D01*
X245359Y539719D01*
X245184Y539966D01*
X245119Y540263D01*
X245113Y540632D01*
X244357Y541365D01*
X225152Y541063D01*
X224941Y541020D01*
X222752Y541020D01*
X222477Y541071D01*
X222222Y541235D01*
X222050Y541485D01*
X221990Y541782D01*
X221990Y542246D01*
X221246Y542990D01*
X218258Y542990D01*
X217972Y543046D01*
X217719Y543213D01*
X216672Y544260D01*
X214982Y544260D01*
X214982Y534880D01*
X216672Y534880D01*
X217719Y535927D01*
X217961Y536090D01*
X218258Y536150D01*
X221246Y536150D01*
X222083Y536987D01*
X222324Y537150D01*
X222622Y537210D01*
X223874Y537210D01*
X224138Y537163D01*
X224396Y537004D01*
X224571Y536756D01*
X224636Y536460D01*
X224749Y529259D01*
X225505Y528527D01*
X237877Y528721D01*
X238175Y528666D01*
X238428Y528498D01*
X255720Y511206D01*
X255873Y510986D01*
X255943Y510691D01*
X255892Y510392D01*
X255729Y510137D01*
X255479Y509965D01*
X255181Y509905D01*
X246346Y509905D01*
X246082Y509952D01*
X245824Y510111D01*
X245649Y510359D01*
X245584Y510655D01*
X245506Y515636D01*
X244750Y516368D01*
X225700Y516068D01*
X224968Y515313D01*
X225091Y507504D01*
X225040Y507217D01*
X224876Y506962D01*
X224626Y506790D01*
X224329Y506730D01*
X222797Y506730D01*
X222539Y506775D01*
X222280Y506933D01*
X222103Y507179D01*
X222064Y507349D01*
X221277Y508101D01*
X218290Y508033D01*
X218003Y508082D01*
X217746Y508244D01*
X216676Y509267D01*
X214986Y509228D01*
X215199Y499851D01*
X216889Y499889D01*
X217911Y500959D01*
X218149Y501128D01*
X218445Y501195D01*
X221432Y501262D01*
X222159Y502023D01*
X222157Y502141D01*
X222208Y502433D01*
X222371Y502688D01*
X222621Y502860D01*
X222918Y502920D01*
X230659Y502920D01*
X231137Y503398D01*
X231367Y503556D01*
X231663Y503621D01*
X244947Y503829D01*
X245679Y504585D01*
X245668Y505321D01*
X245719Y505608D01*
X245882Y505863D01*
X246132Y506035D01*
X246430Y506095D01*
X279037Y506095D01*
X279300Y506048D01*
X279558Y505889D01*
X279734Y505641D01*
X279799Y505345D01*
X279743Y505047D01*
X279600Y504831D01*
X279600Y502938D01*
X280621Y501917D01*
X280779Y501686D01*
X280844Y501390D01*
X280788Y501092D01*
X280621Y500839D01*
X279600Y499818D01*
X279600Y497938D01*
X280621Y496917D01*
X280779Y496686D01*
X280844Y496390D01*
X280788Y496092D01*
X280621Y495839D01*
X280305Y495523D01*
X280063Y495360D01*
X279766Y495300D01*
X273916Y495300D01*
X273630Y495356D01*
X273377Y495523D01*
X271973Y496927D01*
X269047Y496927D01*
X266978Y494858D01*
X266978Y491617D01*
X266927Y491342D01*
X266763Y491087D01*
X266513Y490915D01*
X266216Y490855D01*
X212560Y490855D01*
X212274Y490911D01*
X212021Y491078D01*
X137949Y565150D01*
X79224Y565150D01*
X78949Y565201D01*
X78694Y565365D01*
X78522Y565615D01*
X78462Y565912D01*
X78462Y569153D01*
X77923Y569692D01*
X77760Y569933D01*
X77700Y570231D01*
X77700Y573917D01*
X72902Y578715D01*
X71657Y578715D01*
X71371Y578771D01*
X71118Y578938D01*
X71016Y579040D01*
X68813Y579040D01*
X68720Y579055D01*
X68656Y579040D01*
X68128Y579040D01*
X67842Y579096D01*
X67589Y579263D01*
X66542Y580310D01*
X64752Y580310D01*
X64752Y571730D01*
X65458Y571730D01*
X65733Y571679D01*
X65988Y571515D01*
X66160Y571265D01*
X66220Y570968D01*
X66220Y568714D01*
X66313Y568578D01*
X66378Y568282D01*
X66323Y567984D01*
X66220Y567829D01*
X66220Y564302D01*
X66169Y564027D01*
X66005Y563772D01*
X65755Y563600D01*
X65458Y563540D01*
X61934Y563540D01*
X61798Y563447D01*
X61502Y563382D01*
X61204Y563437D01*
X61049Y563540D01*
X57522Y563540D01*
X57247Y563591D01*
X56992Y563755D01*
X56820Y564005D01*
X56760Y564302D01*
X56760Y567826D01*
X56667Y567962D01*
X56602Y568258D01*
X56657Y568556D01*
X56760Y568711D01*
X56760Y570968D01*
X56811Y571243D01*
X56975Y571498D01*
X57225Y571670D01*
X57522Y571730D01*
X58228Y571730D01*
X58228Y580310D01*
X57159Y580310D01*
X56895Y580357D01*
X56637Y580516D01*
X56462Y580764D01*
X56397Y581060D01*
X56452Y581358D01*
X56620Y581611D01*
X60572Y585563D01*
X60792Y585716D01*
X61087Y585786D01*
X61386Y585735D01*
X61641Y585572D01*
X61778Y585372D01*
X63942Y583208D01*
X66868Y583208D01*
X67407Y583747D01*
X67648Y583910D01*
X67946Y583970D01*
X93152Y583970D01*
X93438Y583914D01*
X93691Y583747D01*
X97913Y579525D01*
X104518Y579525D01*
X104793Y579474D01*
X105048Y579310D01*
X105220Y579060D01*
X105280Y578763D01*
X105280Y577752D01*
X110732Y577752D01*
X110732Y573050D01*
X113172Y573050D01*
X113516Y573394D01*
X113747Y573552D01*
X114043Y573617D01*
X114341Y573562D01*
X114594Y573394D01*
X115018Y572970D01*
X117458Y572970D01*
X117458Y577672D01*
X122910Y577672D01*
X122910Y579362D01*
X121863Y580409D01*
X121700Y580651D01*
X121640Y580948D01*
X121640Y583936D01*
X120896Y584680D01*
X120372Y584680D01*
X120097Y584731D01*
X119842Y584895D01*
X119670Y585145D01*
X119610Y585442D01*
X119610Y598867D01*
X119649Y599108D01*
X119831Y599653D01*
X119690Y599933D01*
X119610Y600274D01*
X119610Y600587D01*
X119258Y600939D01*
X119077Y601229D01*
X119037Y601529D01*
X119062Y601904D01*
X119112Y602128D01*
X119275Y602383D01*
X119525Y602555D01*
X119822Y602615D01*
X130112Y602615D01*
X130387Y602564D01*
X130642Y602400D01*
X130814Y602150D01*
X130874Y601853D01*
X130874Y589833D01*
X131618Y589089D01*
X154670Y589089D01*
X155414Y589833D01*
X155414Y602885D01*
X154670Y603629D01*
X139156Y603629D01*
X138870Y603685D01*
X138617Y603852D01*
X136044Y606425D01*
X120534Y606425D01*
X120271Y606472D01*
X120013Y606631D01*
X119837Y606879D01*
X119772Y607175D01*
X119828Y607473D01*
X119850Y607507D01*
X119850Y608318D01*
X115468Y608318D01*
X115468Y609842D01*
X119850Y609842D01*
X119850Y610743D01*
X119901Y611018D01*
X120065Y611273D01*
X120315Y611445D01*
X120612Y611505D01*
X130112Y611505D01*
X130387Y611454D01*
X130642Y611290D01*
X130814Y611040D01*
X130874Y610743D01*
X130874Y610393D01*
X131618Y609649D01*
X153186Y609649D01*
X153461Y609598D01*
X153716Y609434D01*
X153888Y609184D01*
X153948Y608887D01*
X153948Y606867D01*
X156017Y604798D01*
X158943Y604798D01*
X160347Y606202D01*
X160588Y606365D01*
X160886Y606425D01*
X212255Y606425D01*
X212541Y606369D01*
X212794Y606202D01*
X213453Y605543D01*
X213606Y605323D01*
X213676Y605028D01*
X213625Y604729D01*
X213462Y604474D01*
X213262Y604337D01*
X211098Y602173D01*
X211098Y601411D01*
X211042Y601125D01*
X210875Y600872D01*
X198211Y588208D01*
X197991Y588055D01*
X197696Y587985D01*
X197397Y588036D01*
X197142Y588200D01*
X196970Y588450D01*
X196910Y588747D01*
X196910Y589182D01*
X196073Y591204D01*
X194526Y592751D01*
X192504Y593588D01*
X190316Y593588D01*
X188295Y592751D01*
X186747Y591204D01*
X186245Y589990D01*
X185960Y589645D01*
X185679Y589532D01*
X185376Y589537D01*
X185099Y589660D01*
X184892Y589882D01*
X184787Y590167D01*
X184775Y590247D01*
X184730Y590442D01*
X184674Y590620D01*
X184291Y591714D01*
X184213Y591912D01*
X184126Y592091D01*
X184032Y592253D01*
X183416Y593233D01*
X183296Y593409D01*
X183171Y593565D01*
X183044Y593700D01*
X182224Y594520D01*
X182068Y594664D01*
X181911Y594788D01*
X181756Y594893D01*
X180776Y595509D01*
X180592Y595615D01*
X180411Y595701D01*
X180238Y595769D01*
X179144Y596151D01*
X178940Y596214D01*
X178746Y596257D01*
X178561Y596285D01*
X177872Y596362D01*
X177872Y569814D01*
X178560Y569891D01*
X178769Y569923D01*
X178964Y569968D01*
X179142Y570024D01*
X180236Y570407D01*
X180434Y570485D01*
X180613Y570572D01*
X180775Y570666D01*
X181603Y571186D01*
X181984Y571303D01*
X182283Y571252D01*
X182538Y571088D01*
X182710Y570838D01*
X182770Y570541D01*
X182770Y570536D01*
X184258Y569048D01*
X187548Y569048D01*
X187548Y578100D01*
X189072Y578100D01*
X189072Y569048D01*
X192362Y569048D01*
X193409Y570095D01*
X193651Y570258D01*
X193948Y570318D01*
X199462Y570318D01*
X199726Y570271D01*
X199984Y570112D01*
X200159Y569864D01*
X200224Y569568D01*
X200169Y569270D01*
X200001Y569017D01*
X199620Y568636D01*
X199620Y565248D01*
X199564Y564962D01*
X199397Y564709D01*
X198350Y563662D01*
X198350Y562122D01*
X206930Y562122D01*
X206930Y563662D01*
X205883Y564709D01*
X205720Y564951D01*
X205660Y565248D01*
X205660Y568636D01*
X205279Y569017D01*
X205126Y569237D01*
X205056Y569532D01*
X205107Y569831D01*
X205270Y570086D01*
X205520Y570258D01*
X205818Y570318D01*
X209866Y570318D01*
X210002Y570411D01*
X210298Y570476D01*
X210596Y570421D01*
X210751Y570318D01*
X214866Y570318D01*
X215002Y570411D01*
X215298Y570476D01*
X215596Y570421D01*
X215751Y570318D01*
X216612Y570318D01*
X216898Y570262D01*
X217151Y570095D01*
X219556Y567690D01*
X226214Y567690D01*
X228619Y570095D01*
X228861Y570258D01*
X229158Y570318D01*
X229502Y570318D01*
X229766Y570271D01*
X230024Y570112D01*
X230199Y569864D01*
X230264Y569568D01*
X230209Y569270D01*
X230041Y569017D01*
X229740Y568716D01*
X229740Y565328D01*
X229684Y565042D01*
X229517Y564789D01*
X228470Y563742D01*
X228470Y562202D01*
X237050Y562202D01*
X237050Y563742D01*
X236003Y564789D01*
X235840Y565031D01*
X235780Y565328D01*
X235780Y568716D01*
X235479Y569017D01*
X235326Y569237D01*
X235256Y569532D01*
X235307Y569831D01*
X235470Y570086D01*
X235720Y570258D01*
X236018Y570318D01*
X239866Y570318D01*
X240002Y570411D01*
X240298Y570476D01*
X240596Y570421D01*
X240751Y570318D01*
X246672Y570318D01*
X246958Y570262D01*
X247211Y570095D01*
X248258Y569048D01*
X251548Y569048D01*
X251548Y578100D01*
X253072Y578100D01*
X253072Y569048D01*
X256362Y569048D01*
X257850Y570536D01*
X257850Y570541D01*
X257954Y570926D01*
X258156Y571152D01*
X258431Y571281D01*
X258734Y571293D01*
X259017Y571186D01*
X259844Y570667D01*
X260028Y570561D01*
X260209Y570475D01*
X260382Y570407D01*
X261476Y570025D01*
X261680Y569962D01*
X261874Y569919D01*
X262059Y569891D01*
X262748Y569814D01*
X262748Y583850D01*
X271900Y583850D01*
X271900Y584757D01*
X271412Y585936D01*
X271354Y586227D01*
X271354Y587078D01*
X271401Y587341D01*
X271560Y587599D01*
X271807Y587774D01*
X272104Y587839D01*
X272402Y587784D01*
X272655Y587616D01*
X277341Y582930D01*
X316384Y582930D01*
X331401Y597947D01*
X331643Y598110D01*
X331940Y598170D01*
X361948Y598170D01*
X362223Y598119D01*
X362478Y597955D01*
X362650Y597705D01*
X362710Y597408D01*
X362710Y597164D01*
X363454Y596420D01*
X376506Y596420D01*
X377250Y597164D01*
X377250Y604484D01*
X377240Y604530D01*
X377295Y604828D01*
X377463Y605081D01*
X378520Y606138D01*
X378520Y606576D01*
X378571Y606851D01*
X378735Y607106D01*
X378985Y607278D01*
X379282Y607338D01*
X381193Y607338D01*
X381732Y607877D01*
X381973Y608040D01*
X382271Y608100D01*
X386948Y608100D01*
X387223Y608049D01*
X387478Y607885D01*
X387650Y607635D01*
X387710Y607338D01*
X387710Y606664D01*
X388395Y605979D01*
X388553Y605748D01*
X388618Y605452D01*
X388563Y605154D01*
X388395Y604901D01*
X387710Y604216D01*
X387710Y598019D01*
X387659Y597744D01*
X387495Y597489D01*
X387245Y597317D01*
X387210Y597310D01*
X385088Y595188D01*
X385088Y592262D01*
X385269Y592081D01*
X385422Y591861D01*
X385492Y591566D01*
X385441Y591267D01*
X385278Y591012D01*
X385028Y590840D01*
X384984Y590832D01*
X384946Y590794D01*
X384692Y590626D01*
X384394Y590571D01*
X384068Y590576D01*
X383795Y590632D01*
X383543Y590800D01*
X382852Y591490D01*
X381462Y591490D01*
X381462Y587038D01*
X377060Y587038D01*
X377060Y585598D01*
X377634Y585024D01*
X377792Y584793D01*
X377857Y584497D01*
X377802Y584199D01*
X377634Y583946D01*
X376300Y582612D01*
X376300Y580172D01*
X381002Y580172D01*
X381002Y574720D01*
X382692Y574720D01*
X383739Y575767D01*
X383981Y575930D01*
X384278Y575990D01*
X387266Y575990D01*
X388010Y576734D01*
X388010Y578208D01*
X388133Y578624D01*
X388287Y578860D01*
X388026Y580095D01*
X388010Y580252D01*
X388010Y582086D01*
X387803Y582293D01*
X387640Y582534D01*
X387580Y582832D01*
X387580Y584478D01*
X387631Y584753D01*
X387795Y585008D01*
X388045Y585180D01*
X388342Y585240D01*
X396752Y585240D01*
X404464Y592952D01*
X404684Y593105D01*
X404979Y593175D01*
X405278Y593124D01*
X405533Y592960D01*
X405705Y592710D01*
X405765Y592413D01*
X405765Y568171D01*
X449992Y523944D01*
X450155Y523703D01*
X450215Y523405D01*
X450215Y505742D01*
X450164Y505467D01*
X450000Y505212D01*
X449750Y505040D01*
X449453Y504980D01*
X431312Y504980D01*
X430568Y504236D01*
X430568Y496062D01*
X430517Y495787D01*
X430353Y495532D01*
X430103Y495360D01*
X429806Y495300D01*
X422412Y495300D01*
X422126Y495356D01*
X421923Y495490D01*
X416554Y495490D01*
X415952Y494888D01*
X415711Y494725D01*
X415413Y494665D01*
X413907Y494665D01*
X413621Y494721D01*
X413368Y494888D01*
X413006Y495250D01*
X407654Y495250D01*
X407292Y494888D01*
X407051Y494725D01*
X406753Y494665D01*
X405702Y494665D01*
X405427Y494716D01*
X405172Y494880D01*
X405000Y495130D01*
X404940Y495427D01*
X404940Y496376D01*
X404196Y497120D01*
X398144Y497120D01*
X397400Y496376D01*
X397400Y489324D01*
X398144Y488580D01*
X404196Y488580D01*
X404339Y488723D01*
X404559Y488876D01*
X404854Y488946D01*
X405153Y488895D01*
X405408Y488732D01*
X405580Y488482D01*
X405628Y488242D01*
X411092Y488242D01*
X411092Y483540D01*
X413532Y483540D01*
X414361Y484369D01*
X414592Y484527D01*
X414888Y484592D01*
X415186Y484537D01*
X415439Y484369D01*
X416028Y483780D01*
X418468Y483780D01*
X418468Y488482D01*
X419992Y488482D01*
X419992Y483399D01*
X419567Y483399D01*
X419618Y483326D01*
X419683Y483030D01*
X419628Y482732D01*
X419460Y482479D01*
X401746Y464765D01*
X401505Y464602D01*
X401207Y464542D01*
X399222Y464542D01*
X397153Y462473D01*
X397153Y459547D01*
X399222Y457478D01*
X402148Y457478D01*
X404217Y459547D01*
X404217Y461532D01*
X404273Y461818D01*
X404440Y462071D01*
X420937Y478568D01*
X421157Y478721D01*
X421452Y478791D01*
X421751Y478740D01*
X422006Y478577D01*
X422178Y478327D01*
X422238Y478029D01*
X422238Y454512D01*
X423856Y452894D01*
X452876Y452894D01*
X453151Y452843D01*
X453406Y452680D01*
X453578Y452429D01*
X453638Y452132D01*
X453638Y352614D01*
X453630Y352501D01*
X451611Y339072D01*
X451417Y338669D01*
X451171Y338491D01*
G37*
%LPC*%
G36*
X168720Y583850D02*
X176348Y583850D01*
X176348Y596362D01*
X175660Y596285D01*
X175451Y596253D01*
X175256Y596208D01*
X175078Y596152D01*
X173984Y595769D01*
X173786Y595691D01*
X173607Y595604D01*
X173445Y595510D01*
X172465Y594894D01*
X172289Y594774D01*
X172133Y594649D01*
X171998Y594522D01*
X171178Y593702D01*
X171034Y593546D01*
X170910Y593389D01*
X170805Y593234D01*
X170189Y592254D01*
X170083Y592070D01*
X169997Y591889D01*
X169929Y591716D01*
X169547Y590622D01*
X169484Y590418D01*
X169441Y590224D01*
X169413Y590039D01*
X169285Y588897D01*
X169266Y588569D01*
X169266Y586227D01*
X169208Y585936D01*
X168720Y584757D01*
X168720Y583850D01*
G37*
G36*
X377060Y588562D02*
X379938Y588562D01*
X379938Y591490D01*
X378548Y591490D01*
X377060Y590002D01*
X377060Y588562D01*
G37*
G36*
X264272Y582326D02*
X264272Y569814D01*
X264960Y569891D01*
X265169Y569923D01*
X265364Y569968D01*
X265542Y570024D01*
X266636Y570407D01*
X266834Y570485D01*
X267013Y570572D01*
X267175Y570666D01*
X268155Y571282D01*
X268331Y571402D01*
X268487Y571528D01*
X268622Y571654D01*
X269442Y572474D01*
X269586Y572630D01*
X269710Y572787D01*
X269815Y572942D01*
X270431Y573922D01*
X270537Y574106D01*
X270623Y574287D01*
X270691Y574460D01*
X271073Y575554D01*
X271136Y575758D01*
X271179Y575952D01*
X271207Y576137D01*
X271335Y577279D01*
X271354Y577607D01*
X271354Y579949D01*
X271412Y580240D01*
X271900Y581419D01*
X271900Y582326D01*
X264272Y582326D01*
G37*
G36*
X175659Y569891D02*
X176348Y569814D01*
X176348Y582326D01*
X168720Y582326D01*
X168720Y581419D01*
X169208Y580240D01*
X169266Y579949D01*
X169266Y577607D01*
X169285Y577279D01*
X169413Y576138D01*
X169445Y575929D01*
X169490Y575734D01*
X169546Y575556D01*
X169929Y574462D01*
X170007Y574264D01*
X170094Y574085D01*
X170188Y573923D01*
X170804Y572943D01*
X170924Y572767D01*
X171050Y572611D01*
X171176Y572476D01*
X171996Y571656D01*
X172152Y571512D01*
X172309Y571388D01*
X172464Y571283D01*
X173444Y570667D01*
X173628Y570561D01*
X173809Y570475D01*
X173982Y570407D01*
X175076Y570025D01*
X175280Y569962D01*
X175474Y569919D01*
X175659Y569891D01*
G37*
G36*
X59752Y571730D02*
X63228Y571730D01*
X63228Y580310D01*
X59752Y580310D01*
X59752Y571730D01*
G37*
G36*
X377788Y574720D02*
X379478Y574720D01*
X379478Y578648D01*
X376300Y578648D01*
X376300Y576208D01*
X377788Y574720D01*
G37*
G36*
X106768Y573050D02*
X109208Y573050D01*
X109208Y576228D01*
X105280Y576228D01*
X105280Y574538D01*
X106768Y573050D01*
G37*
G36*
X118982Y572970D02*
X121422Y572970D01*
X122910Y574458D01*
X122910Y576148D01*
X118982Y576148D01*
X118982Y572970D01*
G37*
G36*
X229958Y557650D02*
X231998Y557650D01*
X231998Y560678D01*
X228470Y560678D01*
X228470Y559138D01*
X229958Y557650D01*
G37*
G36*
X233522Y557650D02*
X235562Y557650D01*
X237050Y559138D01*
X237050Y560678D01*
X233522Y560678D01*
X233522Y557650D01*
G37*
G36*
X199838Y557570D02*
X201878Y557570D01*
X201878Y560598D01*
X198350Y560598D01*
X198350Y559058D01*
X199838Y557570D01*
G37*
G36*
X203402Y557570D02*
X205442Y557570D01*
X206930Y559058D01*
X206930Y560598D01*
X203402Y560598D01*
X203402Y557570D01*
G37*
G36*
X410748Y505010D02*
X412438Y505010D01*
X412438Y510462D01*
X417140Y510462D01*
X417140Y512902D01*
X416773Y513269D01*
X416620Y513489D01*
X416550Y513784D01*
X416601Y514083D01*
X416698Y514234D01*
X416698Y522122D01*
X424750Y522122D01*
X424750Y526662D01*
X423703Y527709D01*
X423540Y527951D01*
X423480Y528248D01*
X423480Y537636D01*
X422736Y538380D01*
X413320Y538380D01*
X413034Y538436D01*
X412781Y538603D01*
X407043Y544341D01*
X406880Y544583D01*
X406820Y544880D01*
X406820Y546996D01*
X406076Y547740D01*
X405230Y547740D01*
X404944Y547796D01*
X404691Y547963D01*
X403170Y549484D01*
X403007Y549726D01*
X402947Y550023D01*
X402947Y552008D01*
X400878Y554077D01*
X397952Y554077D01*
X395883Y552008D01*
X395883Y549015D01*
X395896Y548997D01*
X395961Y548701D01*
X395905Y548403D01*
X395738Y548150D01*
X395110Y547522D01*
X395110Y545082D01*
X399812Y545082D01*
X399812Y543558D01*
X395110Y543558D01*
X395110Y541118D01*
X396329Y539899D01*
X396487Y539668D01*
X396552Y539372D01*
X396497Y539074D01*
X396329Y538821D01*
X395670Y538162D01*
X395670Y533622D01*
X403722Y533622D01*
X403722Y532098D01*
X395670Y532098D01*
X395670Y527558D01*
X396717Y526511D01*
X396880Y526270D01*
X396940Y525972D01*
X396940Y523025D01*
X396893Y522761D01*
X396734Y522503D01*
X396486Y522328D01*
X396190Y522263D01*
X395892Y522318D01*
X395879Y522327D01*
X392872Y522327D01*
X390803Y520258D01*
X390803Y517332D01*
X392872Y515263D01*
X395798Y515263D01*
X396491Y515956D01*
X396721Y516114D01*
X397017Y516179D01*
X397315Y516123D01*
X397568Y515956D01*
X397684Y515840D01*
X400630Y515840D01*
X400916Y515784D01*
X401169Y515617D01*
X405207Y511579D01*
X405370Y511338D01*
X405430Y511040D01*
X405430Y507024D01*
X406174Y506280D01*
X409162Y506280D01*
X409448Y506224D01*
X409701Y506057D01*
X410748Y505010D01*
G37*
G36*
X210280Y540332D02*
X213458Y540332D01*
X213458Y544260D01*
X211768Y544260D01*
X210280Y542772D01*
X210280Y540332D01*
G37*
G36*
X211768Y534880D02*
X213458Y534880D01*
X213458Y538808D01*
X210280Y538808D01*
X210280Y536368D01*
X211768Y534880D01*
G37*
G36*
X418222Y514570D02*
X423262Y514570D01*
X424750Y516058D01*
X424750Y520598D01*
X418222Y520598D01*
X418222Y514570D01*
G37*
G36*
X210319Y507634D02*
X210374Y505195D01*
X213552Y505267D01*
X213462Y509194D01*
X211773Y509155D01*
X210319Y507634D01*
G37*
G36*
X413962Y505010D02*
X415652Y505010D01*
X417140Y506498D01*
X417140Y508938D01*
X413962Y508938D01*
X413962Y505010D01*
G37*
G36*
X210464Y501232D02*
X211986Y499778D01*
X213675Y499816D01*
X213586Y503743D01*
X210409Y503671D01*
X210464Y501232D01*
G37*
G36*
X382682Y484100D02*
X385122Y484100D01*
X386610Y485588D01*
X386610Y487278D01*
X382682Y487278D01*
X382682Y484100D01*
G37*
G36*
X378718Y484100D02*
X381158Y484100D01*
X381158Y487278D01*
X377230Y487278D01*
X377230Y485588D01*
X378718Y484100D01*
G37*
G36*
X407128Y483540D02*
X409568Y483540D01*
X409568Y486718D01*
X405640Y486718D01*
X405640Y485028D01*
X407128Y483540D01*
G37*
G36*
X379942Y459992D02*
X383120Y459992D01*
X383120Y462432D01*
X381632Y463920D01*
X379942Y463920D01*
X379942Y459992D01*
G37*
G36*
X379942Y454540D02*
X381632Y454540D01*
X383120Y456028D01*
X383120Y458468D01*
X379942Y458468D01*
X379942Y454540D01*
G37*
%LPD*%
G36*
X44898Y562670D02*
X44600Y562610D01*
X44285Y562610D01*
X43999Y562666D01*
X43746Y562833D01*
X40595Y565984D01*
X40432Y566226D01*
X40372Y566523D01*
X40372Y568422D01*
X40428Y568708D01*
X40595Y568961D01*
X41642Y570008D01*
X41642Y571548D01*
X36590Y571548D01*
X36590Y573072D01*
X41642Y573072D01*
X41642Y574191D01*
X41693Y574466D01*
X41857Y574721D01*
X42107Y574893D01*
X42404Y574953D01*
X43373Y574953D01*
X43912Y575492D01*
X44153Y575655D01*
X44451Y575715D01*
X48067Y575715D01*
X48353Y575659D01*
X48606Y575492D01*
X50497Y573601D01*
X50660Y573359D01*
X50720Y573062D01*
X50720Y570079D01*
X50669Y569804D01*
X50505Y569549D01*
X50255Y569377D01*
X49958Y569317D01*
X46797Y569317D01*
X44728Y567248D01*
X44728Y564322D01*
X45139Y563911D01*
X45292Y563691D01*
X45362Y563396D01*
X45311Y563097D01*
X45148Y562842D01*
X44898Y562670D01*
G37*
G36*
X89173Y290322D02*
X88876Y290262D01*
X66400Y290262D01*
X66315Y290267D01*
X51522Y291933D01*
X51356Y291971D01*
X37305Y296888D01*
X37152Y296962D01*
X24548Y304882D01*
X24414Y304988D01*
X13888Y315514D01*
X13782Y315648D01*
X5862Y328252D01*
X5788Y328405D01*
X871Y342456D01*
X833Y342622D01*
X-833Y357415D01*
X-838Y357500D01*
X-838Y389976D01*
X-787Y390251D01*
X-623Y390506D01*
X-373Y390678D01*
X-76Y390738D01*
X67544Y390738D01*
X69174Y392368D01*
X69209Y392564D01*
X69368Y392822D01*
X69616Y392997D01*
X69912Y393062D01*
X70181Y393012D01*
X75580Y393012D01*
X75580Y401092D01*
X70159Y401092D01*
X69948Y401042D01*
X69649Y401093D01*
X69394Y401256D01*
X69222Y401507D01*
X69162Y401804D01*
X69162Y523100D01*
X69209Y523364D01*
X69368Y523622D01*
X69616Y523797D01*
X69912Y523862D01*
X70181Y523812D01*
X75580Y523812D01*
X75580Y528614D01*
X83882Y528614D01*
X83882Y529043D01*
X83929Y529307D01*
X84088Y529565D01*
X84336Y529740D01*
X84632Y529805D01*
X84930Y529750D01*
X85183Y529582D01*
X86167Y528598D01*
X89093Y528598D01*
X91162Y530667D01*
X91162Y533593D01*
X89093Y535662D01*
X86167Y535662D01*
X84763Y534258D01*
X84522Y534095D01*
X84224Y534035D01*
X78575Y534035D01*
X78289Y534091D01*
X78036Y534258D01*
X62137Y550157D01*
X61984Y550377D01*
X61914Y550672D01*
X61965Y550971D01*
X62128Y551226D01*
X62328Y551363D01*
X64492Y553527D01*
X64492Y554289D01*
X64548Y554575D01*
X64715Y554828D01*
X66270Y556383D01*
X66270Y556738D01*
X66321Y557013D01*
X66485Y557268D01*
X66735Y557440D01*
X67032Y557500D01*
X71016Y557500D01*
X71760Y558244D01*
X71760Y560578D01*
X71811Y560853D01*
X71975Y561108D01*
X72225Y561280D01*
X72522Y561340D01*
X136055Y561340D01*
X136341Y561284D01*
X136594Y561117D01*
X181010Y516701D01*
X181163Y516481D01*
X181233Y516186D01*
X181182Y515887D01*
X181019Y515632D01*
X180769Y515460D01*
X180471Y515400D01*
X172434Y515400D01*
X171690Y514656D01*
X171690Y508604D01*
X172434Y507860D01*
X175768Y507860D01*
X176043Y507809D01*
X176298Y507645D01*
X176470Y507395D01*
X176530Y507098D01*
X176530Y485621D01*
X189920Y472231D01*
X190083Y471990D01*
X190143Y471692D01*
X190143Y469392D01*
X190092Y469117D01*
X189928Y468862D01*
X189678Y468690D01*
X189381Y468630D01*
X183999Y468630D01*
X183724Y468681D01*
X183469Y468845D01*
X183297Y469095D01*
X183237Y469392D01*
X183237Y471363D01*
X181168Y473432D01*
X178242Y473432D01*
X176067Y471257D01*
X175967Y471094D01*
X175719Y470919D01*
X175423Y470854D01*
X175125Y470909D01*
X174872Y471077D01*
X171395Y474554D01*
X171232Y474796D01*
X171172Y475093D01*
X171172Y477078D01*
X169103Y479147D01*
X165862Y479147D01*
X165587Y479198D01*
X165332Y479362D01*
X165160Y479612D01*
X165100Y479909D01*
X165100Y495069D01*
X165156Y495355D01*
X165323Y495608D01*
X166727Y497012D01*
X166727Y499938D01*
X164658Y502007D01*
X164492Y502007D01*
X164217Y502058D01*
X163962Y502222D01*
X163790Y502472D01*
X163730Y502769D01*
X163730Y508156D01*
X162986Y508900D01*
X151302Y508900D01*
X151082Y508852D01*
X150784Y508907D01*
X150531Y509075D01*
X149636Y509970D01*
X148360Y509970D01*
X148074Y510026D01*
X147821Y510193D01*
X143827Y514187D01*
X143669Y514418D01*
X143604Y514714D01*
X143659Y515012D01*
X143827Y515265D01*
X144909Y516347D01*
X145151Y516510D01*
X145448Y516570D01*
X148836Y516570D01*
X149389Y517123D01*
X149609Y517276D01*
X149904Y517346D01*
X150203Y517295D01*
X150458Y517132D01*
X150630Y516882D01*
X150690Y516584D01*
X150690Y515104D01*
X151434Y514360D01*
X162986Y514360D01*
X163730Y515104D01*
X163730Y521156D01*
X162986Y521900D01*
X151434Y521900D01*
X151092Y521558D01*
X150851Y521395D01*
X150553Y521335D01*
X150342Y521335D01*
X150067Y521386D01*
X149812Y521550D01*
X149640Y521800D01*
X149639Y521807D01*
X148836Y522610D01*
X147785Y522610D01*
X147499Y522666D01*
X147246Y522833D01*
X143664Y526415D01*
X124056Y526415D01*
X123770Y526471D01*
X123517Y526638D01*
X122113Y528042D01*
X119187Y528042D01*
X117118Y525973D01*
X117118Y523047D01*
X119187Y520978D01*
X122113Y520978D01*
X123517Y522382D01*
X123758Y522545D01*
X124056Y522605D01*
X137008Y522605D01*
X137283Y522554D01*
X137538Y522390D01*
X137710Y522140D01*
X137770Y521843D01*
X137770Y520352D01*
X142322Y520352D01*
X142322Y518828D01*
X137770Y518828D01*
X137770Y518287D01*
X137719Y518012D01*
X137555Y517757D01*
X137305Y517585D01*
X137008Y517525D01*
X117321Y517525D01*
X115958Y516162D01*
X115738Y516009D01*
X115443Y515939D01*
X115144Y515990D01*
X114889Y516153D01*
X114752Y516353D01*
X112588Y518517D01*
X109662Y518517D01*
X108913Y517768D01*
X108693Y517615D01*
X108398Y517545D01*
X108099Y517596D01*
X107844Y517759D01*
X107672Y518009D01*
X107612Y518307D01*
X107612Y521978D01*
X106868Y522722D01*
X98816Y522722D01*
X98072Y521978D01*
X98072Y517896D01*
X98165Y517760D01*
X98230Y517464D01*
X98175Y517166D01*
X98072Y517011D01*
X98072Y512896D01*
X98165Y512760D01*
X98230Y512464D01*
X98175Y512166D01*
X98072Y512011D01*
X98072Y507896D01*
X98165Y507760D01*
X98230Y507464D01*
X98175Y507166D01*
X98072Y507011D01*
X98072Y502896D01*
X98165Y502760D01*
X98230Y502464D01*
X98175Y502166D01*
X98072Y502011D01*
X98072Y497896D01*
X98165Y497760D01*
X98230Y497464D01*
X98175Y497166D01*
X98072Y497011D01*
X98072Y492896D01*
X98165Y492760D01*
X98230Y492464D01*
X98175Y492166D01*
X98072Y492011D01*
X98072Y489090D01*
X98016Y488804D01*
X97849Y488551D01*
X96802Y487504D01*
X96802Y485714D01*
X108882Y485714D01*
X108882Y487504D01*
X107835Y488551D01*
X107672Y488793D01*
X107612Y489090D01*
X107612Y492008D01*
X107519Y492144D01*
X107454Y492440D01*
X107509Y492738D01*
X107612Y492893D01*
X107612Y497008D01*
X107519Y497144D01*
X107454Y497440D01*
X107509Y497738D01*
X107612Y497893D01*
X107612Y498937D01*
X107668Y499223D01*
X107835Y499476D01*
X109151Y500792D01*
X109393Y500955D01*
X109690Y501015D01*
X116993Y501015D01*
X117279Y500959D01*
X117532Y500792D01*
X118140Y500184D01*
X118298Y499954D01*
X118363Y499658D01*
X118307Y499360D01*
X118276Y499313D01*
X118276Y490952D01*
X127420Y490952D01*
X127420Y479649D01*
X133552Y479649D01*
X134637Y480734D01*
X134868Y480892D01*
X135164Y480957D01*
X135369Y480919D01*
X148266Y480919D01*
X148559Y481212D01*
X148779Y481365D01*
X149074Y481435D01*
X149373Y481384D01*
X149628Y481221D01*
X149800Y480971D01*
X149860Y480673D01*
X149860Y480541D01*
X179551Y450850D01*
X193928Y450850D01*
X194203Y450799D01*
X194458Y450635D01*
X194630Y450385D01*
X194690Y450088D01*
X194690Y448812D01*
X202070Y448812D01*
X202070Y450088D01*
X202121Y450363D01*
X202285Y450618D01*
X202535Y450790D01*
X202832Y450850D01*
X204416Y450850D01*
X204679Y450803D01*
X204937Y450644D01*
X205113Y450396D01*
X205178Y450100D01*
X205122Y449802D01*
X204955Y449549D01*
X203371Y447965D01*
X203151Y447812D01*
X202856Y447742D01*
X202557Y447793D01*
X202451Y447861D01*
X202451Y447288D01*
X194690Y447288D01*
X194690Y445898D01*
X194901Y445687D01*
X195059Y445457D01*
X195124Y445161D01*
X195068Y444863D01*
X194901Y444610D01*
X184502Y434211D01*
X184266Y434050D01*
X183969Y433988D01*
X183671Y434046D01*
X179812Y435644D01*
X175328Y435644D01*
X171186Y433929D01*
X168016Y430758D01*
X166646Y427453D01*
X166498Y427223D01*
X166251Y427047D01*
X165955Y426982D01*
X165657Y427038D01*
X165404Y427205D01*
X155712Y436897D01*
X155559Y437117D01*
X155489Y437412D01*
X155540Y437711D01*
X155608Y437817D01*
X155538Y437817D01*
X155538Y449976D01*
X143379Y449976D01*
X143379Y450043D01*
X143306Y449992D01*
X143010Y449927D01*
X142712Y449982D01*
X142459Y450150D01*
X119603Y473006D01*
X119440Y473248D01*
X119380Y473545D01*
X119380Y476654D01*
X119436Y476940D01*
X119603Y477193D01*
X121007Y478597D01*
X121007Y478887D01*
X121058Y479162D01*
X121222Y479417D01*
X121472Y479589D01*
X121769Y479649D01*
X125896Y479649D01*
X125896Y489428D01*
X118276Y489428D01*
X118276Y484354D01*
X118225Y484079D01*
X118061Y483824D01*
X117811Y483652D01*
X117514Y483592D01*
X116012Y483592D01*
X113943Y481523D01*
X113943Y478997D01*
X113896Y478733D01*
X113737Y478475D01*
X113489Y478300D01*
X113193Y478235D01*
X112895Y478290D01*
X112642Y478458D01*
X111953Y479147D01*
X109968Y479147D01*
X109682Y479203D01*
X109429Y479370D01*
X108179Y480620D01*
X108021Y480850D01*
X107956Y481146D01*
X108012Y481444D01*
X108179Y481697D01*
X108882Y482400D01*
X108882Y484190D01*
X96802Y484190D01*
X96802Y482400D01*
X97849Y481353D01*
X98012Y481112D01*
X98072Y480814D01*
X98072Y477896D01*
X98165Y477760D01*
X98230Y477464D01*
X98175Y477166D01*
X98072Y477011D01*
X98072Y472896D01*
X98165Y472760D01*
X98230Y472464D01*
X98175Y472166D01*
X98072Y472011D01*
X98072Y467896D01*
X98165Y467760D01*
X98230Y467464D01*
X98175Y467166D01*
X98072Y467011D01*
X98072Y462896D01*
X98165Y462760D01*
X98230Y462464D01*
X98175Y462166D01*
X98072Y462011D01*
X98072Y457896D01*
X98165Y457760D01*
X98230Y457464D01*
X98175Y457166D01*
X98072Y457011D01*
X98072Y452896D01*
X98165Y452760D01*
X98230Y452464D01*
X98175Y452166D01*
X98072Y452011D01*
X98072Y447896D01*
X98165Y447760D01*
X98230Y447464D01*
X98175Y447166D01*
X98072Y447011D01*
X98072Y444090D01*
X98016Y443804D01*
X97849Y443551D01*
X96802Y442504D01*
X96802Y440714D01*
X103604Y440714D01*
X103604Y439190D01*
X96802Y439190D01*
X96802Y437400D01*
X97849Y436353D01*
X98012Y436112D01*
X98072Y435814D01*
X98072Y432896D01*
X98165Y432760D01*
X98230Y432464D01*
X98175Y432166D01*
X98072Y432011D01*
X98072Y427896D01*
X98165Y427760D01*
X98230Y427464D01*
X98175Y427166D01*
X98072Y427011D01*
X98072Y422896D01*
X98165Y422760D01*
X98230Y422464D01*
X98175Y422166D01*
X98072Y422011D01*
X98072Y421122D01*
X98016Y420836D01*
X97849Y420583D01*
X92710Y415444D01*
X92710Y406870D01*
X92654Y406584D01*
X92487Y406331D01*
X85183Y399027D01*
X84963Y398874D01*
X84668Y398804D01*
X84369Y398855D01*
X84114Y399018D01*
X83942Y399269D01*
X83882Y399566D01*
X83882Y399604D01*
X82394Y401092D01*
X77104Y401092D01*
X77104Y393012D01*
X77328Y393012D01*
X77592Y392965D01*
X77850Y392806D01*
X78025Y392558D01*
X78090Y392262D01*
X78035Y391964D01*
X77867Y391711D01*
X54044Y367888D01*
X53803Y367725D01*
X53505Y367665D01*
X45882Y367665D01*
X45607Y367716D01*
X45352Y367880D01*
X45180Y368130D01*
X45120Y368427D01*
X45120Y369776D01*
X44376Y370520D01*
X31824Y370520D01*
X31080Y369776D01*
X31080Y360724D01*
X31824Y359980D01*
X44376Y359980D01*
X45120Y360724D01*
X45120Y363093D01*
X45171Y363368D01*
X45335Y363623D01*
X45585Y363795D01*
X45882Y363855D01*
X51981Y363855D01*
X52245Y363808D01*
X52503Y363649D01*
X52678Y363401D01*
X52743Y363105D01*
X52688Y362807D01*
X52520Y362554D01*
X36195Y346229D01*
X36195Y335682D01*
X36144Y335407D01*
X35980Y335152D01*
X35730Y334980D01*
X35433Y334920D01*
X31294Y334920D01*
X30550Y334176D01*
X30550Y325124D01*
X31294Y324380D01*
X43846Y324380D01*
X44590Y325124D01*
X44590Y334176D01*
X43846Y334920D01*
X40767Y334920D01*
X40492Y334971D01*
X40237Y335135D01*
X40065Y335385D01*
X40005Y335682D01*
X40005Y344335D01*
X40061Y344621D01*
X40228Y344874D01*
X64779Y369425D01*
X64999Y369578D01*
X65294Y369648D01*
X65593Y369597D01*
X65848Y369434D01*
X66020Y369184D01*
X66080Y368886D01*
X66080Y360724D01*
X66824Y359980D01*
X75795Y359980D01*
X76081Y359924D01*
X76334Y359757D01*
X83219Y352872D01*
X83377Y352642D01*
X83442Y352346D01*
X83386Y352048D01*
X83219Y351795D01*
X83070Y351646D01*
X83070Y347794D01*
X83155Y347709D01*
X83313Y347478D01*
X83378Y347182D01*
X83323Y346884D01*
X83155Y346631D01*
X83070Y346546D01*
X83070Y343890D01*
X83014Y343604D01*
X82847Y343351D01*
X82341Y342845D01*
X82100Y342682D01*
X81802Y342622D01*
X80452Y342622D01*
X78383Y340553D01*
X78383Y339203D01*
X78327Y338917D01*
X78160Y338664D01*
X74639Y335143D01*
X74398Y334980D01*
X74100Y334920D01*
X66294Y334920D01*
X65550Y334176D01*
X65550Y325124D01*
X66294Y324380D01*
X78846Y324380D01*
X79590Y325124D01*
X79590Y334390D01*
X79646Y334676D01*
X79813Y334929D01*
X80219Y335335D01*
X80461Y335498D01*
X80758Y335558D01*
X83378Y335558D01*
X85447Y337627D01*
X85447Y340247D01*
X85503Y340533D01*
X85670Y340786D01*
X86611Y341727D01*
X86853Y341890D01*
X87150Y341950D01*
X89166Y341950D01*
X89910Y342694D01*
X89910Y346546D01*
X89825Y346631D01*
X89667Y346862D01*
X89602Y347158D01*
X89657Y347456D01*
X89825Y347709D01*
X89910Y347794D01*
X89910Y350393D01*
X89961Y350668D01*
X90125Y350923D01*
X90375Y351095D01*
X90672Y351155D01*
X116609Y351155D01*
X116895Y351099D01*
X117148Y350932D01*
X118552Y349528D01*
X121478Y349528D01*
X123547Y351597D01*
X123547Y354523D01*
X121478Y356592D01*
X118552Y356592D01*
X117148Y355188D01*
X116907Y355025D01*
X116609Y354965D01*
X86830Y354965D01*
X86544Y355021D01*
X86291Y355188D01*
X80343Y361136D01*
X80180Y361378D01*
X80120Y361675D01*
X80120Y369776D01*
X79376Y370520D01*
X67714Y370520D01*
X67450Y370567D01*
X67192Y370726D01*
X67017Y370974D01*
X66952Y371270D01*
X67007Y371568D01*
X67175Y371821D01*
X97637Y402283D01*
X97868Y402441D01*
X98164Y402506D01*
X98462Y402451D01*
X98715Y402283D01*
X98816Y402182D01*
X102173Y402182D01*
X102459Y402126D01*
X102712Y401959D01*
X116987Y387684D01*
X117150Y387443D01*
X117210Y387145D01*
X117210Y384754D01*
X117954Y384010D01*
X120942Y384010D01*
X121228Y383954D01*
X121481Y383787D01*
X122528Y382740D01*
X124218Y382740D01*
X124218Y388192D01*
X125742Y388192D01*
X125742Y382740D01*
X127432Y382740D01*
X128920Y384228D01*
X128920Y386322D01*
X129011Y386683D01*
X129205Y386916D01*
X129475Y387055D01*
X129777Y387078D01*
X130065Y386981D01*
X130291Y386780D01*
X130332Y386726D01*
X130417Y386633D01*
X130511Y386549D01*
X130613Y386475D01*
X130722Y386411D01*
X130836Y386359D01*
X130956Y386317D01*
X131078Y386288D01*
X131206Y386271D01*
X131326Y386266D01*
X141369Y386266D01*
X141514Y386273D01*
X141639Y386292D01*
X141761Y386323D01*
X141879Y386366D01*
X141993Y386420D01*
X142101Y386486D01*
X142202Y386562D01*
X142295Y386647D01*
X142378Y386741D01*
X142465Y386860D01*
X144093Y389354D01*
X144142Y389421D01*
X146176Y391899D01*
X146281Y392004D01*
X148685Y393977D01*
X148809Y394060D01*
X151552Y395525D01*
X151689Y395582D01*
X154505Y396436D01*
X154767Y396468D01*
X157892Y396302D01*
X158068Y396302D01*
X161193Y396468D01*
X161455Y396436D01*
X164271Y395582D01*
X164409Y395525D01*
X167151Y394060D01*
X167275Y393977D01*
X169679Y392004D01*
X169784Y391899D01*
X171817Y389422D01*
X171866Y389355D01*
X173495Y386859D01*
X173580Y386742D01*
X173665Y386648D01*
X173757Y386563D01*
X173858Y386487D01*
X173966Y386421D01*
X174079Y386366D01*
X174198Y386324D01*
X174320Y386292D01*
X174445Y386274D01*
X174591Y386266D01*
X184631Y386266D01*
X184776Y386273D01*
X184901Y386292D01*
X185023Y386323D01*
X185141Y386366D01*
X185255Y386420D01*
X185363Y386486D01*
X185464Y386562D01*
X185557Y386647D01*
X185641Y386741D01*
X185717Y386846D01*
X186014Y387089D01*
X186309Y387159D01*
X186608Y387108D01*
X186863Y386945D01*
X187035Y386694D01*
X187095Y386397D01*
X187095Y375314D01*
X187044Y375039D01*
X186880Y374784D01*
X186630Y374612D01*
X186333Y374552D01*
X185394Y374552D01*
X185198Y374357D01*
X184927Y374182D01*
X184650Y374138D01*
X184650Y374134D01*
X174591Y374134D01*
X174446Y374127D01*
X174321Y374108D01*
X174199Y374077D01*
X174081Y374034D01*
X173967Y373980D01*
X173859Y373914D01*
X173758Y373838D01*
X173665Y373753D01*
X173582Y373659D01*
X173495Y373540D01*
X171867Y371046D01*
X171818Y370979D01*
X169795Y368514D01*
X169514Y368300D01*
X169218Y368235D01*
X168920Y368291D01*
X168667Y368458D01*
X167833Y369292D01*
X164907Y369292D01*
X162838Y367223D01*
X162838Y365238D01*
X162782Y364952D01*
X162615Y364699D01*
X162199Y364284D01*
X161882Y364093D01*
X161455Y363964D01*
X161193Y363932D01*
X158068Y364098D01*
X157892Y364098D01*
X154767Y363932D01*
X154505Y363964D01*
X151689Y364818D01*
X151552Y364875D01*
X148809Y366340D01*
X148685Y366423D01*
X146281Y368396D01*
X146176Y368501D01*
X144142Y370979D01*
X144093Y371046D01*
X142465Y373540D01*
X142380Y373658D01*
X142296Y373752D01*
X142203Y373838D01*
X142102Y373913D01*
X141994Y373979D01*
X141881Y374033D01*
X141762Y374076D01*
X141640Y374108D01*
X141515Y374126D01*
X141369Y374134D01*
X131329Y374134D01*
X131184Y374127D01*
X131059Y374108D01*
X130937Y374077D01*
X130819Y374034D01*
X130705Y373980D01*
X130597Y373914D01*
X130496Y373838D01*
X130403Y373753D01*
X130319Y373659D01*
X130245Y373557D01*
X130181Y373448D01*
X130129Y373334D01*
X130087Y373214D01*
X130058Y373092D01*
X130041Y372964D01*
X130036Y372844D01*
X130036Y352559D01*
X130043Y352414D01*
X130062Y352289D01*
X130093Y352167D01*
X130136Y352049D01*
X130190Y351935D01*
X130256Y351827D01*
X130332Y351726D01*
X130417Y351633D01*
X130511Y351549D01*
X130613Y351475D01*
X130722Y351411D01*
X130836Y351359D01*
X130956Y351317D01*
X131078Y351288D01*
X131206Y351271D01*
X131326Y351266D01*
X184631Y351266D01*
X184776Y351273D01*
X184901Y351292D01*
X185023Y351323D01*
X185141Y351366D01*
X185255Y351420D01*
X185363Y351486D01*
X185464Y351562D01*
X185557Y351647D01*
X185641Y351741D01*
X185715Y351843D01*
X185779Y351952D01*
X185831Y352066D01*
X185873Y352186D01*
X185902Y352308D01*
X185919Y352436D01*
X185924Y352556D01*
X185924Y363250D01*
X185975Y363525D01*
X186138Y363780D01*
X186389Y363952D01*
X186686Y364012D01*
X195446Y364012D01*
X196190Y364756D01*
X196190Y373808D01*
X195446Y374552D01*
X193397Y374552D01*
X193122Y374603D01*
X192867Y374767D01*
X192695Y375017D01*
X192635Y375314D01*
X192635Y398298D01*
X192686Y398573D01*
X192838Y398810D01*
X192838Y408440D01*
X191148Y408440D01*
X190101Y407393D01*
X189860Y407230D01*
X189562Y407170D01*
X186682Y407170D01*
X186443Y407208D01*
X186180Y407359D01*
X185996Y407600D01*
X185921Y407894D01*
X185917Y407986D01*
X185898Y408111D01*
X185867Y408233D01*
X185824Y408351D01*
X185770Y408465D01*
X185704Y408573D01*
X185628Y408674D01*
X185543Y408767D01*
X185449Y408851D01*
X185347Y408925D01*
X185238Y408989D01*
X185124Y409041D01*
X185004Y409083D01*
X184882Y409112D01*
X184754Y409129D01*
X184634Y409134D01*
X161012Y409134D01*
X160737Y409185D01*
X160482Y409348D01*
X160310Y409599D01*
X160250Y409896D01*
X160250Y418342D01*
X128782Y449810D01*
X122043Y449810D01*
X117880Y445647D01*
X117880Y445492D01*
X117829Y445217D01*
X117665Y444962D01*
X117415Y444790D01*
X117118Y444730D01*
X111318Y444730D01*
X111032Y444786D01*
X110779Y444953D01*
X108462Y447270D01*
X108374Y447270D01*
X108099Y447321D01*
X107844Y447485D01*
X107672Y447735D01*
X107612Y448032D01*
X107612Y452008D01*
X107519Y452144D01*
X107454Y452440D01*
X107509Y452738D01*
X107612Y452893D01*
X107612Y457008D01*
X107519Y457144D01*
X107454Y457440D01*
X107509Y457738D01*
X107612Y457893D01*
X107612Y458297D01*
X107668Y458583D01*
X107835Y458836D01*
X109429Y460430D01*
X109671Y460593D01*
X109968Y460653D01*
X111953Y460653D01*
X114022Y462722D01*
X114022Y465606D01*
X114073Y465881D01*
X114237Y466136D01*
X114315Y466190D01*
X116562Y468437D01*
X116562Y468819D01*
X116609Y469083D01*
X116768Y469341D01*
X117016Y469516D01*
X117312Y469581D01*
X117610Y469526D01*
X117863Y469358D01*
X164311Y422910D01*
X165538Y422910D01*
X165813Y422859D01*
X166068Y422695D01*
X166240Y422445D01*
X166300Y422148D01*
X166300Y422133D01*
X168016Y417990D01*
X171186Y414820D01*
X175328Y413104D01*
X179812Y413104D01*
X183954Y414820D01*
X187124Y417990D01*
X188840Y422133D01*
X188840Y426616D01*
X187118Y430774D01*
X187060Y431053D01*
X187116Y431351D01*
X187283Y431604D01*
X197240Y441561D01*
X197547Y441748D01*
X197785Y441774D01*
X198294Y441927D01*
X198514Y441960D01*
X198585Y441960D01*
X198682Y441954D01*
X199321Y441872D01*
X199369Y441900D01*
X199666Y441960D01*
X202095Y441960D01*
X202381Y441904D01*
X202634Y441737D01*
X204157Y440214D01*
X204320Y439973D01*
X204380Y439675D01*
X204380Y438822D01*
X204663Y438539D01*
X204821Y438308D01*
X204886Y438012D01*
X204830Y437714D01*
X204663Y437461D01*
X204380Y437178D01*
X204380Y434290D01*
X204324Y434004D01*
X204157Y433751D01*
X203110Y432704D01*
X203110Y431262D01*
X210212Y431262D01*
X210212Y426610D01*
X214104Y426610D01*
X215812Y428318D01*
X215841Y428473D01*
X216005Y428728D01*
X216255Y428900D01*
X216552Y428960D01*
X218538Y428960D01*
X218538Y447040D01*
X216552Y447040D01*
X216277Y447091D01*
X216022Y447255D01*
X215850Y447505D01*
X215815Y447680D01*
X213945Y449549D01*
X213792Y449769D01*
X213722Y450064D01*
X213773Y450363D01*
X213937Y450618D01*
X214187Y450790D01*
X214484Y450850D01*
X225194Y450850D01*
X225480Y450794D01*
X225733Y450627D01*
X226939Y449421D01*
X227092Y449201D01*
X227162Y448906D01*
X227111Y448607D01*
X226948Y448352D01*
X226698Y448180D01*
X226400Y448120D01*
X225022Y448120D01*
X224165Y447263D01*
X223923Y447100D01*
X223626Y447040D01*
X220062Y447040D01*
X220062Y428960D01*
X223626Y428960D01*
X223912Y428904D01*
X224165Y428737D01*
X225022Y427880D01*
X228240Y427880D01*
X228526Y427824D01*
X228779Y427657D01*
X235640Y420796D01*
X235803Y420555D01*
X235863Y420257D01*
X235863Y418272D01*
X238038Y416097D01*
X238201Y415997D01*
X238376Y415749D01*
X238441Y415453D01*
X238386Y415155D01*
X238218Y414902D01*
X210254Y386938D01*
X210013Y386775D01*
X209715Y386715D01*
X204951Y386715D01*
X202565Y384329D01*
X202565Y365606D01*
X205427Y362744D01*
X205590Y362503D01*
X205650Y362205D01*
X205650Y355256D01*
X206394Y354512D01*
X216446Y354512D01*
X217190Y355256D01*
X217190Y360230D01*
X217246Y360516D01*
X217413Y360769D01*
X220383Y363739D01*
X220625Y363902D01*
X220922Y363962D01*
X222886Y363962D01*
X223630Y364706D01*
X223630Y364973D01*
X223677Y365236D01*
X223836Y365494D01*
X224084Y365670D01*
X224380Y365735D01*
X224678Y365679D01*
X224931Y365512D01*
X238883Y351560D01*
X289437Y351560D01*
X302229Y364352D01*
X302449Y364505D01*
X302744Y364575D01*
X303043Y364524D01*
X303298Y364360D01*
X303470Y364110D01*
X303530Y363813D01*
X303530Y362420D01*
X303474Y362134D01*
X303307Y361881D01*
X282575Y341149D01*
X282575Y338187D01*
X282528Y337923D01*
X282369Y337665D01*
X282121Y337490D01*
X281825Y337425D01*
X281527Y337480D01*
X281274Y337648D01*
X280982Y337940D01*
X280174Y337940D01*
X280174Y333388D01*
X278650Y333388D01*
X278650Y337940D01*
X277842Y337940D01*
X276553Y336651D01*
X276322Y336493D01*
X276026Y336428D01*
X275728Y336483D01*
X275475Y336651D01*
X275456Y336670D01*
X274973Y336670D01*
X274852Y336682D01*
X274720Y336670D01*
X273318Y336670D01*
X273230Y336610D01*
X272933Y336550D01*
X268836Y336550D01*
X268550Y336606D01*
X268297Y336773D01*
X266893Y338177D01*
X263967Y338177D01*
X261898Y336108D01*
X261898Y333182D01*
X262587Y332493D01*
X262740Y332273D01*
X262810Y331978D01*
X262759Y331679D01*
X262596Y331424D01*
X262346Y331252D01*
X262048Y331192D01*
X260650Y331192D01*
X260375Y331243D01*
X260120Y331407D01*
X259948Y331657D01*
X259888Y331954D01*
X259888Y332625D01*
X258400Y334113D01*
X256960Y334113D01*
X256960Y329711D01*
X252508Y329711D01*
X252508Y328321D01*
X253216Y327612D01*
X253395Y327331D01*
X253438Y327031D01*
X253368Y325783D01*
X253576Y325550D01*
X253710Y325339D01*
X253741Y325183D01*
X254624Y324301D01*
X254828Y324148D01*
X255276Y323647D01*
X255282Y323646D01*
X255320Y323620D01*
X256441Y323620D01*
X256484Y323619D01*
X257586Y323557D01*
X257591Y323560D01*
X257888Y323620D01*
X271130Y323620D01*
X271405Y323569D01*
X271660Y323405D01*
X271807Y323191D01*
X272192Y322806D01*
X272355Y322565D01*
X272415Y322268D01*
X272415Y310985D01*
X272359Y310699D01*
X272192Y310446D01*
X271764Y310018D01*
X271528Y309858D01*
X271231Y309795D01*
X270934Y309853D01*
X266880Y311532D01*
X262396Y311532D01*
X258254Y309816D01*
X255084Y306646D01*
X254628Y305546D01*
X254488Y305325D01*
X254243Y305145D01*
X253948Y305076D01*
X253649Y305127D01*
X253394Y305290D01*
X253222Y305540D01*
X253162Y305837D01*
X253162Y306644D01*
X251544Y308262D01*
X251379Y308262D01*
X251104Y308313D01*
X250849Y308477D01*
X250677Y308727D01*
X250617Y309024D01*
X250617Y309205D01*
X250673Y309491D01*
X250840Y309744D01*
X251252Y310156D01*
X251252Y321876D01*
X250508Y322620D01*
X247030Y322620D01*
X246755Y322671D01*
X246500Y322835D01*
X246328Y323085D01*
X246268Y323382D01*
X246268Y328779D01*
X239410Y328779D01*
X239410Y337542D01*
X235564Y337542D01*
X235288Y337266D01*
X235058Y337108D01*
X234762Y337043D01*
X234464Y337099D01*
X234211Y337266D01*
X233681Y337796D01*
X232258Y337796D01*
X231994Y337843D01*
X231736Y338002D01*
X231561Y338250D01*
X231496Y338546D01*
X231551Y338844D01*
X231719Y339097D01*
X232140Y339518D01*
X232140Y340958D01*
X227738Y340958D01*
X227738Y345410D01*
X226348Y345410D01*
X225301Y344363D01*
X225060Y344200D01*
X224762Y344140D01*
X223174Y344140D01*
X222792Y343758D01*
X222551Y343595D01*
X222253Y343535D01*
X220191Y343535D01*
X213151Y336495D01*
X212910Y336332D01*
X212612Y336272D01*
X208086Y336272D01*
X207342Y335528D01*
X207342Y330327D01*
X207291Y330052D01*
X207127Y329797D01*
X206877Y329625D01*
X206580Y329565D01*
X206229Y329565D01*
X205943Y329621D01*
X205690Y329788D01*
X205356Y330122D01*
X201652Y330122D01*
X201377Y330173D01*
X201122Y330337D01*
X200950Y330587D01*
X200890Y330884D01*
X200890Y348614D01*
X200946Y348900D01*
X201113Y349153D01*
X201652Y349692D01*
X201652Y352618D01*
X199583Y354687D01*
X196657Y354687D01*
X194588Y352618D01*
X194588Y349692D01*
X195127Y349153D01*
X195290Y348912D01*
X195350Y348614D01*
X195350Y327786D01*
X195348Y327732D01*
X195235Y326156D01*
X195374Y325995D01*
X195500Y325794D01*
X195560Y325496D01*
X195560Y324826D01*
X196304Y324082D01*
X199856Y324082D01*
X200291Y324517D01*
X200522Y324675D01*
X200818Y324740D01*
X201116Y324685D01*
X201369Y324517D01*
X202010Y323876D01*
X202168Y323645D01*
X202233Y323349D01*
X202178Y323051D01*
X202010Y322798D01*
X201088Y321876D01*
X201088Y310156D01*
X201500Y309744D01*
X201663Y309503D01*
X201723Y309205D01*
X201723Y309024D01*
X201672Y308749D01*
X201508Y308494D01*
X201443Y308449D01*
X199638Y306644D01*
X199638Y291024D01*
X199587Y290749D01*
X199423Y290494D01*
X199173Y290322D01*
X198876Y290262D01*
X143924Y290262D01*
X143649Y290313D01*
X143394Y290477D01*
X143222Y290727D01*
X143162Y291024D01*
X143162Y300736D01*
X143209Y301000D01*
X143368Y301258D01*
X143616Y301433D01*
X143912Y301498D01*
X144210Y301443D01*
X144463Y301275D01*
X145098Y300640D01*
X151138Y300640D01*
X151138Y313720D01*
X145098Y313720D01*
X143413Y312035D01*
X143193Y311882D01*
X142898Y311812D01*
X142599Y311863D01*
X142344Y312026D01*
X142172Y312277D01*
X142112Y312574D01*
X142112Y321836D01*
X141368Y322580D01*
X137890Y322580D01*
X137615Y322631D01*
X137360Y322795D01*
X137188Y323045D01*
X137128Y323342D01*
X137128Y328739D01*
X130270Y328739D01*
X130270Y337502D01*
X126424Y337502D01*
X126148Y337226D01*
X125918Y337068D01*
X125622Y337003D01*
X125324Y337059D01*
X125071Y337226D01*
X124541Y337756D01*
X123538Y337756D01*
X123274Y337803D01*
X123016Y337962D01*
X122841Y338210D01*
X122776Y338506D01*
X122831Y338804D01*
X122999Y339057D01*
X123270Y339328D01*
X123270Y340768D01*
X118868Y340768D01*
X118868Y345220D01*
X117478Y345220D01*
X116431Y344173D01*
X116190Y344010D01*
X115892Y343950D01*
X114304Y343950D01*
X113560Y343206D01*
X113560Y341995D01*
X113504Y341709D01*
X113337Y341456D01*
X113099Y341218D01*
X112858Y341055D01*
X112560Y340995D01*
X110721Y340995D01*
X110435Y341051D01*
X110182Y341218D01*
X108778Y342622D01*
X105852Y342622D01*
X103783Y340553D01*
X103783Y338568D01*
X103727Y338282D01*
X103560Y338029D01*
X101986Y336455D01*
X101745Y336292D01*
X101447Y336232D01*
X98946Y336232D01*
X98388Y335674D01*
X98158Y335516D01*
X97862Y335451D01*
X97564Y335507D01*
X97311Y335674D01*
X95443Y337542D01*
X92517Y337542D01*
X90448Y335473D01*
X90448Y334711D01*
X90392Y334425D01*
X90225Y334172D01*
X87400Y331347D01*
X87400Y330832D01*
X87344Y330546D01*
X87177Y330293D01*
X87070Y330186D01*
X87070Y329500D01*
X87055Y329350D01*
X86648Y327334D01*
X86943Y326889D01*
X87070Y326468D01*
X87070Y325634D01*
X87814Y324890D01*
X91366Y324890D01*
X91801Y325325D01*
X92032Y325483D01*
X92328Y325548D01*
X92626Y325493D01*
X92879Y325325D01*
X93314Y324890D01*
X96866Y324890D01*
X96901Y324925D01*
X97121Y325078D01*
X97416Y325148D01*
X97715Y325097D01*
X97970Y324934D01*
X98142Y324684D01*
X98202Y324386D01*
X98202Y323342D01*
X98151Y323067D01*
X97987Y322812D01*
X97737Y322640D01*
X97440Y322580D01*
X92692Y322580D01*
X91948Y321836D01*
X91948Y310116D01*
X92360Y309704D01*
X92523Y309463D01*
X92583Y309165D01*
X92583Y309024D01*
X92532Y308749D01*
X92368Y308494D01*
X92118Y308322D01*
X91821Y308262D01*
X91256Y308262D01*
X89638Y306644D01*
X89638Y291024D01*
X89587Y290749D01*
X89423Y290494D01*
X89173Y290322D01*
G37*
%LPC*%
G36*
X77104Y523812D02*
X82394Y523812D01*
X83882Y525300D01*
X83882Y527090D01*
X77104Y527090D01*
X77104Y523812D01*
G37*
G36*
X143760Y451500D02*
X155538Y451500D01*
X155538Y463278D01*
X153806Y463278D01*
X149197Y461369D01*
X145669Y457841D01*
X143760Y453232D01*
X143760Y451500D01*
G37*
G36*
X157062Y451500D02*
X168840Y451500D01*
X168840Y453232D01*
X166931Y457841D01*
X163403Y461369D01*
X158794Y463278D01*
X157062Y463278D01*
X157062Y451500D01*
G37*
G36*
X157062Y438198D02*
X158794Y438198D01*
X163403Y440107D01*
X166931Y443635D01*
X168840Y448244D01*
X168840Y449976D01*
X157062Y449976D01*
X157062Y438198D01*
G37*
G36*
X204796Y426610D02*
X208688Y426610D01*
X208688Y429738D01*
X203110Y429738D01*
X203110Y428296D01*
X204796Y426610D01*
G37*
G36*
X194362Y404512D02*
X197540Y404512D01*
X197540Y406952D01*
X196052Y408440D01*
X194362Y408440D01*
X194362Y404512D01*
G37*
G36*
X194362Y399060D02*
X196052Y399060D01*
X197540Y400548D01*
X197540Y402988D01*
X194362Y402988D01*
X194362Y399060D01*
G37*
G36*
X229262Y342482D02*
X232140Y342482D01*
X232140Y343922D01*
X230652Y345410D01*
X229262Y345410D01*
X229262Y342482D01*
G37*
G36*
X120392Y342292D02*
X123270Y342292D01*
X123270Y343732D01*
X121782Y345220D01*
X120392Y345220D01*
X120392Y342292D01*
G37*
G36*
X240934Y330303D02*
X246268Y330303D01*
X246268Y336054D01*
X244780Y337542D01*
X240934Y337542D01*
X240934Y330303D01*
G37*
G36*
X131794Y330263D02*
X137128Y330263D01*
X137128Y336014D01*
X135640Y337502D01*
X131794Y337502D01*
X131794Y330263D01*
G37*
G36*
X252508Y331235D02*
X255436Y331235D01*
X255436Y334113D01*
X253996Y334113D01*
X252508Y332625D01*
X252508Y331235D01*
G37*
G36*
X152662Y300640D02*
X158702Y300640D01*
X160190Y302128D01*
X160190Y303046D01*
X160241Y303321D01*
X160405Y303576D01*
X160655Y303748D01*
X160952Y303808D01*
X162753Y303808D01*
X164157Y305212D01*
X164398Y305375D01*
X164696Y305435D01*
X179118Y305435D01*
X179393Y305384D01*
X179648Y305220D01*
X179820Y304970D01*
X179880Y304673D01*
X179880Y302654D01*
X180624Y301910D01*
X193176Y301910D01*
X193920Y302654D01*
X193920Y311706D01*
X193176Y312450D01*
X180624Y312450D01*
X179880Y311706D01*
X179880Y310007D01*
X179829Y309732D01*
X179665Y309477D01*
X179415Y309305D01*
X179118Y309245D01*
X164696Y309245D01*
X164410Y309301D01*
X164157Y309468D01*
X162753Y310872D01*
X160952Y310872D01*
X160677Y310923D01*
X160422Y311087D01*
X160250Y311337D01*
X160190Y311634D01*
X160190Y312232D01*
X158702Y313720D01*
X152662Y313720D01*
X152662Y300640D01*
G37*
%LPD*%
G36*
X342239Y513716D02*
X342205Y513715D01*
X341922Y513715D01*
X341647Y513766D01*
X341392Y513930D01*
X341220Y514180D01*
X341160Y514477D01*
X341160Y516680D01*
X339672Y518168D01*
X332402Y518168D01*
X332127Y518219D01*
X331872Y518383D01*
X331700Y518633D01*
X331640Y518930D01*
X331640Y519818D01*
X331151Y520307D01*
X330998Y520527D01*
X330928Y520822D01*
X330979Y521121D01*
X331143Y521376D01*
X331393Y521548D01*
X331690Y521608D01*
X332810Y521608D01*
X333362Y522160D01*
X333636Y522335D01*
X333936Y522382D01*
X334230Y522308D01*
X334472Y522126D01*
X334591Y521919D01*
X336661Y520887D01*
X338837Y521615D01*
X339059Y522059D01*
X339185Y522241D01*
X339432Y522416D01*
X339728Y522481D01*
X340027Y522426D01*
X340279Y522258D01*
X340930Y521608D01*
X342810Y521608D01*
X343584Y522382D01*
X343826Y522545D01*
X344123Y522605D01*
X344959Y522605D01*
X347276Y524922D01*
X347518Y525085D01*
X347815Y525145D01*
X355369Y525145D01*
X355655Y525089D01*
X355908Y524922D01*
X356677Y524153D01*
X359603Y524153D01*
X361672Y526222D01*
X361672Y529148D01*
X359603Y531217D01*
X356677Y531217D01*
X354638Y529178D01*
X354397Y529015D01*
X354099Y528955D01*
X349734Y528955D01*
X349459Y529006D01*
X349204Y529170D01*
X349032Y529420D01*
X348972Y529717D01*
X348972Y532958D01*
X346903Y535027D01*
X345052Y535027D01*
X344777Y535078D01*
X344522Y535242D01*
X344350Y535492D01*
X344290Y535789D01*
X344290Y535888D01*
X338838Y535888D01*
X338838Y540590D01*
X336398Y540590D01*
X335214Y539406D01*
X334983Y539248D01*
X334687Y539183D01*
X334389Y539238D01*
X334136Y539406D01*
X333562Y539980D01*
X331122Y539980D01*
X331122Y535278D01*
X325670Y535278D01*
X325670Y533588D01*
X326717Y532541D01*
X326880Y532300D01*
X326940Y532002D01*
X326940Y530610D01*
X326884Y530324D01*
X326717Y530071D01*
X325120Y528474D01*
X325120Y525678D01*
X325073Y525415D01*
X324914Y525157D01*
X324666Y524981D01*
X324370Y524916D01*
X324072Y524972D01*
X323819Y525139D01*
X322810Y526148D01*
X320930Y526148D01*
X319909Y525127D01*
X319678Y524969D01*
X319382Y524904D01*
X319084Y524960D01*
X318831Y525127D01*
X317810Y526148D01*
X315930Y526148D01*
X314924Y525143D01*
X314694Y524985D01*
X314398Y524919D01*
X314099Y524975D01*
X313847Y525143D01*
X313769Y525220D01*
X313652Y525371D01*
X313600Y525521D01*
X313083Y525916D01*
X313006Y525983D01*
X312558Y526431D01*
X312497Y526439D01*
X312353Y526509D01*
X311720Y526423D01*
X311332Y526472D01*
X311079Y526640D01*
X308795Y528924D01*
X308642Y529144D01*
X308572Y529439D01*
X308623Y529738D01*
X308786Y529993D01*
X309037Y530165D01*
X309334Y530225D01*
X315114Y530225D01*
X323215Y538326D01*
X323215Y542968D01*
X323266Y543243D01*
X323430Y543498D01*
X323680Y543670D01*
X323977Y543730D01*
X324618Y543730D01*
X324618Y548432D01*
X326142Y548432D01*
X326142Y543730D01*
X328582Y543730D01*
X328786Y543934D01*
X329017Y544092D01*
X329313Y544157D01*
X329611Y544102D01*
X329864Y543934D01*
X329918Y543880D01*
X332358Y543880D01*
X332358Y548582D01*
X337810Y548582D01*
X337810Y549783D01*
X337861Y550058D01*
X338025Y550313D01*
X338275Y550485D01*
X338572Y550545D01*
X342430Y550545D01*
X342716Y550489D01*
X342969Y550322D01*
X362997Y530294D01*
X363160Y530053D01*
X363220Y529755D01*
X363220Y516412D01*
X363173Y516148D01*
X363014Y515890D01*
X362766Y515715D01*
X362470Y515650D01*
X362172Y515705D01*
X361919Y515873D01*
X361605Y516187D01*
X361447Y516418D01*
X361382Y516714D01*
X361437Y517012D01*
X361605Y517265D01*
X361672Y517332D01*
X361672Y520258D01*
X359603Y522327D01*
X356677Y522327D01*
X355273Y520923D01*
X355032Y520760D01*
X354734Y520700D01*
X348574Y520700D01*
X348288Y520756D01*
X348035Y520923D01*
X347810Y521148D01*
X345930Y521148D01*
X344600Y519818D01*
X344600Y517938D01*
X345930Y516608D01*
X347810Y516608D01*
X347869Y516667D01*
X348111Y516830D01*
X348408Y516890D01*
X354734Y516890D01*
X355020Y516834D01*
X355273Y516667D01*
X355665Y516275D01*
X355823Y516044D01*
X355888Y515748D01*
X355833Y515450D01*
X355665Y515197D01*
X355631Y515163D01*
X355390Y515000D01*
X355092Y514940D01*
X352104Y514940D01*
X351207Y514043D01*
X351145Y513947D01*
X350895Y513775D01*
X350598Y513715D01*
X343301Y513715D01*
X343078Y513753D01*
X342239Y513716D01*
G37*
%LPC*%
G36*
X333882Y543880D02*
X336322Y543880D01*
X337810Y545368D01*
X337810Y547058D01*
X333882Y547058D01*
X333882Y543880D01*
G37*
G36*
X340362Y537412D02*
X344290Y537412D01*
X344290Y539102D01*
X342802Y540590D01*
X340362Y540590D01*
X340362Y537412D01*
G37*
G36*
X325670Y536802D02*
X329598Y536802D01*
X329598Y539980D01*
X327158Y539980D01*
X325670Y538492D01*
X325670Y536802D01*
G37*
%LPD*%
G36*
X270084Y512505D02*
X269786Y512445D01*
X260185Y512445D01*
X259899Y512501D01*
X259646Y512668D01*
X247345Y524969D01*
X247192Y525189D01*
X247122Y525484D01*
X247173Y525783D01*
X247336Y526038D01*
X247587Y526210D01*
X247884Y526270D01*
X249818Y526270D01*
X249818Y531722D01*
X251342Y531722D01*
X251342Y526270D01*
X253032Y526270D01*
X254079Y527317D01*
X254321Y527480D01*
X254618Y527540D01*
X256215Y527540D01*
X256501Y527484D01*
X256754Y527317D01*
X270325Y513746D01*
X270478Y513526D01*
X270548Y513231D01*
X270497Y512932D01*
X270334Y512677D01*
X270084Y512505D01*
G37*
G36*
X137852Y505602D02*
X137852Y500550D01*
X132919Y500550D01*
X132919Y500849D01*
X132835Y500791D01*
X132538Y500731D01*
X130072Y500731D01*
X129797Y500782D01*
X129542Y500946D01*
X129370Y501196D01*
X129310Y501493D01*
X129310Y502638D01*
X124608Y502638D01*
X124608Y504162D01*
X129310Y504162D01*
X129310Y506602D01*
X129181Y506731D01*
X129023Y506962D01*
X128958Y507258D01*
X129013Y507556D01*
X129181Y507809D01*
X129730Y508358D01*
X129730Y510798D01*
X125028Y510798D01*
X125028Y512322D01*
X129730Y512322D01*
X129730Y512953D01*
X129781Y513228D01*
X129945Y513483D01*
X130195Y513655D01*
X130492Y513715D01*
X138595Y513715D01*
X138881Y513659D01*
X139134Y513492D01*
X141355Y511271D01*
X141508Y511051D01*
X141578Y510756D01*
X141527Y510457D01*
X141364Y510202D01*
X141114Y510030D01*
X140816Y509970D01*
X140584Y509970D01*
X139840Y509226D01*
X139840Y506364D01*
X139789Y506089D01*
X139625Y505834D01*
X139375Y505662D01*
X139078Y505602D01*
X137852Y505602D01*
G37*
%LPC*%
G36*
X133300Y502074D02*
X136328Y502074D01*
X136328Y505602D01*
X134788Y505602D01*
X133300Y504114D01*
X133300Y502074D01*
G37*
%LPD*%
G36*
X344146Y488001D02*
X343850Y487936D01*
X343552Y487992D01*
X343299Y488159D01*
X342810Y488648D01*
X341922Y488648D01*
X341647Y488699D01*
X341392Y488863D01*
X341220Y489113D01*
X341160Y489410D01*
X341160Y490616D01*
X313608Y490616D01*
X313608Y492140D01*
X341160Y492140D01*
X341160Y492276D01*
X341211Y492551D01*
X341375Y492806D01*
X341625Y492978D01*
X341922Y493038D01*
X343798Y493038D01*
X343806Y493043D01*
X344102Y493108D01*
X344400Y493053D01*
X344653Y492885D01*
X345621Y491917D01*
X345779Y491686D01*
X345844Y491390D01*
X345788Y491092D01*
X345621Y490839D01*
X344600Y489818D01*
X344600Y488698D01*
X344553Y488435D01*
X344394Y488177D01*
X344146Y488001D01*
G37*
G36*
X363401Y461037D02*
X363105Y460972D01*
X362807Y461027D01*
X362554Y461195D01*
X349363Y474386D01*
X349200Y474628D01*
X349167Y474791D01*
X348825Y475134D01*
X348713Y475291D01*
X348589Y475370D01*
X348119Y475839D01*
X347961Y476070D01*
X347896Y476366D01*
X347952Y476664D01*
X348119Y476917D01*
X349140Y477938D01*
X349140Y479818D01*
X348119Y480839D01*
X347961Y481070D01*
X347896Y481366D01*
X347952Y481664D01*
X348119Y481917D01*
X349140Y482938D01*
X349140Y484818D01*
X348214Y485744D01*
X348061Y485964D01*
X347991Y486259D01*
X348042Y486558D01*
X348206Y486813D01*
X348456Y486985D01*
X348753Y487045D01*
X350198Y487045D01*
X350473Y486994D01*
X350728Y486830D01*
X350900Y486580D01*
X350927Y486447D01*
X351704Y485670D01*
X354692Y485670D01*
X354978Y485614D01*
X355231Y485447D01*
X356278Y484400D01*
X357968Y484400D01*
X357968Y489852D01*
X359492Y489852D01*
X359492Y484400D01*
X361182Y484400D01*
X362554Y485772D01*
X362774Y485925D01*
X363069Y485995D01*
X363368Y485944D01*
X363623Y485781D01*
X363795Y485531D01*
X363855Y485233D01*
X363855Y461734D01*
X363808Y461470D01*
X363649Y461212D01*
X363401Y461037D01*
G37*
G36*
X287240Y335280D02*
X287186Y335268D01*
X286888Y335324D01*
X286635Y335491D01*
X286609Y335517D01*
X286445Y335759D01*
X286385Y336056D01*
X286385Y339255D01*
X286441Y339541D01*
X286608Y339794D01*
X307340Y360526D01*
X307340Y372264D01*
X278353Y401251D01*
X278190Y401493D01*
X278130Y401790D01*
X278130Y434494D01*
X268193Y444431D01*
X268030Y444673D01*
X267970Y444970D01*
X267970Y453138D01*
X268021Y453413D01*
X268185Y453668D01*
X268435Y453840D01*
X268732Y453900D01*
X269148Y453900D01*
X269148Y463280D01*
X268732Y463280D01*
X268457Y463331D01*
X268202Y463495D01*
X268030Y463745D01*
X267970Y464042D01*
X267970Y471018D01*
X268021Y471293D01*
X268185Y471548D01*
X268435Y471720D01*
X268732Y471780D01*
X269388Y471780D01*
X269388Y477232D01*
X270912Y477232D01*
X270912Y471780D01*
X271296Y471780D01*
X271571Y471729D01*
X271826Y471565D01*
X271998Y471315D01*
X272058Y471018D01*
X272058Y469072D01*
X274127Y467003D01*
X277053Y467003D01*
X279122Y469072D01*
X279122Y469834D01*
X279178Y470120D01*
X279345Y470373D01*
X279499Y470527D01*
X279797Y470711D01*
X280367Y470901D01*
X280608Y470940D01*
X281106Y470940D01*
X281447Y470860D01*
X281767Y470700D01*
X281803Y470706D01*
X281891Y470689D01*
X282353Y470881D01*
X282646Y470940D01*
X282949Y470940D01*
X283179Y470905D01*
X283444Y470758D01*
X283580Y470584D01*
X284470Y469800D01*
X284506Y469767D01*
X285238Y469034D01*
X285396Y468804D01*
X285461Y468508D01*
X285406Y468210D01*
X285238Y467957D01*
X284600Y467318D01*
X284600Y465582D01*
X284549Y465307D01*
X284385Y465052D01*
X284135Y464880D01*
X283838Y464820D01*
X278611Y464820D01*
X276024Y462233D01*
X275783Y462070D01*
X275485Y462010D01*
X273948Y462010D01*
X273662Y462066D01*
X273409Y462233D01*
X272362Y463280D01*
X270672Y463280D01*
X270672Y453900D01*
X272362Y453900D01*
X273409Y454947D01*
X273651Y455110D01*
X273948Y455170D01*
X275106Y455170D01*
X275381Y455119D01*
X275636Y454955D01*
X275808Y454705D01*
X275868Y454408D01*
X275868Y452562D01*
X277975Y450455D01*
X278048Y450442D01*
X278303Y450278D01*
X278475Y450028D01*
X278535Y449731D01*
X278535Y436368D01*
X279582Y435321D01*
X279745Y435079D01*
X279805Y434782D01*
X279805Y412873D01*
X290597Y402081D01*
X290760Y401839D01*
X290820Y401542D01*
X290820Y401468D01*
X290764Y401182D01*
X290597Y400929D01*
X289550Y399882D01*
X289550Y398192D01*
X298930Y398192D01*
X298930Y399882D01*
X297883Y400929D01*
X297720Y401171D01*
X297660Y401468D01*
X297660Y404456D01*
X296916Y405200D01*
X295628Y405200D01*
X295342Y405256D01*
X295089Y405423D01*
X285568Y414944D01*
X285405Y415186D01*
X285345Y415483D01*
X285345Y430046D01*
X285396Y430321D01*
X285560Y430576D01*
X285810Y430748D01*
X286107Y430808D01*
X289118Y430808D01*
X291187Y432877D01*
X291187Y434862D01*
X291243Y435148D01*
X291410Y435401D01*
X293617Y437608D01*
X293837Y437761D01*
X294132Y437831D01*
X294431Y437780D01*
X294686Y437617D01*
X294823Y437417D01*
X296987Y435253D01*
X299913Y435253D01*
X301982Y437322D01*
X301982Y439307D01*
X302038Y439593D01*
X302205Y439846D01*
X312794Y450435D01*
X313014Y450588D01*
X313309Y450658D01*
X313608Y450607D01*
X313863Y450444D01*
X314035Y450194D01*
X314095Y449896D01*
X314095Y447263D01*
X314029Y446953D01*
X313852Y446706D01*
X313409Y446293D01*
X313288Y446111D01*
X307745Y440567D01*
X307745Y416048D01*
X314631Y409161D01*
X314789Y408931D01*
X314854Y408635D01*
X314799Y408337D01*
X314631Y408084D01*
X308380Y401832D01*
X308380Y390648D01*
X308792Y390236D01*
X308955Y389994D01*
X309015Y389697D01*
X309015Y360238D01*
X308959Y359952D01*
X308792Y359699D01*
X306475Y357382D01*
X306475Y347702D01*
X306424Y347427D01*
X306260Y347172D01*
X306010Y347000D01*
X305713Y346940D01*
X300991Y346940D01*
X300705Y346996D01*
X300452Y347163D01*
X299913Y347702D01*
X296987Y347702D01*
X294918Y345633D01*
X294918Y342707D01*
X296987Y340638D01*
X297976Y340638D01*
X298240Y340591D01*
X298498Y340432D01*
X298673Y340184D01*
X298738Y339888D01*
X298683Y339590D01*
X298590Y339450D01*
X298590Y338022D01*
X303042Y338022D01*
X303042Y336498D01*
X298590Y336498D01*
X298590Y336042D01*
X298539Y335767D01*
X298375Y335512D01*
X298125Y335340D01*
X297828Y335280D01*
X287240Y335280D01*
G37*
%LPC*%
G36*
X291038Y393490D02*
X293478Y393490D01*
X293478Y396668D01*
X289550Y396668D01*
X289550Y394978D01*
X291038Y393490D01*
G37*
G36*
X295002Y393490D02*
X297442Y393490D01*
X298930Y394978D01*
X298930Y396668D01*
X295002Y396668D01*
X295002Y393490D01*
G37*
%LPD*%
G36*
X323332Y450980D02*
X323332Y445528D01*
X321808Y445528D01*
X321808Y450980D01*
X320397Y450980D01*
X320122Y451031D01*
X319867Y451195D01*
X319695Y451445D01*
X319635Y451742D01*
X319635Y456063D01*
X319682Y456326D01*
X319841Y456584D01*
X320089Y456760D01*
X320385Y456825D01*
X320683Y456769D01*
X320927Y456608D01*
X322810Y456608D01*
X323831Y457629D01*
X324062Y457787D01*
X324358Y457852D01*
X324656Y457796D01*
X324909Y457629D01*
X325930Y456608D01*
X327218Y456608D01*
X327482Y456561D01*
X327740Y456402D01*
X327915Y456154D01*
X327980Y455858D01*
X327938Y455631D01*
X327938Y452562D01*
X329342Y451158D01*
X329505Y450917D01*
X329565Y450619D01*
X329565Y450050D01*
X329509Y449764D01*
X329342Y449511D01*
X327811Y447980D01*
X327591Y447827D01*
X327296Y447757D01*
X326997Y447808D01*
X326742Y447971D01*
X326570Y448222D01*
X326510Y448519D01*
X326510Y449492D01*
X325022Y450980D01*
X323332Y450980D01*
G37*
G36*
X130151Y408566D02*
X129856Y408496D01*
X129557Y408547D01*
X129302Y408710D01*
X129159Y408918D01*
X124368Y408918D01*
X124368Y410442D01*
X129070Y410442D01*
X129070Y413018D01*
X129023Y413233D01*
X129078Y413531D01*
X129246Y413784D01*
X129450Y413988D01*
X129450Y416428D01*
X124748Y416428D01*
X124748Y417952D01*
X129450Y417952D01*
X129450Y420392D01*
X128986Y420856D01*
X128828Y421087D01*
X128763Y421383D01*
X128818Y421681D01*
X128986Y421934D01*
X129160Y422108D01*
X129160Y424548D01*
X124458Y424548D01*
X124458Y426072D01*
X129160Y426072D01*
X129160Y428512D01*
X128796Y428876D01*
X128638Y429107D01*
X128573Y429403D01*
X128628Y429701D01*
X128796Y429954D01*
X129470Y430628D01*
X129470Y433068D01*
X124768Y433068D01*
X124768Y434592D01*
X129470Y434592D01*
X129470Y437032D01*
X129291Y437211D01*
X129133Y437442D01*
X129068Y437738D01*
X129123Y438036D01*
X129291Y438289D01*
X129340Y438338D01*
X129340Y439578D01*
X129387Y439841D01*
X129546Y440099D01*
X129794Y440275D01*
X130090Y440340D01*
X130388Y440284D01*
X130641Y440117D01*
X154487Y416271D01*
X154650Y416029D01*
X154710Y415732D01*
X154710Y409896D01*
X154659Y409621D01*
X154495Y409366D01*
X154245Y409194D01*
X153948Y409134D01*
X131329Y409134D01*
X131184Y409127D01*
X131059Y409108D01*
X130937Y409077D01*
X130819Y409034D01*
X130705Y408980D01*
X130597Y408914D01*
X130496Y408838D01*
X130403Y408753D01*
X130401Y408750D01*
X130398Y408748D01*
X130375Y408728D01*
X130373Y408730D01*
X130151Y408566D01*
G37*
G36*
X385238Y290307D02*
X385016Y290262D01*
X363924Y290262D01*
X363649Y290313D01*
X363394Y290477D01*
X363222Y290727D01*
X363162Y291024D01*
X363162Y306644D01*
X361490Y308316D01*
X361239Y308477D01*
X361067Y308727D01*
X361007Y309024D01*
X361007Y309245D01*
X361063Y309531D01*
X361230Y309784D01*
X361642Y310196D01*
X361642Y321916D01*
X360898Y322660D01*
X357420Y322660D01*
X357145Y322711D01*
X356890Y322875D01*
X356718Y323125D01*
X356658Y323422D01*
X356658Y328819D01*
X349800Y328819D01*
X349800Y337582D01*
X345954Y337582D01*
X345678Y337306D01*
X345448Y337148D01*
X345152Y337083D01*
X344854Y337139D01*
X344601Y337306D01*
X344071Y337836D01*
X342808Y337836D01*
X342544Y337883D01*
X342286Y338042D01*
X342111Y338290D01*
X342046Y338586D01*
X342101Y338884D01*
X342269Y339137D01*
X342650Y339518D01*
X342650Y340958D01*
X338248Y340958D01*
X338248Y345410D01*
X337947Y345410D01*
X337672Y345461D01*
X337417Y345625D01*
X337245Y345875D01*
X337185Y346172D01*
X337185Y370991D01*
X337236Y371266D01*
X337400Y371521D01*
X337650Y371693D01*
X337947Y371753D01*
X341188Y371753D01*
X343257Y373822D01*
X343257Y375807D01*
X343313Y376093D01*
X343480Y376346D01*
X367665Y400531D01*
X367665Y405996D01*
X367710Y406253D01*
X367867Y406513D01*
X368113Y406690D01*
X368409Y406757D01*
X368707Y406704D01*
X368962Y406539D01*
X369131Y406287D01*
X369837Y404582D01*
X371901Y402519D01*
X374597Y401402D01*
X377515Y401402D01*
X380211Y402519D01*
X381204Y403512D01*
X381429Y403668D01*
X381725Y403735D01*
X382023Y403682D01*
X382278Y403517D01*
X382447Y403265D01*
X383273Y401271D01*
X383471Y401073D01*
X383624Y400853D01*
X383694Y400558D01*
X383643Y400259D01*
X383480Y400004D01*
X383229Y399832D01*
X382932Y399772D01*
X380807Y399772D01*
X378738Y397703D01*
X378738Y396386D01*
X378689Y396117D01*
X378528Y395860D01*
X378279Y395686D01*
X377982Y395624D01*
X377684Y395682D01*
X377515Y395752D01*
X374597Y395752D01*
X371901Y394635D01*
X369837Y392572D01*
X368721Y389876D01*
X368721Y386958D01*
X369837Y384262D01*
X371901Y382199D01*
X374597Y381082D01*
X377515Y381082D01*
X380211Y382199D01*
X382274Y384262D01*
X383391Y386958D01*
X383391Y388410D01*
X383438Y388673D01*
X383597Y388931D01*
X383844Y389107D01*
X384140Y389172D01*
X384439Y389116D01*
X384691Y388949D01*
X386598Y387042D01*
X387498Y387042D01*
X387755Y386997D01*
X388015Y386840D01*
X388192Y386594D01*
X388259Y386298D01*
X388206Y386000D01*
X388041Y385746D01*
X387789Y385576D01*
X387031Y385262D01*
X383021Y381252D01*
X380851Y376013D01*
X380851Y370342D01*
X383021Y365102D01*
X387031Y361092D01*
X392270Y358922D01*
X397568Y358922D01*
X397832Y358875D01*
X398090Y358716D01*
X398265Y358468D01*
X398330Y358172D01*
X398275Y357874D01*
X398107Y357621D01*
X384175Y343689D01*
X384175Y339387D01*
X384130Y339129D01*
X383973Y338870D01*
X383727Y338692D01*
X383431Y338625D01*
X383133Y338678D01*
X382879Y338844D01*
X382709Y339095D01*
X381111Y342953D01*
X377583Y346481D01*
X372974Y348390D01*
X371242Y348390D01*
X371242Y323310D01*
X372974Y323310D01*
X377583Y325219D01*
X381111Y328747D01*
X382709Y332605D01*
X382849Y332826D01*
X383094Y333005D01*
X383389Y333075D01*
X383688Y333024D01*
X383943Y332861D01*
X384115Y332610D01*
X384175Y332313D01*
X384175Y317687D01*
X384122Y317407D01*
X383956Y317153D01*
X383705Y316983D01*
X379506Y315244D01*
X376336Y312074D01*
X374620Y307932D01*
X374620Y303448D01*
X376336Y299306D01*
X379506Y296136D01*
X383648Y294420D01*
X388132Y294420D01*
X392274Y296136D01*
X395444Y299306D01*
X397160Y303448D01*
X397160Y307932D01*
X395444Y312074D01*
X392274Y315244D01*
X388455Y316826D01*
X388217Y316983D01*
X388045Y317233D01*
X387985Y317530D01*
X387985Y341795D01*
X388041Y342081D01*
X388208Y342334D01*
X412115Y366241D01*
X412115Y367683D01*
X412160Y367941D01*
X412317Y368200D01*
X412563Y368377D01*
X412859Y368445D01*
X413157Y368392D01*
X413412Y368226D01*
X413581Y367975D01*
X414771Y365102D01*
X418781Y361092D01*
X424020Y358922D01*
X429318Y358922D01*
X429582Y358875D01*
X429840Y358716D01*
X430015Y358468D01*
X430080Y358172D01*
X430025Y357874D01*
X429857Y357621D01*
X409399Y337163D01*
X409158Y337000D01*
X408860Y336940D01*
X408709Y336940D01*
X404566Y335224D01*
X401396Y332054D01*
X399680Y327912D01*
X399680Y323428D01*
X401396Y319286D01*
X404566Y316116D01*
X408709Y314400D01*
X413192Y314400D01*
X417334Y316116D01*
X420505Y319286D01*
X422220Y323428D01*
X422220Y327912D01*
X420505Y332054D01*
X417334Y335224D01*
X415216Y336102D01*
X414986Y336250D01*
X414811Y336497D01*
X414746Y336794D01*
X414801Y337092D01*
X414969Y337345D01*
X441699Y364075D01*
X441919Y364228D01*
X442214Y364298D01*
X442513Y364247D01*
X442768Y364084D01*
X442940Y363834D01*
X443000Y363536D01*
X443000Y347576D01*
X442951Y347307D01*
X442790Y347050D01*
X442541Y346876D01*
X442244Y346814D01*
X441946Y346872D01*
X441480Y347065D01*
X436997Y347065D01*
X432854Y345349D01*
X429684Y342179D01*
X427968Y338036D01*
X427968Y333553D01*
X429684Y329411D01*
X432854Y326240D01*
X436997Y324525D01*
X441480Y324525D01*
X445347Y326126D01*
X445594Y326183D01*
X445894Y326140D01*
X446154Y325984D01*
X446332Y325738D01*
X446400Y325443D01*
X446348Y325144D01*
X446224Y324828D01*
X446144Y324677D01*
X438073Y312829D01*
X437961Y312699D01*
X427456Y302944D01*
X427319Y302842D01*
X414906Y295670D01*
X414749Y295601D01*
X401051Y291370D01*
X400884Y291339D01*
X386620Y290264D01*
X386562Y290262D01*
X386465Y290262D01*
X386437Y290263D01*
X385238Y290307D01*
G37*
%LPC*%
G36*
X367986Y323310D02*
X369718Y323310D01*
X369718Y348390D01*
X367986Y348390D01*
X363377Y346481D01*
X359849Y342953D01*
X357940Y338344D01*
X357940Y336652D01*
X357893Y336388D01*
X357734Y336130D01*
X357486Y335955D01*
X357190Y335890D01*
X356892Y335945D01*
X356639Y336113D01*
X355170Y337582D01*
X351324Y337582D01*
X351324Y330343D01*
X356658Y330343D01*
X356658Y332620D01*
X356703Y332877D01*
X356860Y333137D01*
X357106Y333314D01*
X357402Y333382D01*
X357700Y333328D01*
X357955Y333163D01*
X358124Y332911D01*
X359849Y328747D01*
X363377Y325219D01*
X367986Y323310D01*
G37*
G36*
X339772Y342482D02*
X342650Y342482D01*
X342650Y343922D01*
X341162Y345410D01*
X339772Y345410D01*
X339772Y342482D01*
G37*
%LPD*%
G36*
X292157Y290322D02*
X291860Y290262D01*
X272416Y290262D01*
X272153Y290309D01*
X271894Y290468D01*
X271719Y290716D01*
X271654Y291012D01*
X271710Y291310D01*
X271877Y291563D01*
X274192Y293878D01*
X275908Y298020D01*
X275908Y302504D01*
X274266Y306467D01*
X274208Y306747D01*
X274264Y307045D01*
X274432Y307297D01*
X276225Y309091D01*
X276225Y320138D01*
X276272Y320401D01*
X276431Y320659D01*
X276679Y320834D01*
X276975Y320899D01*
X277273Y320844D01*
X277526Y320676D01*
X277842Y320360D01*
X278650Y320360D01*
X278650Y324912D01*
X280174Y324912D01*
X280174Y320360D01*
X280982Y320360D01*
X281274Y320652D01*
X281494Y320805D01*
X281789Y320875D01*
X282088Y320824D01*
X282343Y320661D01*
X282515Y320411D01*
X282575Y320114D01*
X282575Y314171D01*
X289728Y307017D01*
X289889Y306781D01*
X289952Y306485D01*
X289894Y306187D01*
X288368Y302504D01*
X288368Y298020D01*
X290084Y293878D01*
X292399Y291563D01*
X292552Y291343D01*
X292622Y291048D01*
X292571Y290749D01*
X292408Y290494D01*
X292157Y290322D01*
G37*
G36*
X131310Y407860D02*
X184650Y407860D01*
X184650Y387540D01*
X174572Y387540D01*
X172872Y390144D01*
X172872Y390144D01*
X172872Y390144D01*
X170642Y392862D01*
X167928Y395089D01*
X167928Y395089D01*
X167928Y395089D01*
X164832Y396743D01*
X164832Y396743D01*
X161482Y397759D01*
X157980Y397573D01*
X154478Y397759D01*
X151128Y396743D01*
X151128Y396743D01*
X148032Y395089D01*
X148032Y395089D01*
X148032Y395089D01*
X145318Y392862D01*
X143088Y390144D01*
X143088Y390144D01*
X141388Y387540D01*
X131310Y387540D01*
X131310Y407860D01*
G37*
G36*
X131310Y407860D02*
X184650Y407860D01*
X184650Y387540D01*
X174572Y387540D01*
X172872Y390144D01*
X172872Y390144D01*
X172872Y390144D01*
X170642Y392862D01*
X167928Y395089D01*
X167928Y395089D01*
X167928Y395089D01*
X164832Y396743D01*
X164832Y396743D01*
X161482Y397759D01*
X157980Y397573D01*
X154478Y397759D01*
X151128Y396743D01*
X151128Y396743D01*
X148032Y395089D01*
X148032Y395089D01*
X148032Y395089D01*
X145318Y392862D01*
X143088Y390144D01*
X143088Y390144D01*
X141388Y387540D01*
X131310Y387540D01*
X131310Y407860D01*
G37*
G36*
X174572Y372860D02*
X184650Y372860D01*
X184650Y352540D01*
X131310Y352540D01*
X131310Y372860D01*
X141388Y372860D01*
X143088Y370256D01*
X143088Y370256D01*
X145318Y367538D01*
X148032Y365311D01*
X148032Y365311D01*
X148032Y365311D01*
X151128Y363657D01*
X151128Y363657D01*
X154478Y362641D01*
X157980Y362827D01*
X161482Y362641D01*
X164832Y363657D01*
X164832Y363657D01*
X167928Y365311D01*
X167928Y365311D01*
X167928Y365311D01*
X170642Y367538D01*
X172872Y370256D01*
X172872Y370256D01*
X174572Y372860D01*
G37*
G36*
X174572Y372860D02*
X184650Y372860D01*
X184650Y352540D01*
X131310Y352540D01*
X131310Y372860D01*
X141388Y372860D01*
X143088Y370256D01*
X143088Y370256D01*
X145318Y367538D01*
X148032Y365311D01*
X148032Y365311D01*
X148032Y365311D01*
X151128Y363657D01*
X151128Y363657D01*
X154478Y362641D01*
X157980Y362827D01*
X161482Y362641D01*
X164832Y363657D01*
X164832Y363657D01*
X167928Y365311D01*
X167928Y365311D01*
X167928Y365311D01*
X170642Y367538D01*
X172872Y370256D01*
X172872Y370256D01*
X174572Y372860D01*
G37*
G36*
X175931Y593755D02*
X177110Y593888D01*
X178289Y593755D01*
X179410Y593363D01*
X180415Y592732D01*
X181254Y591893D01*
X181885Y590888D01*
X182277Y589767D01*
X182410Y588591D01*
X182410Y577585D01*
X182277Y576409D01*
X181885Y575288D01*
X181254Y574283D01*
X180415Y573444D01*
X179410Y572813D01*
X178289Y572421D01*
X177110Y572288D01*
X175931Y572421D01*
X174810Y572813D01*
X173805Y573444D01*
X172966Y574283D01*
X172335Y575288D01*
X171943Y576409D01*
X171810Y577585D01*
X171810Y588591D01*
X171943Y589767D01*
X172335Y590888D01*
X172966Y591893D01*
X173805Y592732D01*
X174810Y593363D01*
X175931Y593755D01*
G37*
G36*
X175931Y593755D02*
X177110Y593888D01*
X178289Y593755D01*
X179410Y593363D01*
X180415Y592732D01*
X181254Y591893D01*
X181885Y590888D01*
X182277Y589767D01*
X182410Y588591D01*
X182410Y577585D01*
X182277Y576409D01*
X181885Y575288D01*
X181254Y574283D01*
X180415Y573444D01*
X179410Y572813D01*
X178289Y572421D01*
X177110Y572288D01*
X175931Y572421D01*
X174810Y572813D01*
X173805Y573444D01*
X172966Y574283D01*
X172335Y575288D01*
X171943Y576409D01*
X171810Y577585D01*
X171810Y588591D01*
X171943Y589767D01*
X172335Y590888D01*
X172966Y591893D01*
X173805Y592732D01*
X174810Y593363D01*
X175931Y593755D01*
G37*
G36*
X262331Y593755D02*
X263510Y593888D01*
X264689Y593755D01*
X265810Y593363D01*
X266815Y592732D01*
X267654Y591893D01*
X268285Y590888D01*
X268677Y589767D01*
X268810Y588591D01*
X268810Y577585D01*
X268677Y576409D01*
X268285Y575288D01*
X267654Y574283D01*
X266815Y573444D01*
X265810Y572813D01*
X264689Y572421D01*
X263510Y572288D01*
X262331Y572421D01*
X261210Y572813D01*
X260205Y573444D01*
X259366Y574283D01*
X258735Y575288D01*
X258343Y576409D01*
X258210Y577585D01*
X258210Y588591D01*
X258343Y589767D01*
X258735Y590888D01*
X259366Y591893D01*
X260205Y592732D01*
X261210Y593363D01*
X262331Y593755D01*
G37*
G36*
X262331Y593755D02*
X263510Y593888D01*
X264689Y593755D01*
X265810Y593363D01*
X266815Y592732D01*
X267654Y591893D01*
X268285Y590888D01*
X268677Y589767D01*
X268810Y588591D01*
X268810Y577585D01*
X268677Y576409D01*
X268285Y575288D01*
X267654Y574283D01*
X266815Y573444D01*
X265810Y572813D01*
X264689Y572421D01*
X263510Y572288D01*
X262331Y572421D01*
X261210Y572813D01*
X260205Y573444D01*
X259366Y574283D01*
X258735Y575288D01*
X258343Y576409D01*
X258210Y577585D01*
X258210Y588591D01*
X258343Y589767D01*
X258735Y590888D01*
X259366Y591893D01*
X260205Y592732D01*
X261210Y593363D01*
X262331Y593755D01*
G37*
G36*
X175931Y633755D02*
X177110Y633888D01*
X178289Y633755D01*
X179410Y633363D01*
X180415Y632732D01*
X181254Y631893D01*
X181885Y630888D01*
X182277Y629767D01*
X182410Y628591D01*
X182410Y620585D01*
X182277Y619409D01*
X181885Y618288D01*
X181254Y617283D01*
X180415Y616444D01*
X179410Y615813D01*
X178289Y615421D01*
X177110Y615288D01*
X175931Y615421D01*
X174810Y615813D01*
X173805Y616444D01*
X172966Y617283D01*
X172335Y618288D01*
X171943Y619409D01*
X171810Y620585D01*
X171810Y628591D01*
X171943Y629767D01*
X172335Y630888D01*
X172966Y631893D01*
X173805Y632732D01*
X174810Y633363D01*
X175931Y633755D01*
G37*
G36*
X175931Y633755D02*
X177110Y633888D01*
X178289Y633755D01*
X179410Y633363D01*
X180415Y632732D01*
X181254Y631893D01*
X181885Y630888D01*
X182277Y629767D01*
X182410Y628591D01*
X182410Y620585D01*
X182277Y619409D01*
X181885Y618288D01*
X181254Y617283D01*
X180415Y616444D01*
X179410Y615813D01*
X178289Y615421D01*
X177110Y615288D01*
X175931Y615421D01*
X174810Y615813D01*
X173805Y616444D01*
X172966Y617283D01*
X172335Y618288D01*
X171943Y619409D01*
X171810Y620585D01*
X171810Y628591D01*
X171943Y629767D01*
X172335Y630888D01*
X172966Y631893D01*
X173805Y632732D01*
X174810Y633363D01*
X175931Y633755D01*
G37*
G36*
X262331Y633755D02*
X263510Y633888D01*
X264689Y633755D01*
X265810Y633363D01*
X266815Y632732D01*
X267654Y631893D01*
X268285Y630888D01*
X268677Y629767D01*
X268810Y628591D01*
X268810Y620585D01*
X268677Y619409D01*
X268285Y618288D01*
X267654Y617283D01*
X266815Y616444D01*
X265810Y615813D01*
X264689Y615421D01*
X263510Y615288D01*
X262331Y615421D01*
X261210Y615813D01*
X260205Y616444D01*
X259366Y617283D01*
X258735Y618288D01*
X258343Y619409D01*
X258210Y620585D01*
X258210Y628591D01*
X258343Y629767D01*
X258735Y630888D01*
X259366Y631893D01*
X260205Y632732D01*
X261210Y633363D01*
X262331Y633755D01*
G37*
G36*
X262331Y633755D02*
X263510Y633888D01*
X264689Y633755D01*
X265810Y633363D01*
X266815Y632732D01*
X267654Y631893D01*
X268285Y630888D01*
X268677Y629767D01*
X268810Y628591D01*
X268810Y620585D01*
X268677Y619409D01*
X268285Y618288D01*
X267654Y617283D01*
X266815Y616444D01*
X265810Y615813D01*
X264689Y615421D01*
X263510Y615288D01*
X262331Y615421D01*
X261210Y615813D01*
X260205Y616444D01*
X259366Y617283D01*
X258735Y618288D01*
X258343Y619409D01*
X258210Y620585D01*
X258210Y628591D01*
X258343Y629767D01*
X258735Y630888D01*
X259366Y631893D01*
X260205Y632732D01*
X261210Y633363D01*
X262331Y633755D01*
G37*
G36*
X93853Y306324D02*
X93853Y313182D01*
X105537Y313182D01*
X105537Y306324D01*
X93853Y306324D01*
G37*
G36*
X128523Y306324D02*
X128523Y313182D01*
X140207Y313182D01*
X140207Y306324D01*
X128523Y306324D01*
G37*
G36*
X202993Y306364D02*
X202993Y313222D01*
X214677Y313222D01*
X214677Y306364D01*
X202993Y306364D01*
G37*
G36*
X237663Y306364D02*
X237663Y313222D01*
X249347Y313222D01*
X249347Y306364D01*
X237663Y306364D01*
G37*
G36*
X313383Y306404D02*
X313383Y313262D01*
X325067Y313262D01*
X325067Y306404D01*
X313383Y306404D01*
G37*
G36*
X348053Y306404D02*
X348053Y313262D01*
X359737Y313262D01*
X359737Y306404D01*
X348053Y306404D01*
G37*
D10*
X440838Y497960D03*
X440838Y467960D03*
D11*
X408100Y509700D03*
X413200Y509700D03*
X188500Y403750D03*
X193600Y403750D03*
X353440Y503640D03*
X358540Y503640D03*
X354030Y511520D03*
X359130Y511520D03*
D12*
X339600Y531550D03*
X339600Y536650D03*
X330360Y530940D03*
X330360Y536040D03*
D11*
G36*
X254294Y540937D02*
X257092Y540898D01*
X257032Y536599D01*
X254234Y536638D01*
X254294Y540937D01*
G37*
G36*
X249194Y541008D02*
X251992Y540969D01*
X251932Y536670D01*
X249134Y536709D01*
X249194Y541008D01*
G37*
D12*
X325380Y552770D03*
X325380Y547670D03*
X333120Y552920D03*
X333120Y547820D03*
D11*
X214220Y539570D03*
X219320Y539570D03*
G36*
X215779Y502405D02*
X212981Y502341D01*
X212883Y506639D01*
X215681Y506703D01*
X215779Y502405D01*
G37*
G36*
X220877Y502521D02*
X218079Y502457D01*
X217981Y506755D01*
X220779Y506819D01*
X220877Y502521D01*
G37*
X53830Y593490D03*
X58930Y593490D03*
X404150Y544320D03*
X399050Y544320D03*
D12*
X86490Y344620D03*
X86490Y349720D03*
D11*
X275010Y458590D03*
X269910Y458590D03*
D12*
X294240Y402530D03*
X294240Y397430D03*
X419230Y492820D03*
X419230Y487720D03*
D13*
X89090Y617240D03*
X89090Y620940D03*
D12*
X78300Y620990D03*
X78300Y615890D03*
X109970Y582090D03*
X109970Y576990D03*
D13*
X198380Y448050D03*
X198380Y444350D03*
D14*
X339010Y341720D03*
X335310Y341720D03*
D12*
X381920Y493140D03*
X381920Y488040D03*
D14*
X119630Y341530D03*
X115930Y341530D03*
X228500Y341720D03*
X224800Y341720D03*
D13*
X302280Y337260D03*
X302280Y333560D03*
D12*
X118220Y582010D03*
X118220Y576910D03*
D13*
X256198Y330473D03*
X256198Y326773D03*
X311080Y625700D03*
X311080Y622000D03*
X284750Y625060D03*
X284750Y621360D03*
D12*
X298110Y620570D03*
X298110Y625670D03*
X410330Y492580D03*
X410330Y487480D03*
D14*
X380700Y587800D03*
X384400Y587800D03*
D11*
X385340Y579410D03*
X380240Y579410D03*
X255680Y530960D03*
X250580Y530960D03*
X275250Y476470D03*
X270150Y476470D03*
X317470Y446290D03*
X322570Y446290D03*
X374080Y459230D03*
X379180Y459230D03*
X353630Y489090D03*
X358730Y489090D03*
D15*
X72570Y329650D03*
X37570Y329650D03*
D16*
X369980Y619690D03*
X369980Y610190D03*
X369980Y600690D03*
X394980Y600690D03*
X394980Y610190D03*
X394980Y619690D03*
D15*
X151900Y307180D03*
X186900Y307180D03*
X38100Y365250D03*
X73100Y365250D03*
D11*
X125370Y503400D03*
X120270Y503400D03*
X125900Y402440D03*
X120800Y402440D03*
X125280Y394860D03*
X120180Y394860D03*
X124980Y387430D03*
X119880Y387430D03*
X125790Y511560D03*
X120690Y511560D03*
X125400Y441540D03*
X120300Y441540D03*
X125530Y433830D03*
X120430Y433830D03*
X125220Y425310D03*
X120120Y425310D03*
X125510Y417190D03*
X120410Y417190D03*
X125130Y409680D03*
X120030Y409680D03*
D17*
X293070Y597238D03*
X293070Y601238D03*
X297070Y597238D03*
X297070Y601238D03*
X301070Y597238D03*
X301070Y601238D03*
X305070Y597238D03*
X305070Y601238D03*
D18*
X284412Y334150D03*
X284412Y329150D03*
X284412Y324150D03*
X279412Y334150D03*
X279412Y329150D03*
X279412Y324150D03*
X274412Y334150D03*
X274412Y329150D03*
X274412Y324150D03*
D19*
X53990Y560520D03*
X58990Y560520D03*
X63990Y560520D03*
X68990Y560520D03*
D20*
X69240Y565770D03*
X69240Y570770D03*
D19*
X68990Y576020D03*
X63990Y576020D03*
X58990Y576020D03*
X53990Y576020D03*
D20*
X53740Y570770D03*
X53740Y565770D03*
D21*
X108230Y617080D03*
X112230Y617080D03*
X116230Y617080D03*
X108230Y613080D03*
X112230Y613080D03*
X116230Y613080D03*
X108230Y609080D03*
X112230Y609080D03*
X116230Y609080D03*
X108230Y605080D03*
X112230Y605080D03*
X116230Y605080D03*
X108230Y601080D03*
X112230Y601080D03*
X116230Y601080D03*
D22*
X102842Y519952D03*
X102842Y514952D03*
X102842Y509952D03*
X102842Y504952D03*
X102842Y499952D03*
X102842Y494952D03*
X102842Y489952D03*
X102842Y484952D03*
X102842Y479952D03*
X102842Y474952D03*
X102842Y469952D03*
X102842Y464952D03*
X102842Y459952D03*
X102842Y454952D03*
X102842Y449952D03*
X102842Y444952D03*
X102842Y439952D03*
X102842Y434952D03*
X102842Y429952D03*
X102842Y424952D03*
X102842Y419952D03*
X102842Y414952D03*
X102842Y409952D03*
X102842Y404952D03*
D23*
X76342Y527852D03*
X76342Y397052D03*
D24*
X414156Y404927D03*
X414156Y392227D03*
X401456Y404927D03*
X401456Y392227D03*
X388746Y404927D03*
X388746Y392227D03*
D25*
X222810Y577338D03*
X227810Y577338D03*
X232810Y577338D03*
X237810Y577338D03*
X217810Y577338D03*
X212810Y577338D03*
X207810Y577338D03*
X202810Y577338D03*
D26*
X252310Y577338D03*
X244310Y577338D03*
X196310Y577338D03*
X188310Y577338D03*
D27*
X263510Y624588D03*
X177110Y624588D03*
X263510Y583088D03*
X177110Y583088D03*
D28*
X391170Y492850D03*
X401170Y492850D03*
D29*
X306590Y537030D03*
X306590Y547030D03*
X316000Y542460D03*
X316000Y552460D03*
D30*
X157980Y357340D03*
X157980Y403060D03*
D31*
X143144Y616919D03*
X143144Y596359D03*
D32*
X211420Y359782D03*
X211420Y378782D03*
X190420Y369282D03*
D33*
X157210Y518130D03*
X157210Y505130D03*
X178210Y511630D03*
D34*
X95090Y327910D03*
X89590Y327910D03*
X301370Y369400D03*
X295870Y369400D03*
X262890Y370870D03*
X257390Y370870D03*
X142360Y506950D03*
X147860Y506950D03*
D35*
X232760Y561440D03*
X232760Y566940D03*
D34*
X86860Y603910D03*
X92360Y603910D03*
X141560Y519590D03*
X147060Y519590D03*
D35*
X202640Y566860D03*
X202640Y561360D03*
X37352Y572310D03*
X37352Y566810D03*
D34*
X86630Y609640D03*
X92130Y609640D03*
X314140Y326902D03*
X308640Y326902D03*
X203580Y327102D03*
X198080Y327102D03*
D35*
X322950Y603480D03*
X322950Y597980D03*
X220610Y366482D03*
X220610Y371982D03*
D34*
X137090Y501312D03*
X142590Y501312D03*
D36*
X126658Y490190D03*
X141898Y490190D03*
D37*
X350562Y329581D03*
X322558Y329581D03*
D38*
X355038Y316056D03*
X318082Y316056D03*
D39*
X336560Y331105D03*
D37*
X240172Y329541D03*
X212168Y329541D03*
D38*
X244648Y316016D03*
X207692Y316016D03*
D39*
X226170Y331065D03*
D37*
X131032Y329501D03*
X103028Y329501D03*
D38*
X135508Y315976D03*
X98552Y315976D03*
D39*
X117030Y331025D03*
D40*
X439238Y335795D03*
X431948Y571300D03*
X156300Y450738D03*
X370480Y335850D03*
X264638Y300262D03*
X299638Y300262D03*
X324093Y395347D03*
X282895Y369130D03*
X244180Y369040D03*
X385890Y305690D03*
X410950Y325670D03*
X323910Y421920D03*
X177570Y424374D03*
X38087Y616272D03*
D41*
X314370Y491378D03*
D17*
X286870Y491378D03*
X286870Y496378D03*
X286870Y501378D03*
X286870Y506378D03*
X286870Y511378D03*
X281870Y513878D03*
X281870Y503878D03*
X281870Y498878D03*
X281870Y493878D03*
X281870Y488878D03*
X286870Y486378D03*
X286870Y481378D03*
X281870Y483878D03*
X281870Y478878D03*
X281870Y473878D03*
X286870Y471378D03*
X286870Y466378D03*
X286870Y458878D03*
X291870Y458878D03*
X294370Y463878D03*
X296870Y458878D03*
X301870Y458878D03*
X306870Y458878D03*
X311870Y458878D03*
X316870Y458878D03*
X321870Y458878D03*
X326870Y458878D03*
X331870Y458878D03*
X336870Y458878D03*
X341870Y458878D03*
X334370Y463878D03*
X329370Y463878D03*
X324370Y463878D03*
X319370Y463878D03*
X314370Y463878D03*
X309370Y463878D03*
X304370Y463878D03*
X341870Y471378D03*
X346870Y468878D03*
X346870Y463878D03*
X346870Y473878D03*
X341870Y476378D03*
X346870Y478878D03*
X341870Y481378D03*
X341870Y486378D03*
X346870Y483878D03*
X346870Y488878D03*
X346870Y493878D03*
X346870Y498878D03*
X341870Y501378D03*
X341870Y506378D03*
X346870Y508878D03*
X341870Y511378D03*
X346870Y518878D03*
X281870Y518878D03*
X294370Y518878D03*
X299370Y518878D03*
X304370Y518878D03*
X306870Y523878D03*
X309370Y518878D03*
X311870Y523878D03*
X314370Y518878D03*
X316870Y523878D03*
X319370Y518878D03*
X321870Y523878D03*
X324370Y518878D03*
X326870Y523878D03*
X329370Y518878D03*
X331870Y523878D03*
X336870Y523878D03*
X341870Y523878D03*
X289370Y518878D03*
X301870Y523878D03*
D42*
X308370Y497378D03*
X296370Y497378D03*
X296370Y509378D03*
X308370Y509378D03*
X320370Y509378D03*
X332370Y509378D03*
X332370Y497378D03*
X320370Y497378D03*
X296370Y485378D03*
X308370Y485378D03*
X320370Y485378D03*
X332370Y485378D03*
X332370Y473378D03*
X320370Y473378D03*
X308370Y473378D03*
X296370Y473378D03*
D43*
X212913Y444487D02*
X205987Y444487D01*
X205987Y446513D01*
X212913Y446513D01*
X212913Y444487D01*
X212913Y445128D02*
X205987Y445128D01*
X205987Y445769D02*
X212913Y445769D01*
X212913Y446410D02*
X205987Y446410D01*
X205987Y439487D02*
X212913Y439487D01*
X205987Y439487D02*
X205987Y441513D01*
X212913Y441513D01*
X212913Y439487D01*
X212913Y440128D02*
X205987Y440128D01*
X205987Y440769D02*
X212913Y440769D01*
X212913Y441410D02*
X205987Y441410D01*
X205987Y434487D02*
X212913Y434487D01*
X205987Y434487D02*
X205987Y436513D01*
X212913Y436513D01*
X212913Y434487D01*
X212913Y435128D02*
X205987Y435128D01*
X205987Y435769D02*
X212913Y435769D01*
X212913Y436410D02*
X205987Y436410D01*
X205987Y429487D02*
X212913Y429487D01*
X205987Y429487D02*
X205987Y431513D01*
X212913Y431513D01*
X212913Y429487D01*
X212913Y430128D02*
X205987Y430128D01*
X205987Y430769D02*
X212913Y430769D01*
X212913Y431410D02*
X205987Y431410D01*
X225687Y429487D02*
X232613Y429487D01*
X225687Y429487D02*
X225687Y431513D01*
X232613Y431513D01*
X232613Y429487D01*
X232613Y430128D02*
X225687Y430128D01*
X225687Y430769D02*
X232613Y430769D01*
X232613Y431410D02*
X225687Y431410D01*
X225687Y434487D02*
X232613Y434487D01*
X225687Y434487D02*
X225687Y436513D01*
X232613Y436513D01*
X232613Y434487D01*
X232613Y435128D02*
X225687Y435128D01*
X225687Y435769D02*
X232613Y435769D01*
X232613Y436410D02*
X225687Y436410D01*
X225687Y439487D02*
X232613Y439487D01*
X225687Y439487D02*
X225687Y441513D01*
X232613Y441513D01*
X232613Y439487D01*
X232613Y440128D02*
X225687Y440128D01*
X225687Y440769D02*
X232613Y440769D01*
X232613Y441410D02*
X225687Y441410D01*
X225687Y444487D02*
X232613Y444487D01*
X225687Y444487D02*
X225687Y446513D01*
X232613Y446513D01*
X232613Y444487D01*
X232613Y445128D02*
X225687Y445128D01*
X225687Y445769D02*
X232613Y445769D01*
X232613Y446410D02*
X225687Y446410D01*
D44*
X219300Y438000D03*
D45*
X402960Y521360D03*
X417460Y521360D03*
X417460Y532860D03*
X402960Y532860D03*
D46*
G36*
X244244Y515089D02*
X244401Y505091D01*
X226404Y504809D01*
X226247Y514807D01*
X244244Y515089D01*
G37*
G36*
X243851Y540086D02*
X244008Y530088D01*
X226011Y529806D01*
X225854Y539804D01*
X243851Y540086D01*
G37*
D47*
X314325Y601345D02*
X320675Y601345D01*
X314325Y601345D02*
X305435Y601345D01*
X320675Y601345D02*
X322580Y603250D01*
X305435Y601345D02*
X305070Y601238D01*
X322580Y603250D02*
X322950Y603480D01*
X297815Y625475D02*
X285115Y625475D01*
X284750Y625060D01*
X297815Y625475D02*
X298110Y625670D01*
X298450Y626110D02*
X310515Y626110D01*
X311080Y625700D01*
X298450Y626110D02*
X298110Y625670D01*
X314325Y624205D02*
X314325Y601345D01*
X314325Y624205D02*
X313055Y625475D01*
X311150Y625475D01*
X311080Y625700D01*
X262890Y624840D02*
X177165Y624840D01*
X177110Y624588D01*
X262890Y624840D02*
X263510Y624588D01*
X263525Y624840D02*
X284480Y624840D01*
X284750Y625060D01*
X263525Y624840D02*
X263510Y624588D01*
X380365Y582295D02*
X380365Y579755D01*
X380365Y582295D02*
X380365Y587375D01*
X380700Y587800D01*
X380365Y579755D02*
X380240Y579410D01*
X380365Y588010D02*
X380365Y602615D01*
X373380Y609600D01*
X370205Y609600D01*
X380365Y588010D02*
X380700Y587800D01*
X370205Y609600D02*
X369980Y610190D01*
X399415Y544195D02*
X399415Y536575D01*
X402590Y533400D01*
X399415Y544195D02*
X399050Y544320D01*
X402590Y533400D02*
X402960Y532860D01*
X413385Y517525D02*
X413385Y509905D01*
X413385Y517525D02*
X417195Y521335D01*
X413385Y509905D02*
X413200Y509700D01*
X417195Y521335D02*
X417460Y521360D01*
X405130Y532765D02*
X403225Y532765D01*
X405130Y532765D02*
X416560Y521335D01*
X403225Y532765D02*
X402960Y532860D01*
X416560Y521335D02*
X417460Y521360D01*
X380365Y563245D02*
X380365Y579120D01*
X380365Y563245D02*
X398780Y544830D01*
X380365Y579120D02*
X380240Y579410D01*
X398780Y544830D02*
X399050Y544320D01*
X341630Y341630D02*
X339090Y341630D01*
X341630Y341630D02*
X350520Y332740D01*
X350520Y330200D01*
X339090Y341630D02*
X339010Y341720D01*
X350520Y330200D02*
X350562Y329581D01*
X350520Y333375D02*
X368300Y333375D01*
X370205Y335280D01*
X350520Y333375D02*
X350562Y329581D01*
X370205Y335280D02*
X370480Y335850D01*
X389255Y405130D02*
X401320Y405130D01*
X389255Y405130D02*
X388746Y404927D01*
X401320Y405130D02*
X401456Y404927D01*
X410845Y487680D02*
X419100Y487680D01*
X410845Y487680D02*
X410330Y487480D01*
X419100Y487680D02*
X419230Y487720D01*
X379730Y485775D02*
X379730Y459740D01*
X379730Y485775D02*
X381635Y487680D01*
X379730Y459740D02*
X379180Y459230D01*
X381635Y487680D02*
X381920Y488040D01*
X382270Y487680D02*
X396240Y487680D01*
X410210Y487680D01*
X410330Y487480D01*
X382270Y487680D02*
X381920Y488040D01*
X389255Y408305D02*
X389255Y405765D01*
X389255Y408305D02*
X379730Y417830D01*
X379730Y459105D01*
X389255Y405765D02*
X388746Y404927D01*
X379730Y459105D02*
X379180Y459230D01*
X370205Y382905D02*
X370205Y335915D01*
X370205Y382905D02*
X367665Y385445D01*
X367665Y391795D01*
X376555Y400685D01*
X384810Y400685D01*
X388620Y404495D01*
X370480Y335850D02*
X370205Y335915D01*
X388620Y404495D02*
X388746Y404927D01*
X412750Y508000D02*
X412750Y509270D01*
X412750Y508000D02*
X402590Y497840D01*
X397510Y497840D01*
X396240Y496570D01*
X396240Y487680D01*
X412750Y509270D02*
X413200Y509700D01*
X361315Y603885D02*
X323215Y603885D01*
X361315Y603885D02*
X367030Y609600D01*
X369570Y609600D01*
X323215Y603885D02*
X322950Y603480D01*
X369570Y609600D02*
X369980Y610190D01*
X140970Y520065D02*
X110490Y520065D01*
X102870Y527685D01*
X97155Y527685D02*
X76835Y527685D01*
X97155Y527685D02*
X102870Y527685D01*
X140970Y520065D02*
X141560Y519590D01*
X76835Y527685D02*
X76342Y527852D01*
X127000Y501650D02*
X136525Y501650D01*
X127000Y501650D02*
X125730Y502920D01*
X136525Y501650D02*
X137090Y501312D01*
X125730Y502920D02*
X125370Y503400D01*
X125730Y503555D02*
X125730Y511175D01*
X125790Y511560D01*
X125730Y503555D02*
X125370Y503400D01*
X127000Y501650D02*
X127000Y490220D01*
X126658Y490190D01*
X102235Y440055D02*
X99695Y440055D01*
X99378Y440373D02*
X97155Y442595D01*
X99378Y440373D02*
X99695Y440055D01*
X97155Y442595D02*
X97155Y481965D01*
X99378Y484188D02*
X99695Y484505D01*
X99378Y484188D02*
X97155Y481965D01*
X99695Y484505D02*
X102235Y484505D01*
X102235Y440055D02*
X102842Y439952D01*
X102235Y484505D02*
X102842Y484952D01*
X76835Y417830D02*
X76835Y397510D01*
X76835Y417830D02*
X99060Y440055D01*
X76835Y397510D02*
X76342Y397052D01*
X99060Y440055D02*
X99378Y440373D01*
X110490Y489585D02*
X126365Y489585D01*
X110490Y489585D02*
X106045Y485140D01*
X102870Y485140D01*
X126365Y489585D02*
X126658Y490190D01*
X102870Y485140D02*
X102842Y484952D01*
X97155Y486410D02*
X97155Y527685D01*
X97155Y486410D02*
X99060Y484505D01*
X99378Y484188D01*
X125730Y441325D02*
X125730Y434340D01*
X125730Y441325D02*
X125400Y441540D01*
X125730Y434340D02*
X125530Y433830D01*
X125095Y394335D02*
X125095Y387985D01*
X124980Y387430D01*
X125095Y394335D02*
X125280Y394860D01*
X125730Y402590D02*
X125730Y409575D01*
X125730Y402590D02*
X125900Y402440D01*
X125730Y409575D02*
X125130Y409680D01*
X125730Y410210D02*
X125730Y416560D01*
X125510Y417190D01*
X125730Y410210D02*
X125130Y409680D01*
X125095Y417195D02*
X125095Y424815D01*
X125220Y425310D01*
X125095Y417195D02*
X125510Y417190D01*
X125730Y401955D02*
X125730Y394970D01*
X125280Y394860D01*
X125730Y401955D02*
X125900Y402440D01*
X125730Y425450D02*
X125730Y433705D01*
X125530Y433830D01*
X125730Y425450D02*
X125220Y425310D01*
X122555Y340995D02*
X120015Y340995D01*
X122873Y340678D02*
X130810Y332740D01*
X122873Y340678D02*
X122555Y340995D01*
X130810Y332740D02*
X130810Y329565D01*
X120015Y340995D02*
X119630Y341530D01*
X130810Y329565D02*
X131032Y329501D01*
X151765Y313690D02*
X151765Y307340D01*
X150178Y315278D02*
X136525Y328930D01*
X150178Y315278D02*
X151765Y313690D01*
X136525Y328930D02*
X131445Y328930D01*
X151765Y307340D02*
X151900Y307180D01*
X131445Y328930D02*
X131032Y329501D01*
X124460Y342265D02*
X124460Y387350D01*
X124460Y342265D02*
X123190Y340995D01*
X124460Y387350D02*
X124980Y387430D01*
X123190Y340995D02*
X122873Y340678D01*
X269875Y459105D02*
X269875Y476250D01*
X269875Y459105D02*
X269910Y458590D01*
X269875Y476250D02*
X270150Y476470D01*
X298450Y337820D02*
X302260Y337820D01*
X294323Y341948D02*
X294005Y342265D01*
X294323Y341948D02*
X298450Y337820D01*
X294005Y342265D02*
X294005Y346075D01*
X307975Y360045D01*
X307975Y383540D01*
X294640Y396875D01*
X302260Y337820D02*
X302280Y337260D01*
X294640Y396875D02*
X294240Y397430D01*
X270510Y443230D02*
X270510Y458470D01*
X270510Y443230D02*
X278765Y434975D01*
X278765Y411480D01*
X292735Y397510D01*
X294005Y397510D01*
X270510Y458470D02*
X269910Y458590D01*
X294005Y397510D02*
X294240Y397430D01*
X279400Y323850D02*
X279400Y318770D01*
X279400Y334645D02*
X279400Y339090D01*
X279412Y324150D02*
X279400Y323850D01*
X279412Y334150D02*
X279400Y334645D01*
X255905Y330835D02*
X241935Y330835D01*
X240665Y329565D01*
X255905Y330835D02*
X256198Y330473D01*
X240665Y329565D02*
X240172Y329541D01*
X231140Y341630D02*
X228600Y341630D01*
X231140Y341630D02*
X241935Y330835D01*
X228600Y341630D02*
X228500Y341720D01*
X240172Y329541D02*
X241935Y330835D01*
X263525Y339090D02*
X279400Y339090D01*
X263525Y339090D02*
X255905Y331470D01*
X256198Y330473D01*
X193675Y403860D02*
X193675Y414655D01*
X208915Y429895D01*
X193675Y403860D02*
X193600Y403750D01*
X208915Y429895D02*
X209450Y430500D01*
X207010Y447675D02*
X198755Y447675D01*
X207010Y447675D02*
X208915Y445770D01*
X198755Y447675D02*
X198380Y448050D01*
X208915Y445770D02*
X209450Y445500D01*
X221615Y435610D02*
X228600Y435610D01*
X221615Y435610D02*
X219710Y437515D01*
X228600Y435610D02*
X229150Y435500D01*
X219710Y437515D02*
X219300Y438000D01*
X212725Y445135D02*
X209550Y445135D01*
X212725Y445135D02*
X219710Y438150D01*
X209550Y445135D02*
X209450Y445500D01*
X219300Y438000D02*
X219710Y438150D01*
X196215Y450215D02*
X156845Y450215D01*
X196215Y450215D02*
X198120Y448310D01*
X156845Y450215D02*
X156300Y450738D01*
X198120Y448310D02*
X198380Y448050D01*
X209550Y430530D02*
X213360Y430530D01*
X219710Y436880D01*
X209550Y430530D02*
X209450Y430500D01*
X219710Y436880D02*
X219300Y438000D01*
X227965Y343535D02*
X227965Y342265D01*
X227965Y343535D02*
X217805Y353695D01*
X205740Y353695D01*
X197168Y362268D02*
X196850Y362585D01*
X197168Y362268D02*
X205740Y353695D01*
X196850Y362585D02*
X196850Y400050D01*
X193675Y403225D01*
X227965Y342265D02*
X228500Y341720D01*
X193675Y403225D02*
X193600Y403750D01*
X291465Y339090D02*
X294005Y341630D01*
X294323Y341948D01*
X196850Y361950D02*
X150495Y315595D01*
X150178Y315278D01*
X196850Y361950D02*
X197168Y362268D01*
X126365Y480695D02*
X126365Y488950D01*
X126365Y480695D02*
X156210Y450850D01*
X126365Y488950D02*
X126658Y490190D01*
X156210Y450850D02*
X156300Y450738D01*
X322580Y454025D02*
X322580Y446405D01*
X322570Y446290D01*
X358140Y485775D02*
X358140Y488950D01*
X358140Y485775D02*
X351790Y479425D01*
X358140Y488950D02*
X358730Y489090D01*
X358775Y504190D02*
X358775Y511175D01*
X358775Y504190D02*
X358540Y503640D01*
X358775Y511175D02*
X359130Y511520D01*
X332740Y548005D02*
X325755Y548005D01*
X325380Y547670D01*
X332740Y548005D02*
X333120Y547820D01*
X333375Y536575D02*
X339090Y536575D01*
X333375Y536575D02*
X330835Y536575D01*
X330360Y536040D01*
X339090Y536575D02*
X339600Y536650D01*
X333375Y536575D02*
X333375Y547370D01*
X333120Y547820D01*
X359410Y513715D02*
X359410Y511810D01*
X359410Y513715D02*
X362585Y516890D01*
X362585Y523240D02*
X362585Y529590D01*
X362585Y523240D02*
X362585Y516890D01*
X362585Y529590D02*
X355600Y536575D01*
X339725Y536575D01*
X359410Y511810D02*
X359130Y511520D01*
X339725Y536575D02*
X339600Y536650D01*
X341630Y506730D02*
X335280Y506730D01*
X332740Y509270D01*
X341630Y506730D02*
X341870Y506378D01*
X332740Y509270D02*
X314370Y491378D01*
X299085Y512445D02*
X299085Y518795D01*
X299085Y512445D02*
X296545Y509905D01*
X299085Y518795D02*
X299370Y518878D01*
X296545Y509905D02*
X314370Y491378D01*
X296545Y485140D02*
X296545Y473710D01*
X296370Y473378D01*
X296545Y485140D02*
X314370Y491378D01*
X296545Y485775D02*
X296370Y485378D01*
X296545Y485775D02*
X314370Y491378D01*
X302260Y503555D02*
X296545Y497840D01*
X296370Y497378D01*
X302260Y503555D02*
X314370Y491378D01*
X307975Y473710D02*
X297180Y473710D01*
X307975Y473710D02*
X308370Y473378D01*
X297180Y473710D02*
X296370Y473378D01*
X308610Y485775D02*
X308610Y488950D01*
X308610Y485775D02*
X308370Y485378D01*
X308610Y488950D02*
X314370Y491378D01*
X308370Y497378D02*
X308610Y497840D01*
X314370Y491378D01*
X314960Y490855D02*
X320040Y485775D01*
X320370Y485378D01*
X314960Y490855D02*
X314370Y491378D01*
X320370Y497378D02*
X320675Y497840D01*
X314370Y491378D01*
X332740Y485775D02*
X332740Y497205D01*
X332740Y485775D02*
X332370Y485378D01*
X332740Y497205D02*
X314370Y491378D01*
X332370Y497378D02*
X332740Y497840D01*
X314370Y491378D01*
X296370Y509378D02*
X296545Y509905D01*
X314370Y491378D01*
X302895Y504190D02*
X307975Y509270D01*
X308370Y509378D01*
X302895Y504190D02*
X314370Y491378D01*
X326390Y503555D02*
X320675Y509270D01*
X320370Y509378D01*
X326390Y503555D02*
X314370Y491378D01*
X332370Y509378D02*
X332740Y509905D01*
X314370Y491378D01*
X346710Y523240D02*
X362585Y523240D01*
X346710Y523240D02*
X333375Y509905D01*
X332370Y509378D01*
X320675Y485140D02*
X320675Y473710D01*
X320370Y473378D01*
X320675Y485140D02*
X320370Y485378D01*
X257810Y577850D02*
X252730Y577850D01*
X257810Y577850D02*
X262890Y582930D01*
X252730Y577850D02*
X252310Y577338D01*
X262890Y582930D02*
X263510Y583088D01*
X250825Y538480D02*
X250825Y531495D01*
X250825Y538480D02*
X250563Y538839D01*
X250825Y531495D02*
X250580Y530960D01*
X202565Y561975D02*
X200025Y561975D01*
X188595Y573405D01*
X188595Y577215D01*
X202565Y561975D02*
X202640Y561360D01*
X188595Y577215D02*
X188310Y577338D01*
X203200Y561340D02*
X214630Y561340D01*
X232410Y561340D01*
X232760Y561440D01*
X203200Y561340D02*
X202640Y561360D01*
X214630Y561340D02*
X214630Y539750D01*
X214220Y539570D01*
X214630Y539115D02*
X214630Y504825D01*
X214331Y504522D01*
X214630Y539115D02*
X214220Y539570D01*
X250190Y539115D02*
X250190Y542925D01*
X235903Y557213D02*
X232410Y560705D01*
X235903Y557213D02*
X250190Y542925D01*
X250190Y539115D02*
X250563Y538839D01*
X232410Y560705D02*
X232760Y561440D01*
X252095Y573405D02*
X252095Y577215D01*
X252095Y573405D02*
X236220Y557530D01*
X252095Y577215D02*
X252310Y577338D01*
X236220Y557530D02*
X235903Y557213D01*
X111760Y608965D02*
X108585Y608965D01*
X108230Y609080D01*
X111760Y608965D02*
X112230Y609080D01*
X108585Y609600D02*
X108585Y612775D01*
X108230Y613080D01*
X108585Y609600D02*
X108230Y609080D01*
X112395Y608965D02*
X116205Y608965D01*
X116230Y609080D01*
X112395Y608965D02*
X112230Y609080D01*
X88900Y617220D02*
X80010Y617220D01*
X78740Y615950D01*
X88900Y617220D02*
X89090Y617240D01*
X78740Y615950D02*
X78300Y615890D01*
X59055Y596265D02*
X59055Y593725D01*
X59373Y596583D02*
X78105Y615315D01*
X59373Y596583D02*
X59055Y596265D01*
X59055Y593725D02*
X58930Y593490D01*
X78105Y615315D02*
X78300Y615890D01*
X93345Y613410D02*
X107950Y613410D01*
X93345Y613410D02*
X89535Y617220D01*
X107950Y613410D02*
X108230Y613080D01*
X89535Y617220D02*
X89090Y617240D01*
X63500Y575945D02*
X59055Y575945D01*
X58990Y576020D01*
X63500Y575945D02*
X63990Y576020D01*
X110490Y577215D02*
X118110Y577215D01*
X110490Y577215D02*
X109970Y576990D01*
X118110Y577215D02*
X118220Y576910D01*
X65405Y577850D02*
X64135Y576580D01*
X65405Y577850D02*
X65405Y578485D01*
X66675Y579755D01*
X96520Y579755D01*
X99060Y577215D01*
X109855Y577215D01*
X64135Y576580D02*
X63990Y576020D01*
X109855Y577215D02*
X109970Y576990D01*
X48260Y572135D02*
X37465Y572135D01*
X37352Y572310D01*
X156210Y577215D02*
X170815Y577215D01*
X156210Y577215D02*
X118745Y577215D01*
X170815Y577215D02*
X176530Y582930D01*
X118745Y577215D02*
X118220Y576910D01*
X176530Y582930D02*
X177110Y583088D01*
X150495Y608965D02*
X116840Y608965D01*
X150495Y608965D02*
X156210Y603250D01*
X156210Y577215D01*
X116840Y608965D02*
X116230Y609080D01*
X182245Y577850D02*
X187960Y577850D01*
X182245Y577850D02*
X177165Y582930D01*
X187960Y577850D02*
X188310Y577338D01*
X177165Y582930D02*
X177110Y583088D01*
X294005Y509905D02*
X295910Y509905D01*
X294005Y509905D02*
X285750Y518160D01*
X285750Y520065D01*
X262890Y542925D01*
X250190Y542925D01*
X295910Y509905D02*
X296370Y509378D01*
X76200Y528320D02*
X74930Y528320D01*
X49530Y553720D01*
X40640Y553720D01*
X31115Y563245D01*
X31115Y577850D01*
X51435Y598170D01*
X57785Y598170D01*
X59055Y596900D01*
X76200Y528320D02*
X76342Y527852D01*
X59373Y596583D02*
X59055Y596900D01*
X262890Y582295D02*
X380365Y582295D01*
X263510Y583088D02*
X262890Y582295D01*
D48*
X279400Y318770D03*
X279400Y339090D03*
X291465Y339090D03*
X322580Y454025D03*
X351790Y479425D03*
X48260Y572135D03*
D47*
X305435Y597535D02*
X322580Y597535D01*
X305435Y597535D02*
X305070Y597238D01*
X322580Y597535D02*
X322950Y597980D01*
X301625Y608330D02*
X301625Y612775D01*
X301625Y608330D02*
X301625Y601345D01*
X301625Y612775D02*
X310515Y621665D01*
X301625Y601345D02*
X301070Y601238D01*
X310515Y621665D02*
X311080Y622000D01*
X203200Y443865D02*
X198755Y443865D01*
X203200Y443865D02*
X206375Y440690D01*
X208915Y440690D01*
X198755Y443865D02*
X198380Y444350D01*
X208915Y440690D02*
X209450Y440500D01*
X209550Y440055D02*
X209550Y435610D01*
X209450Y435500D01*
X209550Y440055D02*
X209450Y440500D01*
X198120Y443865D02*
X196850Y443865D01*
X177800Y424815D01*
X198120Y443865D02*
X198380Y444350D01*
X177800Y424815D02*
X177570Y424374D01*
X250190Y608330D02*
X301625Y608330D01*
X117475Y480060D02*
X117475Y472440D01*
X165100Y424815D01*
X177165Y424815D01*
X177570Y424374D01*
D48*
X250190Y608330D03*
X117475Y480060D03*
D47*
X297180Y601345D02*
X297180Y602615D01*
X294005Y605790D01*
X254000Y605790D01*
X252095Y603885D01*
X248285Y603885D01*
X245745Y606425D01*
X245745Y610235D01*
X246063Y610553D02*
X248285Y612775D01*
X246063Y610553D02*
X245745Y610235D01*
X248285Y612775D02*
X290195Y612775D01*
X297815Y620395D01*
X297180Y601345D02*
X297070Y601238D01*
X297815Y620395D02*
X298110Y620570D01*
X111760Y617220D02*
X108585Y617220D01*
X108230Y617080D01*
X111760Y617220D02*
X112230Y617080D01*
X112395Y617220D02*
X116205Y617220D01*
X116230Y617080D01*
X112395Y617220D02*
X112230Y617080D01*
X88900Y621030D02*
X78740Y621030D01*
X88900Y621030D02*
X89090Y620940D01*
X78740Y621030D02*
X78300Y620990D01*
X94615Y617220D02*
X107950Y617220D01*
X94615Y617220D02*
X91440Y620395D01*
X89535Y620395D01*
X107950Y617220D02*
X108230Y617080D01*
X89535Y620395D02*
X89090Y620940D01*
X78105Y620395D02*
X41910Y620395D01*
X38100Y616585D01*
X78105Y620395D02*
X78300Y620990D01*
X38100Y616585D02*
X38087Y616272D01*
X168910Y610870D02*
X245745Y610870D01*
X168910Y610870D02*
X154940Y624840D01*
X124460Y624840D01*
X116840Y617220D01*
X245745Y610870D02*
X246063Y610553D01*
X116840Y617220D02*
X116230Y617080D01*
X116205Y613410D02*
X112395Y613410D01*
X112230Y613080D01*
X116205Y613410D02*
X116230Y613080D01*
X116840Y613410D02*
X139700Y613410D01*
X142875Y616585D01*
X116840Y613410D02*
X116230Y613080D01*
X142875Y616585D02*
X143144Y616919D01*
X107950Y605155D02*
X97155Y605155D01*
X92710Y609600D01*
X107950Y605155D02*
X108230Y605080D01*
X92710Y609600D02*
X92130Y609640D01*
X95250Y601345D02*
X107950Y601345D01*
X95250Y601345D02*
X92710Y603885D01*
X107950Y601345D02*
X108230Y601080D01*
X92710Y603885D02*
X92360Y603910D01*
X112395Y605155D02*
X116205Y605155D01*
X112395Y605155D02*
X112230Y605080D01*
X116205Y605155D02*
X116230Y605080D01*
X116840Y604520D02*
X135255Y604520D01*
X142875Y596900D01*
X116840Y604520D02*
X116230Y605080D01*
X142875Y596900D02*
X143144Y596359D01*
X211455Y488950D02*
X281305Y488950D01*
X211455Y488950D02*
X137160Y563245D01*
X72390Y563245D01*
X69850Y565785D01*
X281305Y488950D02*
X281870Y488878D01*
X69850Y565785D02*
X69240Y565770D01*
X53975Y560705D02*
X43180Y560705D01*
X37465Y566420D01*
X53975Y560705D02*
X53990Y560520D01*
X37465Y566420D02*
X37352Y566810D01*
X336550Y458470D02*
X336550Y434340D01*
X324485Y422275D01*
X336550Y458470D02*
X336870Y458878D01*
X324485Y422275D02*
X323910Y421920D01*
X347345Y463550D02*
X348615Y463550D01*
X356235Y455930D01*
X356235Y441325D01*
X408305Y398145D02*
X414020Y392430D01*
X347345Y463550D02*
X346870Y463878D01*
X414020Y392430D02*
X414156Y392227D01*
X411480Y336550D02*
X411480Y325755D01*
X411480Y336550D02*
X441960Y367030D01*
X441960Y379730D01*
X431165Y390525D01*
X415925Y390525D01*
X414655Y391795D01*
X411480Y325755D02*
X410950Y325670D01*
X414655Y391795D02*
X414156Y392227D01*
D48*
X356235Y441325D03*
X408305Y398145D03*
D47*
X360680Y455295D02*
X347345Y468630D01*
X360680Y455295D02*
X360680Y416560D01*
X358775Y414655D01*
X395605Y397510D02*
X401320Y391795D01*
X347345Y468630D02*
X346870Y468878D01*
X401456Y392227D02*
X401320Y391795D01*
X386080Y342900D02*
X386080Y306070D01*
X386080Y342900D02*
X410210Y367030D01*
X410210Y382270D01*
X401320Y391160D01*
X386080Y306070D02*
X385890Y305690D01*
X401320Y391160D02*
X401456Y392227D01*
D48*
X358775Y414655D03*
X395605Y397510D03*
D47*
X388620Y392430D02*
X386080Y392430D01*
X382270Y396240D01*
X337820Y396875D02*
X325755Y396875D01*
X324485Y395605D01*
X388620Y392430D02*
X388746Y392227D01*
X324485Y395605D02*
X324093Y395347D01*
D48*
X382270Y396240D03*
X337820Y396875D03*
D47*
X311785Y524510D02*
X310515Y524510D01*
X307975Y527050D01*
X298450Y527050D01*
X110490Y464185D02*
X106680Y460375D01*
X102870Y460375D01*
X311870Y523878D02*
X311785Y524510D01*
X102870Y460375D02*
X102842Y459952D01*
D48*
X298450Y527050D03*
X110490Y464185D03*
D47*
X341630Y464185D02*
X341630Y471170D01*
X331470Y454025D02*
X331470Y448945D01*
X315595Y433070D01*
X245745Y419735D02*
X210820Y384810D01*
X205740Y384810D01*
X204470Y383540D01*
X204470Y366395D01*
X210820Y360045D01*
X341630Y471170D02*
X341870Y471378D01*
X211420Y359782D02*
X210820Y360045D01*
X213995Y360045D02*
X220345Y366395D01*
X213995Y360045D02*
X211455Y360045D01*
X220345Y366395D02*
X220610Y366482D01*
X211455Y360045D02*
X211420Y359782D01*
D48*
X341630Y464185D03*
X331470Y454025D03*
X315595Y433070D03*
X245745Y419735D03*
D47*
X347345Y498475D02*
X353060Y498475D01*
X358140Y493395D01*
X360680Y493395D01*
X365760Y488315D01*
X365760Y401320D01*
X339725Y375285D01*
X239395Y419735D02*
X229235Y429895D01*
X346870Y498878D02*
X347345Y498475D01*
X229150Y430500D02*
X229235Y429895D01*
D48*
X339725Y375285D03*
X239395Y419735D03*
D47*
X291465Y455295D02*
X291465Y458470D01*
X291465Y455295D02*
X290195Y454025D01*
X400685Y461010D02*
X429895Y490220D01*
X450850Y490220D01*
X452120Y491490D01*
X452120Y524510D01*
X407670Y568960D01*
X407670Y609600D01*
X398145Y619125D01*
X395605Y619125D01*
X291870Y458878D02*
X291465Y458470D01*
X395605Y619125D02*
X394980Y619690D01*
D48*
X290195Y454025D03*
X400685Y461010D03*
D47*
X296545Y458470D02*
X296545Y454025D01*
X292100Y449580D01*
X286385Y449580D01*
X388620Y593725D02*
X394970Y600075D01*
X296870Y458878D02*
X296545Y458470D01*
X394970Y600075D02*
X394980Y600690D01*
D48*
X286385Y449580D03*
X388620Y593725D03*
D47*
X306705Y458470D02*
X306705Y453390D01*
X287655Y434340D01*
X269240Y434340D02*
X236855Y466725D01*
X182880Y466725D01*
X179705Y469900D01*
X113030Y469900D02*
X102870Y469900D01*
X306705Y458470D02*
X306870Y458878D01*
X102870Y469900D02*
X102842Y469952D01*
D48*
X287655Y434340D03*
X269240Y434340D03*
X179705Y469900D03*
X113030Y469900D03*
D47*
X311785Y458470D02*
X311785Y452120D01*
X298450Y438785D01*
X258445Y438785D02*
X252730Y438785D01*
X227330Y464185D01*
X179070Y464185D01*
X167640Y475615D01*
X110490Y475615D02*
X106680Y479425D01*
X102870Y479425D01*
X311785Y458470D02*
X311870Y458878D01*
X102870Y479425D02*
X102842Y479952D01*
D48*
X298450Y438785D03*
X258445Y438785D03*
X167640Y475615D03*
X110490Y475615D03*
D47*
X278765Y479425D02*
X281305Y479425D01*
X278765Y479425D02*
X277495Y480695D01*
X267970Y480695D01*
X266065Y478790D01*
X266065Y443865D01*
X276225Y433705D01*
X276225Y400685D01*
X305435Y371475D01*
X305435Y361315D01*
X284480Y340360D01*
X284480Y334645D01*
X281870Y478878D02*
X281305Y479425D01*
X284480Y334645D02*
X284412Y334150D01*
X327025Y524510D02*
X327025Y527685D01*
X330200Y530860D01*
X327025Y524510D02*
X326870Y523878D01*
X330200Y530860D02*
X330360Y530940D01*
X347345Y488950D02*
X353060Y488950D01*
X347345Y488950D02*
X346870Y488878D01*
X353060Y488950D02*
X353630Y489090D01*
X353695Y511810D02*
X342265Y511810D01*
X341870Y511378D01*
X353695Y511810D02*
X354030Y511520D01*
X348615Y508635D02*
X347345Y508635D01*
X348615Y508635D02*
X353060Y504190D01*
X347345Y508635D02*
X346870Y508878D01*
X353060Y504190D02*
X353440Y503640D01*
X332740Y553085D02*
X325755Y553085D01*
X325380Y552770D01*
X332740Y553085D02*
X333120Y552920D01*
X294005Y528955D02*
X294005Y519430D01*
X294005Y528955D02*
X297180Y532130D01*
X314325Y532130D01*
X321310Y539115D01*
X321310Y547370D01*
X319723Y548958D02*
X316230Y552450D01*
X319723Y548958D02*
X321310Y547370D01*
X294005Y519430D02*
X294370Y518878D01*
X316000Y552460D02*
X316230Y552450D01*
X323215Y552450D02*
X325120Y552450D01*
X323215Y552450D02*
X320040Y549275D01*
X325120Y552450D02*
X325380Y552770D01*
X320040Y549275D02*
X319723Y548958D01*
X353695Y503555D02*
X353695Y501650D01*
X356235Y499110D01*
X360680Y499110D01*
X365125Y503555D01*
X365125Y530860D01*
X343535Y552450D01*
X333375Y552450D01*
X353440Y503640D02*
X353695Y503555D01*
X333375Y552450D02*
X333120Y552920D01*
X294005Y463550D02*
X288290Y463550D01*
X287655Y462915D01*
X279400Y462915D01*
X275590Y459105D01*
X294005Y463550D02*
X294370Y463878D01*
X275590Y459105D02*
X275010Y458590D01*
X273050Y513715D02*
X281305Y513715D01*
X273050Y513715D02*
X255905Y530860D01*
X281305Y513715D02*
X281870Y513878D01*
X255905Y530860D02*
X255680Y530960D01*
X283845Y511175D02*
X286385Y511175D01*
X283845Y511175D02*
X283210Y510540D01*
X259080Y510540D01*
X234950Y534670D01*
X286385Y511175D02*
X286870Y511378D01*
X234950Y534670D02*
X234931Y534946D01*
X230505Y539115D02*
X219710Y539115D01*
X230505Y539115D02*
X234315Y535305D01*
X219710Y539115D02*
X219320Y539570D01*
X234315Y535305D02*
X234931Y534946D01*
X283210Y506730D02*
X286385Y506730D01*
X283210Y506730D02*
X281940Y508000D01*
X237490Y508000D01*
X235585Y509905D01*
X286385Y506730D02*
X286870Y506378D01*
X235585Y509905D02*
X235324Y509949D01*
X229870Y504825D02*
X219710Y504825D01*
X229870Y504825D02*
X234950Y509905D01*
X219710Y504825D02*
X219429Y504638D01*
X234950Y509905D02*
X235324Y509949D01*
X310515Y542925D02*
X315595Y542925D01*
X310515Y542925D02*
X306705Y546735D01*
X315595Y542925D02*
X316000Y542460D01*
X306705Y546735D02*
X306590Y547030D01*
X289560Y528320D02*
X289560Y519430D01*
X289560Y528320D02*
X297815Y536575D01*
X306070Y536575D01*
X289560Y519430D02*
X289370Y518878D01*
X306070Y536575D02*
X306590Y537030D01*
X342265Y501015D02*
X342265Y496570D01*
X365125Y496570D02*
X378460Y496570D01*
X381635Y493395D01*
X342265Y501015D02*
X341870Y501378D01*
X381635Y493395D02*
X381920Y493140D01*
X382270Y492760D02*
X391160Y492760D01*
X391170Y492850D01*
X382270Y492760D02*
X381920Y493140D01*
D48*
X342265Y496570D03*
X365125Y496570D03*
D47*
X410845Y492760D02*
X419100Y492760D01*
X410845Y492760D02*
X410330Y492580D01*
X419100Y492760D02*
X419230Y492820D01*
X410210Y492760D02*
X401320Y492760D01*
X401170Y492850D01*
X410210Y492760D02*
X410330Y492580D01*
X419735Y493395D02*
X436245Y493395D01*
X440690Y497840D01*
X419735Y493395D02*
X419230Y492820D01*
X440690Y497840D02*
X440838Y497960D01*
X358140Y518795D02*
X347345Y518795D01*
X394335Y518795D02*
X400050Y518795D01*
X402590Y521335D01*
X347345Y518795D02*
X346870Y518878D01*
X402590Y521335D02*
X402960Y521360D01*
X407670Y511810D02*
X407670Y509905D01*
X407670Y511810D02*
X400685Y518795D01*
X407670Y509905D02*
X408100Y509700D01*
X400685Y518795D02*
X402960Y521360D01*
D48*
X358140Y518795D03*
X394335Y518795D03*
D47*
X344170Y524510D02*
X342265Y524510D01*
X344170Y524510D02*
X346710Y527050D01*
X357505Y527050D01*
X358140Y527685D01*
X399415Y550545D02*
X403860Y546100D01*
X403860Y544830D01*
X342265Y524510D02*
X341870Y523878D01*
X403860Y544830D02*
X404150Y544320D01*
X415290Y533400D02*
X417195Y533400D01*
X415290Y533400D02*
X404495Y544195D01*
X417195Y533400D02*
X417460Y532860D01*
X404495Y544195D02*
X404150Y544320D01*
D48*
X358140Y527685D03*
X399415Y550545D03*
D49*
X414655Y405130D02*
X420370Y405130D01*
X422910Y407670D01*
X430530Y407670D01*
X432118Y406083D02*
X445770Y392430D01*
X432118Y406083D02*
X430530Y407670D01*
X445770Y392430D02*
X445770Y342265D01*
X439420Y335915D01*
X414156Y404927D02*
X414655Y405130D01*
X439420Y335915D02*
X439238Y335795D01*
X337185Y524510D02*
X337185Y529590D01*
X339090Y531495D01*
X337185Y524510D02*
X336870Y523878D01*
X339090Y531495D02*
X339600Y531550D01*
X316865Y458470D02*
X316865Y446405D01*
X316865Y458470D02*
X316870Y458878D01*
X316865Y446405D02*
X317470Y446290D01*
X341630Y458470D02*
X341630Y421005D01*
X329565Y408940D01*
X318770Y408940D01*
X310515Y417195D01*
X310515Y439420D01*
X316230Y445135D01*
X341630Y458470D02*
X341870Y458878D01*
X317470Y446290D02*
X316230Y445135D01*
X309245Y356235D02*
X309245Y344170D01*
X309245Y327025D01*
X309245Y356235D02*
X311785Y358775D01*
X311785Y391160D01*
X311150Y391795D01*
X311150Y400685D01*
X318135Y407670D01*
X309245Y327025D02*
X308640Y326902D01*
X318135Y407670D02*
X318770Y408940D01*
X374015Y459740D02*
X374015Y465455D01*
X346710Y459105D02*
X342900Y459105D01*
X374015Y459740D02*
X374080Y459230D01*
X342900Y459105D02*
X341630Y458470D01*
X340995Y531495D02*
X345440Y531495D01*
X340995Y531495D02*
X339600Y531550D01*
X412115Y570865D02*
X431800Y570865D01*
X431948Y571300D01*
X443230Y417195D02*
X433070Y407035D01*
X443230Y417195D02*
X443230Y429895D01*
X433070Y407035D02*
X432118Y406083D01*
X116205Y600710D02*
X112395Y600710D01*
X112230Y601080D01*
X116205Y600710D02*
X116230Y601080D01*
X116840Y599440D02*
X116840Y583565D01*
X118110Y582295D01*
X116840Y599440D02*
X116205Y600710D01*
X118110Y582295D02*
X118220Y582010D01*
X116205Y582295D02*
X110490Y582295D01*
X109970Y582090D01*
X116205Y582295D02*
X118220Y582010D01*
X53975Y576580D02*
X51435Y576580D01*
X49530Y578485D01*
X41910Y578485D01*
X50800Y587375D02*
X50800Y590550D01*
X53340Y593090D01*
X53975Y576580D02*
X53990Y576020D01*
X53340Y593090D02*
X53830Y593490D01*
X63500Y560070D02*
X63500Y557530D01*
X60960Y554990D01*
X63500Y560070D02*
X63990Y560520D01*
X69215Y575945D02*
X71755Y575945D01*
X74930Y572770D01*
X74930Y567690D01*
X69215Y575945D02*
X68990Y576020D01*
X99060Y582295D02*
X108585Y582295D01*
X99060Y582295D02*
X94615Y586740D01*
X65405Y586740D01*
X108585Y582295D02*
X109970Y582090D01*
X281940Y473710D02*
X284480Y473710D01*
X286385Y471805D01*
X281940Y473710D02*
X281870Y473878D01*
X286385Y471805D02*
X286870Y471378D01*
X276860Y476250D02*
X275590Y476250D01*
X276860Y476250D02*
X278765Y474345D01*
X280670Y474345D01*
X275590Y476250D02*
X275250Y476470D01*
X280670Y474345D02*
X281940Y473710D01*
X275590Y519430D02*
X274955Y519430D01*
X275590Y519430D02*
X281305Y519430D01*
X274955Y519430D02*
X255905Y538480D01*
X281305Y519430D02*
X281870Y518878D01*
X255905Y538480D02*
X255663Y538768D01*
X278130Y473075D02*
X275590Y470535D01*
X278130Y473075D02*
X278765Y474345D01*
X275590Y518160D02*
X275590Y519430D01*
X270510Y326390D02*
X260985Y326390D01*
X256540Y326390D01*
X270510Y326390D02*
X273050Y328930D01*
X274320Y328930D01*
X256540Y326390D02*
X256198Y326773D01*
X274320Y328930D02*
X274412Y329150D01*
X198120Y327660D02*
X198120Y351155D01*
X215265Y368300D02*
X218440Y371475D01*
X220345Y371475D01*
X198120Y327660D02*
X198080Y327102D01*
X220345Y371475D02*
X220610Y371982D01*
X90170Y330200D02*
X90170Y328295D01*
X90170Y330200D02*
X93980Y334010D01*
X90170Y328295D02*
X89590Y327910D01*
X300990Y367030D02*
X300990Y368935D01*
X300990Y367030D02*
X288290Y354330D01*
X240030Y354330D01*
X225108Y369253D02*
X223520Y370840D01*
X225108Y369253D02*
X240030Y354330D01*
X223520Y370840D02*
X221615Y370840D01*
X300990Y368935D02*
X301370Y369400D01*
X221615Y370840D02*
X220610Y371982D01*
X262890Y371475D02*
X262890Y372745D01*
X253365Y382270D01*
X238125Y382270D01*
X226060Y370205D01*
X262890Y370870D02*
X262890Y371475D01*
X226060Y370205D02*
X225108Y369253D01*
X217805Y372110D02*
X211455Y378460D01*
X211420Y378782D01*
X217805Y372110D02*
X218440Y371475D01*
X260985Y327660D02*
X260985Y326390D01*
X298450Y344170D02*
X307975Y344170D01*
X309245Y344170D01*
D48*
X374015Y465455D03*
X346710Y459105D03*
X345440Y531495D03*
X412115Y570865D03*
X443230Y429895D03*
X41910Y578485D03*
X50800Y587375D03*
X60960Y554990D03*
X74930Y567690D03*
X65405Y586740D03*
X275590Y470535D03*
X275590Y518160D03*
X198120Y351155D03*
X215265Y368300D03*
X93980Y334010D03*
X260985Y327660D03*
X298450Y344170D03*
D47*
X274320Y334645D02*
X265430Y334645D01*
X273050Y359410D02*
X282575Y368935D01*
X274320Y334645D02*
X274412Y334150D01*
X282575Y368935D02*
X282895Y369130D01*
X283210Y369570D02*
X295275Y369570D01*
X295870Y369400D01*
X283210Y369570D02*
X282895Y369130D01*
X241300Y440055D02*
X234950Y440055D01*
X229235Y440055D01*
X241300Y440055D02*
X273685Y407670D01*
X273685Y379730D01*
X283210Y370205D01*
X229235Y440055D02*
X229150Y440500D01*
X283210Y370205D02*
X282895Y369130D01*
X296545Y596265D02*
X296545Y596900D01*
X296545Y596265D02*
X294005Y593725D01*
X273050Y593725D01*
X265430Y601345D01*
X220345Y601345D01*
X213360Y608330D01*
X157480Y608330D01*
X85090Y608330D02*
X81280Y608330D01*
X85090Y608330D02*
X86360Y609600D01*
X296545Y596900D02*
X297070Y597238D01*
X86630Y609640D02*
X86360Y609600D01*
X53340Y565785D02*
X48260Y565785D01*
X53340Y565785D02*
X53740Y565770D01*
X234950Y452755D02*
X234950Y440055D01*
X234950Y452755D02*
X226060Y461645D01*
X175260Y461645D01*
X163195Y473710D01*
X163195Y498475D01*
D48*
X265430Y334645D03*
X273050Y359410D03*
X157480Y608330D03*
X81280Y608330D03*
X48260Y565785D03*
X163195Y498475D03*
D47*
X58420Y558800D02*
X58420Y560070D01*
X56198Y556578D02*
X55880Y556260D01*
X56198Y556578D02*
X58420Y558800D01*
X55880Y556260D02*
X41910Y556260D01*
X33655Y564515D01*
X33655Y576580D01*
X40005Y582930D01*
X55245Y582930D01*
X76200Y603885D01*
X86360Y603885D01*
X58990Y560520D02*
X58420Y560070D01*
X86360Y603885D02*
X86860Y603910D01*
X245745Y370840D02*
X257175Y370840D01*
X245745Y370840D02*
X244475Y369570D01*
X257175Y370840D02*
X257390Y370870D01*
X244475Y369570D02*
X244180Y369040D01*
X270510Y493395D02*
X281305Y493395D01*
X229235Y452120D02*
X229235Y445770D01*
X281305Y493395D02*
X281870Y493878D01*
X229235Y445770D02*
X229150Y445500D01*
X301625Y589280D02*
X301625Y596900D01*
X301070Y597238D01*
X257175Y370205D02*
X260350Y367030D01*
X264795Y367030D01*
X266700Y368935D01*
X266700Y408305D01*
X239395Y435610D01*
X257390Y370870D02*
X257175Y370205D01*
X56515Y553085D02*
X56515Y556260D01*
X56515Y553085D02*
X77470Y532130D01*
X87630Y532130D01*
X151765Y487045D02*
X151765Y481330D01*
X180340Y452755D01*
X228600Y452755D01*
X229235Y452120D01*
X56515Y556260D02*
X56198Y556578D01*
D48*
X270510Y493395D03*
X229235Y452120D03*
X301625Y589280D03*
X239395Y435610D03*
X87630Y532130D03*
X151765Y487045D03*
D49*
X281305Y453390D02*
X286385Y458470D01*
X281305Y453390D02*
X281305Y437515D01*
X282575Y436245D01*
X282575Y414020D01*
X294005Y402590D01*
X286385Y458470D02*
X286870Y458878D01*
X294005Y402590D02*
X294240Y402530D01*
X384810Y579755D02*
X384810Y587375D01*
X384400Y587800D01*
X384810Y579755D02*
X385340Y579410D01*
X386080Y588010D02*
X395605Y588010D01*
X403860Y596265D01*
X403860Y605155D01*
X399415Y609600D01*
X395605Y609600D01*
X386080Y588010D02*
X384810Y587375D01*
X395605Y609600D02*
X394980Y610190D01*
X292735Y601345D02*
X288290Y601345D01*
X288290Y617220D02*
X284480Y621030D01*
X292735Y601345D02*
X293070Y601238D01*
X284480Y621030D02*
X284750Y621360D01*
X196850Y582930D02*
X196850Y577850D01*
X196850Y582930D02*
X214630Y600710D01*
X196850Y577850D02*
X196310Y577338D01*
X243840Y577850D02*
X243840Y582930D01*
X241935Y584835D01*
X241935Y591185D01*
X243840Y577850D02*
X244310Y577338D01*
X379730Y610870D02*
X393700Y610870D01*
X394980Y610190D01*
X280035Y454025D02*
X279400Y454025D01*
X255905Y454025D02*
X254635Y454025D01*
X223520Y485140D01*
X208915Y485140D01*
X201930Y492125D01*
X280035Y454025D02*
X281305Y453390D01*
D48*
X288290Y601345D03*
X288290Y617220D03*
X214630Y600710D03*
X241935Y591185D03*
X379730Y610870D03*
X279400Y454025D03*
X255905Y454025D03*
X201930Y492125D03*
D47*
X288290Y333375D02*
X302260Y333375D01*
X288290Y333375D02*
X284480Y329565D01*
X302260Y333375D02*
X302280Y333560D01*
X284480Y329565D02*
X284412Y329150D01*
X284480Y323850D02*
X284480Y314960D01*
X299085Y300355D01*
X284480Y323850D02*
X284412Y324150D01*
X299085Y300355D02*
X299638Y300262D01*
X274320Y309880D02*
X274320Y323850D01*
X274320Y309880D02*
X264795Y300355D01*
X274320Y323850D02*
X274412Y324150D01*
X264795Y300355D02*
X264638Y300262D01*
D49*
X120015Y441960D02*
X109855Y441960D01*
X107315Y444500D01*
X102870Y444500D01*
X120015Y441960D02*
X120300Y441540D01*
X102870Y444500D02*
X102842Y444952D01*
X102870Y446405D02*
X102870Y449580D01*
X102842Y449952D01*
X102870Y446405D02*
X102842Y444952D01*
X158115Y403225D02*
X187960Y403225D01*
X188500Y403750D01*
X158115Y403225D02*
X157980Y403060D01*
X189865Y399415D02*
X189865Y369570D01*
X189865Y399415D02*
X187325Y401955D01*
X189865Y369570D02*
X190420Y369282D01*
X187325Y401955D02*
X188500Y403750D01*
X120650Y443230D02*
X120650Y444500D01*
X123190Y447040D01*
X127635Y447040D01*
X157480Y417195D01*
X157480Y404495D01*
X120300Y441540D02*
X120650Y443230D01*
X157480Y404495D02*
X157980Y403060D01*
D47*
X86360Y352425D02*
X86360Y349885D01*
X86043Y352743D02*
X73660Y365125D01*
X86043Y352743D02*
X86360Y352425D01*
X86360Y349885D02*
X86490Y349720D01*
X73660Y365125D02*
X73100Y365250D01*
X178435Y486410D02*
X178435Y511175D01*
X178435Y486410D02*
X193675Y471170D01*
X166370Y365760D02*
X158115Y357505D01*
X178435Y511175D02*
X178210Y511630D01*
X158115Y357505D02*
X157980Y357340D01*
X120015Y353060D02*
X86360Y353060D01*
X86043Y352743D01*
D48*
X193675Y471170D03*
X166370Y365760D03*
X120015Y353060D03*
D47*
X81598Y339408D02*
X72390Y330200D01*
X81598Y339408D02*
X86360Y344170D01*
X86490Y344620D01*
X72390Y330200D02*
X72570Y329650D01*
X161290Y307340D02*
X186690Y307340D01*
X186900Y307180D01*
X81915Y339090D02*
X81598Y339408D01*
D48*
X161290Y307340D03*
X81915Y339090D03*
D47*
X120015Y394970D02*
X108585Y406400D01*
X108585Y407035D01*
X106045Y409575D01*
X102870Y409575D01*
X120015Y394970D02*
X120180Y394860D01*
X102870Y409575D02*
X102842Y409952D01*
X38100Y345440D02*
X38100Y330200D01*
X38100Y345440D02*
X97155Y404495D01*
X97155Y407035D01*
X99695Y409575D01*
X102235Y409575D01*
X38100Y330200D02*
X37570Y329650D01*
X102235Y409575D02*
X102842Y409952D01*
X115570Y410210D02*
X120015Y410210D01*
X115570Y410210D02*
X106045Y419735D01*
X102870Y419735D01*
X120015Y410210D02*
X120030Y409680D01*
X102870Y419735D02*
X102842Y419952D01*
X54610Y365760D02*
X38100Y365760D01*
X54610Y365760D02*
X94615Y405765D01*
X94615Y414655D01*
X99695Y419735D01*
X102235Y419735D01*
X38100Y365760D02*
X38100Y365250D01*
X102235Y419735D02*
X102842Y419952D01*
X147955Y506730D02*
X155575Y506730D01*
X156845Y505460D01*
X147955Y506730D02*
X147860Y506950D01*
X156845Y505460D02*
X157210Y505130D01*
X113030Y510540D02*
X102870Y510540D01*
X113030Y510540D02*
X118110Y515620D01*
X139700Y515620D01*
X147955Y507365D01*
X102842Y509952D02*
X102870Y510540D01*
X147860Y506950D02*
X147955Y507365D01*
X142875Y506730D02*
X142875Y501650D01*
X142590Y501312D01*
X142875Y506730D02*
X142360Y506950D01*
X142240Y501015D02*
X142240Y490220D01*
X142240Y501015D02*
X142590Y501312D01*
X142240Y490220D02*
X141898Y490190D01*
X147320Y519430D02*
X155575Y519430D01*
X156845Y518160D01*
X147320Y519430D02*
X147060Y519590D01*
X156845Y518160D02*
X157210Y518130D01*
X111125Y514985D02*
X102870Y514985D01*
X120650Y524510D02*
X142875Y524510D01*
X147320Y520065D01*
X102870Y514985D02*
X102842Y514952D01*
X147060Y519590D02*
X147320Y520065D01*
D48*
X111125Y514985D03*
X120650Y524510D03*
D47*
X120650Y511175D02*
X117475Y511175D01*
X111760Y505460D01*
X102870Y505460D01*
X120650Y511175D02*
X120690Y511560D01*
X102870Y505460D02*
X102842Y504952D01*
X108585Y502920D02*
X120015Y502920D01*
X108585Y502920D02*
X106045Y500380D01*
X102870Y500380D01*
X120015Y502920D02*
X120270Y503400D01*
X102870Y500380D02*
X102842Y499952D01*
X102870Y434340D02*
X120015Y434340D01*
X120430Y433830D01*
X102870Y434340D02*
X102842Y434952D01*
X110490Y425450D02*
X120015Y425450D01*
X110490Y425450D02*
X106045Y429895D01*
X102870Y429895D01*
X120015Y425450D02*
X120120Y425310D01*
X102870Y429895D02*
X102842Y429952D01*
X113665Y417195D02*
X120015Y417195D01*
X113665Y417195D02*
X106045Y424815D01*
X102870Y424815D01*
X120015Y417195D02*
X120410Y417190D01*
X102870Y424815D02*
X102842Y424952D01*
X118110Y402590D02*
X120650Y402590D01*
X118110Y402590D02*
X106045Y414655D01*
X102870Y414655D01*
X120650Y402590D02*
X120800Y402440D01*
X102870Y414655D02*
X102842Y414952D01*
X102870Y404495D02*
X119380Y387985D01*
X119880Y387430D01*
X102870Y404495D02*
X102842Y404952D01*
X218440Y571500D02*
X218440Y577215D01*
X218440Y571500D02*
X220345Y569595D01*
X225425Y569595D01*
X227330Y571500D01*
X227330Y577215D01*
X218440Y577215D02*
X217810Y577338D01*
X227330Y577215D02*
X227810Y577338D01*
X318770Y619125D02*
X369570Y619125D01*
X254000Y594360D02*
X245110Y594360D01*
X243840Y595630D01*
X240030Y595630D01*
X227965Y583565D01*
X227965Y577850D01*
X369570Y619125D02*
X369980Y619690D01*
X227965Y577850D02*
X227810Y577338D01*
D48*
X318770Y619125D03*
X254000Y594360D03*
D47*
X213360Y582930D02*
X213360Y577850D01*
X213360Y582930D02*
X215900Y585470D01*
X219710Y585470D01*
X221933Y583248D02*
X222250Y582930D01*
X221933Y583248D02*
X219710Y585470D01*
X222250Y582930D02*
X222250Y577850D01*
X213360Y577850D02*
X212810Y577338D01*
X222250Y577850D02*
X222810Y577338D01*
X330835Y600075D02*
X369570Y600075D01*
X330835Y600075D02*
X315595Y584835D01*
X278130Y584835D01*
X264160Y598805D01*
X237490Y598805D01*
X222250Y583565D01*
X369570Y600075D02*
X369980Y600690D01*
X222250Y583565D02*
X221933Y583248D01*
X233045Y577215D02*
X233045Y567055D01*
X232760Y566940D01*
X233045Y577215D02*
X232810Y577338D01*
X202565Y577215D02*
X202565Y567055D01*
X202640Y566860D01*
X202565Y577215D02*
X202810Y577338D01*
X314325Y327025D02*
X319405Y327025D01*
X321945Y329565D01*
X314325Y327025D02*
X314140Y326902D01*
X321945Y329565D02*
X322558Y329581D01*
X363220Y457835D02*
X347345Y473710D01*
X363220Y457835D02*
X363220Y405130D01*
X335280Y377190D01*
X335280Y342265D01*
X347345Y473710D02*
X346870Y473878D01*
X335280Y342265D02*
X335310Y341720D01*
X322580Y332740D02*
X322580Y330200D01*
X322580Y332740D02*
X332105Y342265D01*
X334645Y342265D01*
X322580Y330200D02*
X322558Y329581D01*
X334645Y342265D02*
X335310Y341720D01*
X102235Y328295D02*
X95250Y328295D01*
X102235Y328295D02*
X102870Y328930D01*
X95250Y328295D02*
X95090Y327910D01*
X102870Y328930D02*
X103028Y329501D01*
X301625Y455295D02*
X301625Y458470D01*
X301625Y455295D02*
X289560Y443230D01*
X113665Y339090D02*
X107315Y339090D01*
X113665Y339090D02*
X115570Y340995D01*
X301625Y458470D02*
X301870Y458878D01*
X115930Y341530D02*
X115570Y340995D01*
X103505Y335280D02*
X103505Y329565D01*
X103505Y335280D02*
X107315Y339090D01*
X103505Y329565D02*
X103028Y329501D01*
D48*
X289560Y443230D03*
X107315Y339090D03*
D47*
X299720Y463550D02*
X304165Y463550D01*
X370205Y467995D02*
X370205Y470535D01*
X370205Y467995D02*
X369570Y467360D01*
X369570Y454660D01*
X370205Y454025D01*
X219710Y321945D02*
X212725Y328930D01*
X304165Y463550D02*
X304370Y463878D01*
X212168Y329541D02*
X212725Y328930D01*
X220980Y341630D02*
X224790Y341630D01*
X220980Y341630D02*
X212725Y333375D01*
X212725Y329565D01*
X224790Y341630D02*
X224800Y341720D01*
X212725Y329565D02*
X212168Y329541D01*
X210820Y327660D02*
X203835Y327660D01*
X210820Y327660D02*
X212090Y328930D01*
X203835Y327660D02*
X203580Y327102D01*
X212090Y328930D02*
X212168Y329541D01*
D48*
X299720Y463550D03*
X370205Y470535D03*
X370205Y454025D03*
X219710Y321945D03*
M02*
