G04 EAGLE Gerber RS-274X export*
G75*
%MOMM*%
%FSLAX34Y34*%
%LPD*%
%INBottom Copper*%
%IPPOS*%
%AMOC8*
5,1,8,0,0,1.08239X$1,22.5*%
G01*
G04 Define Apertures*
%ADD10C,1.170000*%
%ADD11R,1.066800X1.066800*%
%ADD12C,0.808000*%
%ADD13C,0.127000*%
%ADD14C,0.452400*%
%ADD15C,0.300000*%
G36*
X244008Y433459D02*
X243713Y433389D01*
X243414Y433440D01*
X243159Y433603D01*
X242987Y433854D01*
X242927Y434151D01*
X242927Y437073D01*
X241523Y438477D01*
X241360Y438718D01*
X241300Y439016D01*
X241300Y443384D01*
X232990Y451694D01*
X232827Y451936D01*
X232767Y452233D01*
X232767Y452642D01*
X232823Y452928D01*
X232990Y453181D01*
X257589Y477780D01*
X257819Y477938D01*
X258115Y478003D01*
X258413Y477947D01*
X258666Y477780D01*
X272261Y464185D01*
X278284Y464185D01*
X281940Y467841D01*
X281940Y500545D01*
X281996Y500831D01*
X282163Y501084D01*
X304800Y523721D01*
X304800Y529744D01*
X303753Y530791D01*
X303590Y531033D01*
X303530Y531330D01*
X303530Y585874D01*
X303586Y586160D01*
X303753Y586413D01*
X305157Y587817D01*
X305157Y590743D01*
X303088Y592812D01*
X300162Y592812D01*
X298093Y590743D01*
X298093Y587817D01*
X299497Y586413D01*
X299660Y586172D01*
X299720Y585874D01*
X299720Y531344D01*
X299669Y531069D01*
X299505Y530814D01*
X299255Y530642D01*
X298958Y530582D01*
X296987Y530582D01*
X295583Y529178D01*
X295342Y529015D01*
X295044Y528955D01*
X242416Y528955D01*
X206763Y493302D01*
X206543Y493149D01*
X206248Y493079D01*
X205949Y493130D01*
X205694Y493293D01*
X205557Y493493D01*
X204923Y494127D01*
X204760Y494368D01*
X204700Y494666D01*
X204700Y585912D01*
X204756Y586198D01*
X204923Y586451D01*
X215364Y596892D01*
X215662Y597076D01*
X215851Y597139D01*
X216092Y597178D01*
X216093Y597178D01*
X216632Y597717D01*
X216873Y597880D01*
X217171Y597940D01*
X238403Y597940D01*
X238678Y597889D01*
X238933Y597725D01*
X239105Y597475D01*
X239165Y597178D01*
X239165Y593726D01*
X239109Y593440D01*
X238942Y593187D01*
X238403Y592648D01*
X238403Y589722D01*
X240472Y587653D01*
X242948Y587653D01*
X243223Y587602D01*
X243478Y587438D01*
X243650Y587188D01*
X243669Y587093D01*
X244547Y584973D01*
X246095Y583425D01*
X248116Y582588D01*
X250304Y582588D01*
X252326Y583425D01*
X253819Y584919D01*
X254039Y585072D01*
X254334Y585142D01*
X254633Y585091D01*
X254888Y584928D01*
X255060Y584677D01*
X255120Y584380D01*
X255120Y583850D01*
X271900Y583850D01*
X271900Y584757D01*
X271412Y585936D01*
X271354Y586227D01*
X271354Y588569D01*
X271335Y588897D01*
X271207Y590038D01*
X271175Y590247D01*
X271130Y590442D01*
X271074Y590620D01*
X270691Y591714D01*
X270613Y591912D01*
X270526Y592091D01*
X270432Y592253D01*
X269841Y593193D01*
X269725Y593574D01*
X269776Y593873D01*
X269939Y594128D01*
X270189Y594300D01*
X270487Y594360D01*
X290349Y594360D01*
X312986Y616997D01*
X313228Y617160D01*
X313525Y617220D01*
X315364Y617220D01*
X315650Y617164D01*
X315903Y616997D01*
X317307Y615593D01*
X320233Y615593D01*
X322347Y617707D01*
X322349Y617719D01*
X322508Y617977D01*
X322756Y618153D01*
X323052Y618218D01*
X323350Y618162D01*
X323603Y617995D01*
X333498Y608100D01*
X377189Y608100D01*
X377475Y608044D01*
X377728Y607877D01*
X378267Y607338D01*
X381193Y607338D01*
X383262Y609407D01*
X383262Y612333D01*
X381193Y614402D01*
X378267Y614402D01*
X377728Y613863D01*
X377487Y613700D01*
X377189Y613640D01*
X336108Y613640D01*
X335822Y613696D01*
X335569Y613863D01*
X322457Y626975D01*
X294763Y626975D01*
X288763Y620975D01*
X288521Y620812D01*
X288224Y620752D01*
X286827Y620752D01*
X284758Y618683D01*
X284758Y615757D01*
X285297Y615218D01*
X285460Y614977D01*
X285520Y614679D01*
X285520Y604242D01*
X285469Y603967D01*
X285305Y603712D01*
X285055Y603540D01*
X284758Y603480D01*
X252175Y603480D01*
X251911Y603527D01*
X251653Y603686D01*
X251478Y603934D01*
X251413Y604230D01*
X251468Y604528D01*
X251636Y604781D01*
X253722Y606867D01*
X253722Y609793D01*
X251653Y611862D01*
X248727Y611862D01*
X247323Y610458D01*
X247082Y610295D01*
X246784Y610235D01*
X215111Y610235D01*
X196615Y591739D01*
X196384Y591581D01*
X196088Y591516D01*
X195790Y591571D01*
X195537Y591739D01*
X194526Y592751D01*
X192504Y593588D01*
X190316Y593588D01*
X188295Y592751D01*
X187960Y592416D01*
X187730Y592258D01*
X187434Y592193D01*
X187136Y592249D01*
X186883Y592416D01*
X169064Y610235D01*
X160886Y610235D01*
X160600Y610291D01*
X160347Y610458D01*
X158943Y611862D01*
X156017Y611862D01*
X154613Y610458D01*
X154372Y610295D01*
X154074Y610235D01*
X84686Y610235D01*
X84400Y610291D01*
X84147Y610458D01*
X82743Y611862D01*
X79817Y611862D01*
X77748Y609793D01*
X77748Y606867D01*
X79152Y605463D01*
X79315Y605222D01*
X79375Y604924D01*
X79375Y597370D01*
X79319Y597084D01*
X79152Y596831D01*
X70238Y587917D01*
X70018Y587764D01*
X69723Y587694D01*
X69424Y587745D01*
X69169Y587908D01*
X69032Y588108D01*
X66868Y590272D01*
X63942Y590272D01*
X63403Y589733D01*
X63162Y589570D01*
X62864Y589510D01*
X53976Y589510D01*
X53690Y589566D01*
X53437Y589733D01*
X52263Y590907D01*
X49337Y590907D01*
X47268Y588838D01*
X47268Y588076D01*
X47212Y587790D01*
X47045Y587537D01*
X41748Y582240D01*
X41506Y582077D01*
X41209Y582017D01*
X40447Y582017D01*
X38378Y579948D01*
X38378Y578551D01*
X38322Y578265D01*
X38155Y578012D01*
X37235Y577092D01*
X37235Y565273D01*
X50288Y552220D01*
X58419Y552220D01*
X58705Y552164D01*
X58958Y551997D01*
X59535Y551420D01*
X59608Y551407D01*
X59863Y551243D01*
X60035Y550993D01*
X60095Y550696D01*
X60095Y540508D01*
X65040Y535563D01*
X65193Y535343D01*
X65263Y535048D01*
X65212Y534749D01*
X65048Y534494D01*
X64798Y534322D01*
X64501Y534262D01*
X-76Y534262D01*
X-351Y534313D01*
X-606Y534477D01*
X-778Y534727D01*
X-838Y535024D01*
X-838Y567500D01*
X-833Y567585D01*
X833Y582378D01*
X871Y582544D01*
X5788Y596595D01*
X5862Y596748D01*
X13782Y609353D01*
X13888Y609486D01*
X24414Y620012D01*
X24548Y620118D01*
X37152Y628038D01*
X37305Y628112D01*
X51356Y633029D01*
X51522Y633067D01*
X66315Y634733D01*
X66400Y634738D01*
X170402Y634738D01*
X170580Y634717D01*
X170855Y634589D01*
X171058Y634363D01*
X171158Y634077D01*
X171137Y633774D01*
X171000Y633504D01*
X170910Y633389D01*
X170805Y633234D01*
X170189Y632254D01*
X170083Y632070D01*
X169997Y631889D01*
X169929Y631716D01*
X169547Y630622D01*
X169484Y630418D01*
X169441Y630224D01*
X169413Y630039D01*
X169285Y628897D01*
X169266Y628569D01*
X169266Y627727D01*
X169208Y627436D01*
X168720Y626257D01*
X168720Y625350D01*
X185500Y625350D01*
X185500Y626257D01*
X185012Y627436D01*
X184954Y627727D01*
X184954Y628569D01*
X184935Y628897D01*
X184807Y630038D01*
X184775Y630247D01*
X184730Y630442D01*
X184674Y630620D01*
X184291Y631714D01*
X184213Y631912D01*
X184126Y632091D01*
X184032Y632253D01*
X183416Y633233D01*
X183296Y633409D01*
X183224Y633498D01*
X183126Y633657D01*
X183056Y633952D01*
X183107Y634251D01*
X183270Y634506D01*
X183520Y634678D01*
X183817Y634738D01*
X256802Y634738D01*
X256980Y634717D01*
X257255Y634589D01*
X257458Y634363D01*
X257558Y634077D01*
X257537Y633774D01*
X257400Y633504D01*
X257310Y633389D01*
X257205Y633234D01*
X256589Y632254D01*
X256483Y632070D01*
X256397Y631889D01*
X256329Y631716D01*
X255947Y630622D01*
X255884Y630418D01*
X255841Y630224D01*
X255813Y630039D01*
X255685Y628897D01*
X255666Y628569D01*
X255666Y627727D01*
X255608Y627436D01*
X255120Y626257D01*
X255120Y625350D01*
X271900Y625350D01*
X271900Y626257D01*
X271412Y627436D01*
X271354Y627727D01*
X271354Y628569D01*
X271335Y628897D01*
X271207Y630038D01*
X271175Y630247D01*
X271130Y630442D01*
X271074Y630620D01*
X270691Y631714D01*
X270613Y631912D01*
X270526Y632091D01*
X270432Y632253D01*
X269816Y633233D01*
X269696Y633409D01*
X269624Y633498D01*
X269526Y633657D01*
X269456Y633952D01*
X269507Y634251D01*
X269670Y634506D01*
X269920Y634678D01*
X270217Y634738D01*
X386293Y634738D01*
X386404Y634730D01*
X401679Y632473D01*
X401844Y632430D01*
X416248Y626825D01*
X416399Y626746D01*
X429194Y618077D01*
X429324Y617966D01*
X439869Y606667D01*
X439971Y606530D01*
X447738Y593168D01*
X447807Y593012D01*
X452405Y578257D01*
X452438Y578089D01*
X453636Y562707D01*
X453638Y562648D01*
X453638Y562561D01*
X453638Y562534D01*
X453596Y561320D01*
X453638Y561111D01*
X453638Y483524D01*
X453587Y483249D01*
X453423Y482994D01*
X453173Y482822D01*
X452876Y482762D01*
X423856Y482762D01*
X422238Y481144D01*
X422238Y456644D01*
X422191Y456381D01*
X422032Y456123D01*
X421784Y455947D01*
X421488Y455882D01*
X421190Y455938D01*
X420937Y456105D01*
X408182Y468860D01*
X378817Y468860D01*
X378542Y468911D01*
X378287Y469075D01*
X378115Y469325D01*
X378055Y469622D01*
X378055Y495177D01*
X359270Y513962D01*
X359117Y514182D01*
X359047Y514477D01*
X359098Y514776D01*
X359262Y515031D01*
X359512Y515203D01*
X359551Y515211D01*
X361007Y516667D01*
X361248Y516830D01*
X361546Y516890D01*
X390929Y516890D01*
X391215Y516834D01*
X391468Y516667D01*
X392872Y515263D01*
X395798Y515263D01*
X397867Y517332D01*
X397867Y520258D01*
X395798Y522327D01*
X392872Y522327D01*
X391468Y520923D01*
X391227Y520760D01*
X390929Y520700D01*
X361546Y520700D01*
X361260Y520756D01*
X361007Y520923D01*
X359603Y522327D01*
X356677Y522327D01*
X354563Y520213D01*
X354561Y520201D01*
X354402Y519943D01*
X354154Y519767D01*
X353858Y519702D01*
X353560Y519758D01*
X353307Y519925D01*
X348433Y524799D01*
X348270Y525041D01*
X348210Y525338D01*
X348210Y528954D01*
X348266Y529240D01*
X348433Y529493D01*
X348972Y530032D01*
X348972Y530033D01*
X349011Y530274D01*
X349074Y530463D01*
X349258Y530761D01*
X386369Y567872D01*
X386611Y568035D01*
X386908Y568095D01*
X409574Y568095D01*
X409860Y568039D01*
X410113Y567872D01*
X410652Y567333D01*
X413578Y567333D01*
X415647Y569402D01*
X415647Y572328D01*
X413578Y574397D01*
X410652Y574397D01*
X410113Y573858D01*
X409872Y573695D01*
X409574Y573635D01*
X384298Y573635D01*
X345913Y535250D01*
X345671Y535087D01*
X345374Y535027D01*
X343977Y535027D01*
X341908Y532958D01*
X341908Y530032D01*
X342447Y529493D01*
X342610Y529252D01*
X342670Y528954D01*
X342670Y522728D01*
X363995Y501403D01*
X364148Y501183D01*
X364218Y500888D01*
X364167Y500589D01*
X364003Y500334D01*
X363753Y500162D01*
X363714Y500154D01*
X362258Y498698D01*
X362017Y498535D01*
X361719Y498475D01*
X345671Y498475D01*
X345385Y498531D01*
X345132Y498698D01*
X343728Y500102D01*
X340802Y500102D01*
X338733Y498033D01*
X338733Y495107D01*
X340802Y493038D01*
X343728Y493038D01*
X345132Y494442D01*
X345373Y494605D01*
X345671Y494665D01*
X361719Y494665D01*
X362005Y494609D01*
X362258Y494442D01*
X363662Y493038D01*
X366588Y493038D01*
X368702Y495152D01*
X368704Y495164D01*
X368863Y495422D01*
X369111Y495598D01*
X369407Y495663D01*
X369705Y495607D01*
X369958Y495440D01*
X372292Y493106D01*
X372455Y492864D01*
X372515Y492567D01*
X372515Y474829D01*
X372464Y474554D01*
X372300Y474299D01*
X372050Y474127D01*
X371753Y474067D01*
X369683Y474067D01*
X369397Y474123D01*
X369144Y474290D01*
X357659Y485775D01*
X338936Y485775D01*
X334714Y481553D01*
X334473Y481390D01*
X334175Y481330D01*
X316992Y481330D01*
X316717Y481381D01*
X316462Y481545D01*
X316290Y481795D01*
X316230Y482092D01*
X316230Y518325D01*
X316286Y518611D01*
X316453Y518864D01*
X387559Y589970D01*
X387801Y590133D01*
X388098Y590193D01*
X390083Y590193D01*
X392152Y592262D01*
X392152Y595188D01*
X390083Y597257D01*
X387157Y597257D01*
X385088Y595188D01*
X385088Y593203D01*
X385032Y592917D01*
X384865Y592664D01*
X312420Y520219D01*
X312420Y483705D01*
X312364Y483419D01*
X312197Y483166D01*
X310584Y481553D01*
X310343Y481390D01*
X310045Y481330D01*
X293216Y481330D01*
X283845Y471959D01*
X283845Y456415D01*
X283798Y456151D01*
X283639Y455893D01*
X283391Y455718D01*
X283095Y455653D01*
X282797Y455708D01*
X282544Y455876D01*
X280863Y457557D01*
X277937Y457557D01*
X277398Y457018D01*
X277157Y456855D01*
X276859Y456795D01*
X258446Y456795D01*
X258160Y456851D01*
X257907Y457018D01*
X257368Y457557D01*
X254442Y457557D01*
X252373Y455488D01*
X252373Y452562D01*
X254442Y450493D01*
X257368Y450493D01*
X257907Y451032D01*
X258148Y451195D01*
X258446Y451255D01*
X276859Y451255D01*
X277145Y451199D01*
X277398Y451032D01*
X277937Y450493D01*
X280863Y450493D01*
X281552Y451182D01*
X281772Y451335D01*
X282067Y451405D01*
X282366Y451354D01*
X282621Y451191D01*
X282793Y450941D01*
X282853Y450643D01*
X282853Y448117D01*
X284534Y446436D01*
X284687Y446216D01*
X284757Y445921D01*
X284706Y445622D01*
X284543Y445367D01*
X284293Y445195D01*
X283995Y445135D01*
X255751Y445135D01*
X244228Y433612D01*
X244008Y433459D01*
G37*
%LPC*%
G36*
X264272Y623826D02*
X264272Y612814D01*
X264960Y612891D01*
X265169Y612923D01*
X265364Y612968D01*
X265542Y613024D01*
X266636Y613407D01*
X266834Y613485D01*
X267013Y613572D01*
X267175Y613666D01*
X268155Y614282D01*
X268331Y614402D01*
X268487Y614528D01*
X268622Y614654D01*
X269442Y615474D01*
X269586Y615630D01*
X269710Y615787D01*
X269815Y615942D01*
X270431Y616922D01*
X270537Y617106D01*
X270623Y617287D01*
X270691Y617460D01*
X271073Y618554D01*
X271136Y618758D01*
X271179Y618952D01*
X271207Y619137D01*
X271335Y620279D01*
X271354Y620607D01*
X271354Y621449D01*
X271412Y621740D01*
X271900Y622919D01*
X271900Y623826D01*
X264272Y623826D01*
G37*
G36*
X175659Y612891D02*
X176348Y612814D01*
X176348Y623826D01*
X168720Y623826D01*
X168720Y622919D01*
X169208Y621740D01*
X169266Y621449D01*
X169266Y620607D01*
X169285Y620279D01*
X169413Y619138D01*
X169445Y618929D01*
X169490Y618734D01*
X169546Y618556D01*
X169929Y617462D01*
X170007Y617264D01*
X170094Y617085D01*
X170188Y616923D01*
X170804Y615943D01*
X170924Y615767D01*
X171050Y615611D01*
X171176Y615476D01*
X171996Y614656D01*
X172152Y614512D01*
X172309Y614388D01*
X172464Y614283D01*
X173444Y613667D01*
X173628Y613561D01*
X173809Y613475D01*
X173982Y613407D01*
X175076Y613025D01*
X175280Y612962D01*
X175474Y612919D01*
X175659Y612891D01*
G37*
G36*
X177872Y623826D02*
X177872Y612814D01*
X178560Y612891D01*
X178769Y612923D01*
X178964Y612968D01*
X179142Y613024D01*
X180236Y613407D01*
X180434Y613485D01*
X180613Y613572D01*
X180775Y613666D01*
X181755Y614282D01*
X181931Y614402D01*
X182087Y614528D01*
X182222Y614654D01*
X183042Y615474D01*
X183186Y615630D01*
X183310Y615787D01*
X183415Y615942D01*
X184031Y616922D01*
X184137Y617106D01*
X184223Y617287D01*
X184291Y617460D01*
X184673Y618554D01*
X184736Y618758D01*
X184779Y618952D01*
X184807Y619137D01*
X184935Y620279D01*
X184954Y620607D01*
X184954Y621449D01*
X185012Y621740D01*
X185500Y622919D01*
X185500Y623826D01*
X177872Y623826D01*
G37*
G36*
X262059Y612891D02*
X262748Y612814D01*
X262748Y623826D01*
X255120Y623826D01*
X255120Y622919D01*
X255608Y621740D01*
X255666Y621449D01*
X255666Y620607D01*
X255685Y620279D01*
X255813Y619138D01*
X255845Y618929D01*
X255890Y618734D01*
X255946Y618556D01*
X256329Y617462D01*
X256407Y617264D01*
X256494Y617085D01*
X256588Y616923D01*
X257204Y615943D01*
X257324Y615767D01*
X257450Y615611D01*
X257576Y615476D01*
X258396Y614656D01*
X258552Y614512D01*
X258709Y614388D01*
X258864Y614283D01*
X259844Y613667D01*
X260028Y613561D01*
X260209Y613475D01*
X260382Y613407D01*
X261476Y613025D01*
X261680Y612962D01*
X261874Y612919D01*
X262059Y612891D01*
G37*
G36*
X264272Y582326D02*
X264272Y569814D01*
X264960Y569891D01*
X265169Y569923D01*
X265364Y569968D01*
X265542Y570024D01*
X266636Y570407D01*
X266834Y570485D01*
X267013Y570572D01*
X267175Y570666D01*
X268155Y571282D01*
X268331Y571402D01*
X268487Y571528D01*
X268622Y571654D01*
X269442Y572474D01*
X269586Y572630D01*
X269710Y572787D01*
X269815Y572942D01*
X270431Y573922D01*
X270537Y574106D01*
X270623Y574287D01*
X270691Y574460D01*
X271073Y575554D01*
X271136Y575758D01*
X271179Y575952D01*
X271207Y576137D01*
X271335Y577279D01*
X271354Y577607D01*
X271354Y579949D01*
X271412Y580240D01*
X271900Y581419D01*
X271900Y582326D01*
X264272Y582326D01*
G37*
G36*
X262059Y569891D02*
X262748Y569814D01*
X262748Y582326D01*
X255120Y582326D01*
X255120Y581419D01*
X255608Y580240D01*
X255666Y579949D01*
X255666Y577607D01*
X255685Y577279D01*
X255813Y576138D01*
X255845Y575929D01*
X255890Y575734D01*
X255946Y575556D01*
X256329Y574462D01*
X256407Y574264D01*
X256494Y574085D01*
X256588Y573923D01*
X257204Y572943D01*
X257324Y572767D01*
X257450Y572611D01*
X257576Y572476D01*
X258396Y571656D01*
X258552Y571512D01*
X258709Y571388D01*
X258864Y571283D01*
X259844Y570667D01*
X260028Y570561D01*
X260209Y570475D01*
X260382Y570407D01*
X261476Y570025D01*
X261680Y569962D01*
X261874Y569919D01*
X262059Y569891D01*
G37*
G36*
X356677Y524153D02*
X359603Y524153D01*
X361007Y525557D01*
X361248Y525720D01*
X361546Y525780D01*
X377344Y525780D01*
X398354Y546790D01*
X398596Y546953D01*
X398893Y547013D01*
X400878Y547013D01*
X402947Y549082D01*
X402947Y552008D01*
X400878Y554077D01*
X397952Y554077D01*
X395883Y552008D01*
X395883Y550023D01*
X395827Y549737D01*
X395660Y549484D01*
X375989Y529813D01*
X375748Y529650D01*
X375450Y529590D01*
X361546Y529590D01*
X361260Y529646D01*
X361007Y529813D01*
X359603Y531217D01*
X356677Y531217D01*
X354608Y529148D01*
X354608Y526222D01*
X356677Y524153D01*
G37*
%LPD*%
G36*
X107991Y478178D02*
X107696Y478108D01*
X107397Y478159D01*
X107142Y478322D01*
X106970Y478572D01*
X106910Y478870D01*
X106910Y501527D01*
X65858Y542579D01*
X65695Y542821D01*
X65635Y543118D01*
X65635Y552651D01*
X65763Y553073D01*
X65806Y553138D01*
X65650Y553920D01*
X65635Y554070D01*
X65635Y554162D01*
X65691Y554448D01*
X65858Y554701D01*
X75092Y563935D01*
X75334Y564098D01*
X75631Y564158D01*
X76393Y564158D01*
X78462Y566227D01*
X78462Y569153D01*
X76393Y571222D01*
X73467Y571222D01*
X71398Y569153D01*
X71398Y568391D01*
X71342Y568105D01*
X71175Y567852D01*
X62068Y558745D01*
X61826Y558582D01*
X61529Y558522D01*
X59497Y558522D01*
X58958Y557983D01*
X58717Y557820D01*
X58419Y557760D01*
X52898Y557760D01*
X52612Y557816D01*
X52359Y557983D01*
X49390Y560952D01*
X49237Y561172D01*
X49167Y561467D01*
X49218Y561766D01*
X49382Y562021D01*
X49632Y562193D01*
X49671Y562201D01*
X51792Y564322D01*
X51792Y567248D01*
X49723Y569317D01*
X47738Y569317D01*
X47452Y569373D01*
X47199Y569540D01*
X45943Y570796D01*
X45780Y571038D01*
X45720Y571335D01*
X45720Y572935D01*
X45776Y573221D01*
X45943Y573474D01*
X52636Y580167D01*
X52878Y580330D01*
X53175Y580390D01*
X68099Y580390D01*
X83185Y595476D01*
X83185Y604924D01*
X83241Y605210D01*
X83408Y605463D01*
X84147Y606202D01*
X84388Y606365D01*
X84686Y606425D01*
X154074Y606425D01*
X154360Y606369D01*
X154613Y606202D01*
X156017Y604798D01*
X158943Y604798D01*
X160347Y606202D01*
X160588Y606365D01*
X160886Y606425D01*
X167170Y606425D01*
X167456Y606369D01*
X167709Y606202D01*
X176308Y597603D01*
X176421Y597459D01*
X176523Y597173D01*
X176506Y596871D01*
X176373Y596598D01*
X176143Y596400D01*
X175855Y596307D01*
X175660Y596285D01*
X175451Y596253D01*
X175256Y596208D01*
X175078Y596152D01*
X173984Y595769D01*
X173786Y595691D01*
X173607Y595604D01*
X173445Y595510D01*
X172465Y594894D01*
X172289Y594774D01*
X172133Y594649D01*
X171998Y594522D01*
X171178Y593702D01*
X171034Y593546D01*
X170910Y593389D01*
X170805Y593234D01*
X170189Y592254D01*
X170083Y592070D01*
X169997Y591889D01*
X169929Y591716D01*
X169547Y590622D01*
X169484Y590418D01*
X169441Y590224D01*
X169413Y590039D01*
X169285Y588897D01*
X169266Y588569D01*
X169266Y586227D01*
X169208Y585936D01*
X168720Y584757D01*
X168720Y583850D01*
X177872Y583850D01*
X177872Y582326D01*
X168720Y582326D01*
X168720Y581419D01*
X169208Y580240D01*
X169266Y579949D01*
X169266Y577607D01*
X169285Y577279D01*
X169413Y576138D01*
X169445Y575929D01*
X169490Y575734D01*
X169546Y575556D01*
X169929Y574462D01*
X170007Y574264D01*
X170094Y574085D01*
X170188Y573923D01*
X170804Y572943D01*
X170924Y572767D01*
X171050Y572611D01*
X171176Y572476D01*
X171996Y571656D01*
X172152Y571512D01*
X172309Y571388D01*
X172464Y571283D01*
X173444Y570667D01*
X173628Y570561D01*
X173809Y570475D01*
X173982Y570407D01*
X175076Y570025D01*
X175280Y569962D01*
X175474Y569919D01*
X175596Y569901D01*
X175748Y569862D01*
X176006Y569702D01*
X176182Y569455D01*
X176247Y569159D01*
X176191Y568861D01*
X176024Y568608D01*
X161290Y553874D01*
X161290Y501881D01*
X161234Y501595D01*
X161067Y501342D01*
X159663Y499938D01*
X159663Y497012D01*
X161838Y494837D01*
X162001Y494737D01*
X162176Y494489D01*
X162241Y494193D01*
X162186Y493895D01*
X162018Y493642D01*
X156598Y488222D01*
X156378Y488069D01*
X156083Y487999D01*
X155784Y488050D01*
X155529Y488213D01*
X155392Y488413D01*
X153228Y490577D01*
X150302Y490577D01*
X148898Y489173D01*
X148657Y489010D01*
X148359Y488950D01*
X133820Y488950D01*
X133534Y489006D01*
X133281Y489173D01*
X112302Y510152D01*
X112149Y510372D01*
X112079Y510667D01*
X112130Y510966D01*
X112293Y511221D01*
X112493Y511358D01*
X114657Y513522D01*
X114657Y515507D01*
X114713Y515793D01*
X114880Y516046D01*
X119589Y520755D01*
X119831Y520918D01*
X120128Y520978D01*
X122113Y520978D01*
X124182Y523047D01*
X124182Y525973D01*
X122113Y528042D01*
X119187Y528042D01*
X117118Y525973D01*
X117118Y523988D01*
X117062Y523702D01*
X116895Y523449D01*
X112186Y518740D01*
X111945Y518577D01*
X111647Y518517D01*
X109662Y518517D01*
X107487Y516342D01*
X107387Y516179D01*
X107139Y516004D01*
X106843Y515939D01*
X106545Y515994D01*
X106292Y516162D01*
X91385Y531069D01*
X91222Y531311D01*
X91162Y531608D01*
X91162Y533593D01*
X89093Y535662D01*
X86167Y535662D01*
X84098Y533593D01*
X84098Y530667D01*
X86167Y528598D01*
X88152Y528598D01*
X88438Y528542D01*
X88691Y528375D01*
X131926Y485140D01*
X148359Y485140D01*
X148645Y485084D01*
X148898Y484917D01*
X150408Y483407D01*
X150571Y483307D01*
X150746Y483059D01*
X150811Y482763D01*
X150756Y482465D01*
X150588Y482212D01*
X150564Y482188D01*
X150323Y482025D01*
X150025Y481965D01*
X120881Y481965D01*
X120595Y482021D01*
X120342Y482188D01*
X118938Y483592D01*
X116012Y483592D01*
X113943Y481523D01*
X113943Y478997D01*
X113896Y478733D01*
X113737Y478475D01*
X113489Y478300D01*
X113193Y478235D01*
X112895Y478290D01*
X112642Y478458D01*
X111953Y479147D01*
X109027Y479147D01*
X108211Y478331D01*
X107991Y478178D01*
G37*
G36*
X327473Y451545D02*
X327176Y451485D01*
X321780Y451485D01*
X321494Y451541D01*
X321241Y451708D01*
X317019Y455930D01*
X293601Y455930D01*
X293315Y455986D01*
X293062Y456153D01*
X291658Y457557D01*
X288417Y457557D01*
X288142Y457608D01*
X287887Y457772D01*
X287715Y458022D01*
X287655Y458319D01*
X287655Y470065D01*
X287711Y470351D01*
X287878Y470604D01*
X294571Y477297D01*
X294813Y477460D01*
X295110Y477520D01*
X311658Y477520D01*
X311933Y477469D01*
X312188Y477305D01*
X312360Y477055D01*
X312420Y476758D01*
X312420Y471640D01*
X312364Y471354D01*
X312197Y471101D01*
X306774Y465678D01*
X306533Y465515D01*
X306235Y465455D01*
X303126Y465455D01*
X302840Y465511D01*
X302587Y465678D01*
X301183Y467082D01*
X298257Y467082D01*
X296188Y465013D01*
X296188Y462087D01*
X298257Y460018D01*
X301183Y460018D01*
X302587Y461422D01*
X302828Y461585D01*
X303126Y461645D01*
X308129Y461645D01*
X316230Y469746D01*
X316230Y475145D01*
X316286Y475431D01*
X316453Y475684D01*
X318066Y477297D01*
X318308Y477460D01*
X318605Y477520D01*
X336069Y477520D01*
X340291Y481742D01*
X340533Y481905D01*
X340830Y481965D01*
X355765Y481965D01*
X356051Y481909D01*
X356304Y481742D01*
X366450Y471596D01*
X366613Y471355D01*
X366673Y471057D01*
X366673Y468987D01*
X366622Y468712D01*
X366458Y468457D01*
X366208Y468285D01*
X365911Y468225D01*
X351913Y468225D01*
X346548Y462860D01*
X346306Y462697D01*
X346009Y462637D01*
X345924Y462637D01*
X345649Y462688D01*
X345394Y462852D01*
X345222Y463102D01*
X345162Y463399D01*
X345162Y465648D01*
X343093Y467717D01*
X340167Y467717D01*
X338098Y465648D01*
X338098Y463663D01*
X338042Y463377D01*
X337875Y463124D01*
X332531Y457780D01*
X332290Y457617D01*
X331992Y457557D01*
X330007Y457557D01*
X327938Y455488D01*
X327938Y452247D01*
X327887Y451972D01*
X327723Y451717D01*
X327473Y451545D01*
G37*
G36*
X199173Y290322D02*
X198876Y290262D01*
X143924Y290262D01*
X143649Y290313D01*
X143394Y290477D01*
X143222Y290727D01*
X143162Y291024D01*
X143162Y306644D01*
X141440Y308366D01*
X141282Y308597D01*
X141217Y308893D01*
X141272Y309191D01*
X141440Y309444D01*
X142112Y310116D01*
X142112Y318809D01*
X142159Y319073D01*
X142318Y319331D01*
X142566Y319506D01*
X142862Y319571D01*
X143160Y319516D01*
X143413Y319348D01*
X157326Y305435D01*
X157884Y305435D01*
X158170Y305379D01*
X158423Y305212D01*
X159827Y303808D01*
X162753Y303808D01*
X164822Y305877D01*
X164822Y308803D01*
X162753Y310872D01*
X159827Y310872D01*
X159091Y310136D01*
X158860Y309978D01*
X158564Y309913D01*
X158266Y309968D01*
X158013Y310136D01*
X138210Y329939D01*
X138057Y330159D01*
X137987Y330454D01*
X138038Y330753D01*
X138201Y331008D01*
X138452Y331180D01*
X138749Y331240D01*
X181487Y331240D01*
X197647Y347400D01*
X197889Y347563D01*
X198186Y347623D01*
X199583Y347623D01*
X201652Y349692D01*
X201652Y350454D01*
X201708Y350740D01*
X201875Y350993D01*
X215044Y364161D01*
X215274Y364319D01*
X215570Y364384D01*
X215868Y364329D01*
X216121Y364161D01*
X255393Y324890D01*
X258444Y324890D01*
X258730Y324834D01*
X258983Y324667D01*
X259522Y324128D01*
X262448Y324128D01*
X263622Y325302D01*
X263863Y325465D01*
X264161Y325525D01*
X267847Y325525D01*
X273280Y330958D01*
X273280Y336357D01*
X273336Y336643D01*
X273503Y336896D01*
X277784Y341177D01*
X278026Y341340D01*
X278323Y341400D01*
X295909Y341400D01*
X296195Y341344D01*
X296448Y341177D01*
X296987Y340638D01*
X299913Y340638D01*
X301982Y342707D01*
X301982Y345633D01*
X299913Y347702D01*
X296987Y347702D01*
X296448Y347163D01*
X296207Y347000D01*
X295909Y346940D01*
X275713Y346940D01*
X268636Y339863D01*
X268416Y339710D01*
X268121Y339640D01*
X267822Y339691D01*
X267567Y339855D01*
X267395Y340105D01*
X267335Y340402D01*
X267335Y350685D01*
X267391Y350971D01*
X267558Y351224D01*
X271989Y355655D01*
X272231Y355818D01*
X272528Y355878D01*
X274513Y355878D01*
X276582Y357947D01*
X276582Y360873D01*
X274513Y362942D01*
X271587Y362942D01*
X269518Y360873D01*
X269518Y358888D01*
X269462Y358602D01*
X269295Y358349D01*
X263525Y352579D01*
X263525Y338051D01*
X263469Y337765D01*
X263302Y337512D01*
X261898Y336108D01*
X261898Y333182D01*
X262463Y332617D01*
X262594Y332441D01*
X262683Y332151D01*
X262651Y331849D01*
X262504Y331584D01*
X262265Y331397D01*
X262016Y331272D01*
X261675Y331192D01*
X259522Y331192D01*
X258983Y330653D01*
X258742Y330490D01*
X258444Y330430D01*
X258003Y330430D01*
X257717Y330486D01*
X257464Y330653D01*
X219083Y369034D01*
X218899Y369332D01*
X218836Y369521D01*
X218797Y369762D01*
X218797Y369763D01*
X216728Y371832D01*
X213802Y371832D01*
X211733Y369763D01*
X211733Y369001D01*
X211677Y368715D01*
X211510Y368462D01*
X197958Y354910D01*
X197716Y354747D01*
X197419Y354687D01*
X196657Y354687D01*
X194588Y352618D01*
X194588Y352617D01*
X194549Y352376D01*
X194486Y352187D01*
X194302Y351889D01*
X179416Y337003D01*
X179174Y336840D01*
X178877Y336780D01*
X154624Y336780D01*
X154360Y336827D01*
X154102Y336986D01*
X153927Y337234D01*
X153862Y337530D01*
X153917Y337828D01*
X154085Y338081D01*
X234562Y418558D01*
X234782Y418711D01*
X235077Y418781D01*
X235376Y418730D01*
X235631Y418567D01*
X235768Y418367D01*
X237932Y416203D01*
X239917Y416203D01*
X240203Y416147D01*
X240456Y415980D01*
X283056Y373380D01*
X336319Y373380D01*
X336605Y373324D01*
X336858Y373157D01*
X338368Y371647D01*
X338531Y371547D01*
X338706Y371299D01*
X338771Y371003D01*
X338716Y370705D01*
X338548Y370452D01*
X284549Y316453D01*
X284308Y316290D01*
X284010Y316230D01*
X260820Y316230D01*
X260534Y316286D01*
X260281Y316453D01*
X250979Y325755D01*
X220826Y325755D01*
X220771Y325700D01*
X220530Y325537D01*
X220232Y325477D01*
X218247Y325477D01*
X216178Y323408D01*
X216178Y320482D01*
X218247Y318413D01*
X221173Y318413D01*
X223242Y320482D01*
X223242Y321183D01*
X223293Y321458D01*
X223457Y321713D01*
X223707Y321885D01*
X224004Y321945D01*
X237282Y321945D01*
X237557Y321894D01*
X237812Y321730D01*
X237984Y321480D01*
X238044Y321183D01*
X238044Y310156D01*
X238637Y309563D01*
X238790Y309343D01*
X238860Y309048D01*
X238809Y308749D01*
X238646Y308494D01*
X238396Y308322D01*
X238098Y308262D01*
X214242Y308262D01*
X213978Y308309D01*
X213720Y308468D01*
X213545Y308716D01*
X213480Y309012D01*
X213535Y309310D01*
X213703Y309563D01*
X214296Y310156D01*
X214296Y321876D01*
X213552Y322620D01*
X201832Y322620D01*
X201088Y321876D01*
X201088Y310156D01*
X201681Y309563D01*
X201834Y309343D01*
X201904Y309048D01*
X201853Y308749D01*
X201690Y308494D01*
X201440Y308322D01*
X201285Y308291D01*
X199638Y306644D01*
X199638Y291024D01*
X199587Y290749D01*
X199423Y290494D01*
X199173Y290322D01*
G37*
G36*
X175931Y593755D02*
X177110Y593888D01*
X178289Y593755D01*
X179410Y593363D01*
X180415Y592732D01*
X181254Y591893D01*
X181885Y590888D01*
X182277Y589767D01*
X182410Y588591D01*
X182410Y577585D01*
X182277Y576409D01*
X181885Y575288D01*
X181254Y574283D01*
X180415Y573444D01*
X179410Y572813D01*
X178289Y572421D01*
X177110Y572288D01*
X175931Y572421D01*
X174810Y572813D01*
X173805Y573444D01*
X172966Y574283D01*
X172335Y575288D01*
X171943Y576409D01*
X171810Y577585D01*
X171810Y588591D01*
X171943Y589767D01*
X172335Y590888D01*
X172966Y591893D01*
X173805Y592732D01*
X174810Y593363D01*
X175931Y593755D01*
G37*
G36*
X175931Y593755D02*
X177110Y593888D01*
X178289Y593755D01*
X179410Y593363D01*
X180415Y592732D01*
X181254Y591893D01*
X181885Y590888D01*
X182277Y589767D01*
X182410Y588591D01*
X182410Y577585D01*
X182277Y576409D01*
X181885Y575288D01*
X181254Y574283D01*
X180415Y573444D01*
X179410Y572813D01*
X178289Y572421D01*
X177110Y572288D01*
X175931Y572421D01*
X174810Y572813D01*
X173805Y573444D01*
X172966Y574283D01*
X172335Y575288D01*
X171943Y576409D01*
X171810Y577585D01*
X171810Y588591D01*
X171943Y589767D01*
X172335Y590888D01*
X172966Y591893D01*
X173805Y592732D01*
X174810Y593363D01*
X175931Y593755D01*
G37*
G36*
X262331Y593755D02*
X263510Y593888D01*
X264689Y593755D01*
X265810Y593363D01*
X266815Y592732D01*
X267654Y591893D01*
X268285Y590888D01*
X268677Y589767D01*
X268810Y588591D01*
X268810Y577585D01*
X268677Y576409D01*
X268285Y575288D01*
X267654Y574283D01*
X266815Y573444D01*
X265810Y572813D01*
X264689Y572421D01*
X263510Y572288D01*
X262331Y572421D01*
X261210Y572813D01*
X260205Y573444D01*
X259366Y574283D01*
X258735Y575288D01*
X258343Y576409D01*
X258210Y577585D01*
X258210Y588591D01*
X258343Y589767D01*
X258735Y590888D01*
X259366Y591893D01*
X260205Y592732D01*
X261210Y593363D01*
X262331Y593755D01*
G37*
G36*
X262331Y593755D02*
X263510Y593888D01*
X264689Y593755D01*
X265810Y593363D01*
X266815Y592732D01*
X267654Y591893D01*
X268285Y590888D01*
X268677Y589767D01*
X268810Y588591D01*
X268810Y577585D01*
X268677Y576409D01*
X268285Y575288D01*
X267654Y574283D01*
X266815Y573444D01*
X265810Y572813D01*
X264689Y572421D01*
X263510Y572288D01*
X262331Y572421D01*
X261210Y572813D01*
X260205Y573444D01*
X259366Y574283D01*
X258735Y575288D01*
X258343Y576409D01*
X258210Y577585D01*
X258210Y588591D01*
X258343Y589767D01*
X258735Y590888D01*
X259366Y591893D01*
X260205Y592732D01*
X261210Y593363D01*
X262331Y593755D01*
G37*
G36*
X175931Y633755D02*
X177110Y633888D01*
X178289Y633755D01*
X179410Y633363D01*
X180415Y632732D01*
X181254Y631893D01*
X181885Y630888D01*
X182277Y629767D01*
X182410Y628591D01*
X182410Y620585D01*
X182277Y619409D01*
X181885Y618288D01*
X181254Y617283D01*
X180415Y616444D01*
X179410Y615813D01*
X178289Y615421D01*
X177110Y615288D01*
X175931Y615421D01*
X174810Y615813D01*
X173805Y616444D01*
X172966Y617283D01*
X172335Y618288D01*
X171943Y619409D01*
X171810Y620585D01*
X171810Y628591D01*
X171943Y629767D01*
X172335Y630888D01*
X172966Y631893D01*
X173805Y632732D01*
X174810Y633363D01*
X175931Y633755D01*
G37*
G36*
X175931Y633755D02*
X177110Y633888D01*
X178289Y633755D01*
X179410Y633363D01*
X180415Y632732D01*
X181254Y631893D01*
X181885Y630888D01*
X182277Y629767D01*
X182410Y628591D01*
X182410Y620585D01*
X182277Y619409D01*
X181885Y618288D01*
X181254Y617283D01*
X180415Y616444D01*
X179410Y615813D01*
X178289Y615421D01*
X177110Y615288D01*
X175931Y615421D01*
X174810Y615813D01*
X173805Y616444D01*
X172966Y617283D01*
X172335Y618288D01*
X171943Y619409D01*
X171810Y620585D01*
X171810Y628591D01*
X171943Y629767D01*
X172335Y630888D01*
X172966Y631893D01*
X173805Y632732D01*
X174810Y633363D01*
X175931Y633755D01*
G37*
G36*
X262331Y633755D02*
X263510Y633888D01*
X264689Y633755D01*
X265810Y633363D01*
X266815Y632732D01*
X267654Y631893D01*
X268285Y630888D01*
X268677Y629767D01*
X268810Y628591D01*
X268810Y620585D01*
X268677Y619409D01*
X268285Y618288D01*
X267654Y617283D01*
X266815Y616444D01*
X265810Y615813D01*
X264689Y615421D01*
X263510Y615288D01*
X262331Y615421D01*
X261210Y615813D01*
X260205Y616444D01*
X259366Y617283D01*
X258735Y618288D01*
X258343Y619409D01*
X258210Y620585D01*
X258210Y628591D01*
X258343Y629767D01*
X258735Y630888D01*
X259366Y631893D01*
X260205Y632732D01*
X261210Y633363D01*
X262331Y633755D01*
G37*
G36*
X262331Y633755D02*
X263510Y633888D01*
X264689Y633755D01*
X265810Y633363D01*
X266815Y632732D01*
X267654Y631893D01*
X268285Y630888D01*
X268677Y629767D01*
X268810Y628591D01*
X268810Y620585D01*
X268677Y619409D01*
X268285Y618288D01*
X267654Y617283D01*
X266815Y616444D01*
X265810Y615813D01*
X264689Y615421D01*
X263510Y615288D01*
X262331Y615421D01*
X261210Y615813D01*
X260205Y616444D01*
X259366Y617283D01*
X258735Y618288D01*
X258343Y619409D01*
X258210Y620585D01*
X258210Y628591D01*
X258343Y629767D01*
X258735Y630888D01*
X259366Y631893D01*
X260205Y632732D01*
X261210Y633363D01*
X262331Y633755D01*
G37*
D10*
X263510Y624588D03*
X177110Y624588D03*
X263510Y583088D03*
X177110Y583088D03*
D11*
X355038Y316056D03*
X318082Y316056D03*
X244648Y316016D03*
X207692Y316016D03*
X135508Y315976D03*
X98552Y315976D03*
D12*
X308370Y497378D03*
X296370Y497378D03*
X296370Y509378D03*
X308370Y509378D03*
X320370Y509378D03*
X332370Y509378D03*
X332370Y497378D03*
X320370Y497378D03*
X296370Y485378D03*
X308370Y485378D03*
X320370Y485378D03*
X332370Y485378D03*
X332370Y473378D03*
X320370Y473378D03*
X308370Y473378D03*
X296370Y473378D03*
D13*
X279400Y339090D02*
X279400Y318770D01*
X279400Y339090D02*
X291465Y339090D01*
X322580Y454025D02*
X322580Y471170D01*
X320675Y473075D01*
X320370Y473378D01*
X339090Y479425D02*
X351790Y479425D01*
X339090Y479425D02*
X332740Y473075D01*
X332370Y473378D01*
X330835Y471805D02*
X322580Y471805D01*
X330835Y471805D02*
X332105Y473075D01*
X322580Y471805D02*
X320370Y473378D01*
X332105Y473075D02*
X332370Y473378D01*
X165735Y572135D02*
X48260Y572135D01*
X165735Y572135D02*
X176530Y582930D01*
X177110Y583088D01*
D14*
X279400Y318770D03*
X279400Y339090D03*
X291465Y339090D03*
X322580Y454025D03*
X351790Y479425D03*
X48260Y572135D03*
D13*
X215900Y608330D02*
X250190Y608330D01*
X215900Y608330D02*
X198120Y590550D01*
X198120Y527050D01*
X151130Y480060D01*
X117475Y480060D01*
D14*
X250190Y608330D03*
X117475Y480060D03*
D13*
X356235Y441325D02*
X395605Y401955D01*
X404495Y401955D01*
X408305Y398145D01*
D14*
X356235Y441325D03*
X408305Y398145D03*
D13*
X372745Y400685D02*
X358775Y414655D01*
X372745Y400685D02*
X392430Y400685D01*
X395605Y397510D01*
D14*
X358775Y414655D03*
X395605Y397510D03*
D13*
X382270Y396240D02*
X378460Y396240D01*
X377825Y396875D01*
X337820Y396875D01*
D14*
X382270Y396240D03*
X337820Y396875D03*
D13*
X298450Y527050D02*
X243205Y527050D01*
X180340Y464185D01*
X110490Y464185D01*
D14*
X298450Y527050D03*
X110490Y464185D03*
D13*
X331470Y454025D02*
X341630Y464185D01*
X315595Y433070D02*
X292735Y433070D01*
X279400Y419735D01*
X245745Y419735D01*
D14*
X341630Y464185D03*
X331470Y454025D03*
X315595Y433070D03*
X245745Y419735D03*
D13*
X283845Y375285D02*
X339725Y375285D01*
X283845Y375285D02*
X239395Y419735D01*
D14*
X339725Y375285D03*
X239395Y419735D03*
D13*
X290195Y454025D02*
X316230Y454025D01*
X320675Y449580D01*
X354330Y449580D01*
X365760Y461010D01*
X400685Y461010D01*
D14*
X290195Y454025D03*
X400685Y461010D03*
D13*
X286385Y451485D02*
X286385Y449580D01*
X286385Y451485D02*
X285750Y452120D01*
X285750Y471170D01*
X294005Y479425D01*
X311150Y479425D01*
X314325Y482600D01*
X314325Y519430D01*
X388620Y593725D01*
D14*
X286385Y449580D03*
X388620Y593725D03*
D13*
X287655Y434340D02*
X269240Y434340D01*
X179705Y469900D02*
X113030Y469900D01*
D14*
X287655Y434340D03*
X269240Y434340D03*
X179705Y469900D03*
X113030Y469900D03*
D13*
X258445Y438785D02*
X298450Y438785D01*
X167640Y475615D02*
X110490Y475615D01*
D14*
X298450Y438785D03*
X258445Y438785D03*
X167640Y475615D03*
X110490Y475615D03*
D13*
X342265Y496570D02*
X365125Y496570D01*
D14*
X342265Y496570D03*
X365125Y496570D03*
D13*
X358140Y518795D02*
X394335Y518795D01*
D14*
X358140Y518795D03*
X394335Y518795D03*
D13*
X376555Y527685D02*
X358140Y527685D01*
X376555Y527685D02*
X399415Y550545D01*
D14*
X358140Y527685D03*
X399415Y550545D03*
D15*
X374015Y465455D02*
X353060Y465455D01*
X346710Y459105D01*
X345440Y523875D02*
X345440Y531495D01*
X345440Y523875D02*
X375285Y494030D01*
X375285Y466090D01*
X374015Y465455D01*
X385445Y570865D02*
X412115Y570865D01*
X385445Y570865D02*
X346710Y532130D01*
X345440Y531495D01*
X407035Y466090D02*
X443230Y429895D01*
X407035Y466090D02*
X376555Y466090D01*
X375285Y466090D01*
X50800Y587375D02*
X41910Y578485D01*
X51435Y554990D02*
X60960Y554990D01*
X51435Y554990D02*
X40005Y566420D01*
X40005Y575945D01*
X41275Y577215D01*
X41910Y578485D01*
X62230Y554990D02*
X74930Y567690D01*
X62230Y554990D02*
X60960Y554990D01*
X65405Y586740D02*
X52070Y586740D01*
X50800Y587375D01*
X275590Y518160D02*
X275590Y498475D01*
X275590Y470535D01*
X215265Y368300D02*
X198120Y351155D01*
X180340Y334010D02*
X102235Y334010D01*
X93980Y334010D01*
X180340Y334010D02*
X196850Y350520D01*
X198120Y351155D01*
X256540Y327660D02*
X260985Y327660D01*
X256540Y327660D02*
X216535Y367665D01*
X215265Y368300D01*
X267970Y498475D02*
X274320Y498475D01*
X267970Y498475D02*
X197485Y427990D01*
X197485Y389255D01*
X152400Y344170D01*
X104775Y344170D01*
X102235Y341630D01*
X102235Y335280D01*
X274320Y498475D02*
X275590Y498475D01*
X102235Y335280D02*
X102235Y334010D01*
X62865Y541655D02*
X62865Y553720D01*
X62865Y541655D02*
X104140Y500380D01*
X104140Y345440D01*
X62865Y553720D02*
X60960Y554990D01*
X104140Y345440D02*
X104775Y344170D01*
X276860Y344170D02*
X298450Y344170D01*
X276860Y344170D02*
X270510Y337820D01*
X270510Y332105D01*
X266700Y328295D01*
X262255Y328295D01*
X260985Y327660D01*
D14*
X374015Y465455D03*
X346710Y459105D03*
X345440Y531495D03*
X412115Y570865D03*
X443230Y429895D03*
X41910Y578485D03*
X50800Y587375D03*
X60960Y554990D03*
X74930Y567690D03*
X65405Y586740D03*
X275590Y470535D03*
X275590Y518160D03*
X198120Y351155D03*
X215265Y368300D03*
X93980Y334010D03*
X260985Y327660D03*
X298450Y344170D03*
D13*
X265430Y351790D02*
X265430Y334645D01*
X265430Y351790D02*
X273050Y359410D01*
X157480Y608330D02*
X81280Y608330D01*
X43815Y570230D02*
X48260Y565785D01*
X43815Y570230D02*
X43815Y574040D01*
X52070Y582295D01*
X67310Y582295D01*
X81280Y596265D01*
X81280Y608330D01*
X163195Y553085D02*
X163195Y498475D01*
X163195Y553085D02*
X185420Y575310D01*
X185420Y586105D01*
X184785Y586740D01*
X184785Y591820D01*
X168275Y608330D01*
X157480Y608330D01*
D14*
X265430Y334645D03*
X273050Y359410D03*
X157480Y608330D03*
X81280Y608330D03*
X48260Y565785D03*
X163195Y498475D03*
D13*
X229235Y452120D02*
X258128Y481013D01*
X270510Y493395D01*
X301625Y530225D02*
X301625Y589280D01*
X301625Y530225D02*
X302895Y528955D01*
X302895Y524510D01*
X280035Y501650D01*
X280035Y468630D01*
X277495Y466090D01*
X273050Y466090D01*
X258445Y480695D01*
X258128Y481013D01*
X239395Y442595D02*
X239395Y435610D01*
X239395Y442595D02*
X229870Y452120D01*
X229235Y452120D01*
X132715Y487045D02*
X87630Y532130D01*
X132715Y487045D02*
X151765Y487045D01*
D14*
X270510Y493395D03*
X229235Y452120D03*
X301625Y589280D03*
X239395Y435610D03*
X87630Y532130D03*
X151765Y487045D03*
D15*
X288290Y601345D02*
X288290Y617220D01*
X287020Y600710D02*
X241935Y600710D01*
X214630Y600710D01*
X287020Y600710D02*
X288290Y601345D01*
X241935Y599440D02*
X241935Y591185D01*
X241935Y599440D02*
X241935Y600710D01*
X334645Y610870D02*
X379730Y610870D01*
X334645Y610870D02*
X321310Y624205D01*
X295910Y624205D01*
X289560Y617855D01*
X288290Y617220D01*
X279400Y454025D02*
X255905Y454025D01*
X201930Y492125D02*
X201930Y587375D01*
X213995Y599440D01*
X214630Y600710D01*
D14*
X288290Y601345D03*
X288290Y617220D03*
X214630Y600710D03*
X241935Y591185D03*
X379730Y610870D03*
X279400Y454025D03*
X255905Y454025D03*
X201930Y492125D03*
D13*
X193675Y471170D02*
X193675Y393065D01*
X166370Y365760D01*
X153670Y353060D02*
X120015Y353060D01*
X153670Y353060D02*
X166370Y365760D01*
D14*
X193675Y471170D03*
X166370Y365760D03*
X120015Y353060D03*
D13*
X158115Y307340D02*
X161290Y307340D01*
X158115Y307340D02*
X135890Y329565D01*
X91440Y329565D01*
X81915Y339090D01*
D14*
X161290Y307340D03*
X81915Y339090D03*
D13*
X111125Y514985D02*
X120650Y524510D01*
D14*
X111125Y514985D03*
X120650Y524510D03*
D13*
X312420Y619125D02*
X318770Y619125D01*
X312420Y619125D02*
X289560Y596265D01*
X255905Y596265D01*
X254000Y594360D01*
D14*
X318770Y619125D03*
X254000Y594360D03*
D13*
X256540Y443230D02*
X289560Y443230D01*
X256540Y443230D02*
X152400Y339090D01*
X107315Y339090D01*
D14*
X289560Y443230D03*
X107315Y339090D03*
D13*
X299720Y463550D02*
X307340Y463550D01*
X314325Y470535D01*
X314325Y476250D01*
X317500Y479425D01*
X335280Y479425D01*
X339725Y483870D01*
X356870Y483870D01*
X370205Y470535D01*
X370205Y454025D02*
X362585Y454025D01*
X333375Y424815D01*
X333375Y387985D01*
X344170Y377190D01*
X344170Y373380D01*
X285115Y314325D01*
X259715Y314325D01*
X250190Y323850D01*
X221615Y323850D01*
X219710Y321945D01*
D14*
X299720Y463550D03*
X370205Y470535D03*
X370205Y454025D03*
X219710Y321945D03*
M02*
