G04 EAGLE Gerber RS-274X export*
G75*
%MOMM*%
%FSLAX34Y34*%
%LPD*%
%INSolderpaste Top*%
%IPPOS*%
%AMOC8*
5,1,8,0,0,1.08239X$1,22.5*%
G01*
G04 Define Apertures*
%ADD10R,1.800000X1.150000*%
%ADD11R,0.280000X0.430000*%
%ADD12R,0.430000X0.280000*%
%ADD13R,0.230000X0.220000*%
%ADD14R,0.220000X0.230000*%
%ADD15R,1.150000X0.800000*%
%ADD16R,1.200000X0.600000*%
%ADD17C,0.200000*%
%ADD18C,0.250000*%
%ADD19R,0.300000X0.350000*%
%ADD20R,0.350000X0.300000*%
%ADD21C,0.216000*%
%ADD22R,0.700000X0.300000*%
%ADD23R,1.000000X0.300000*%
%ADD24C,0.783000*%
%ADD25R,0.300000X1.150000*%
%ADD26R,0.600000X1.150000*%
%ADD27R,0.500000X0.600000*%
%ADD28R,0.600000X0.500000*%
%ADD29R,5.300000X0.900000*%
%ADD30R,2.200000X1.200000*%
%ADD31R,0.900000X0.800000*%
%ADD32R,1.050000X0.500000*%
%ADD33R,0.250000X0.350000*%
%ADD34R,0.350000X0.250000*%
%ADD35R,1.168400X1.600200*%
%ADD36R,0.711200X1.092200*%
%ADD37R,1.397000X1.092200*%
%ADD38R,4.850000X4.850000*%
%ADD39R,0.560000X0.820000*%
%ADD40C,0.067500*%
%ADD41R,0.950000X0.850000*%
%ADD42R,1.000000X1.800000*%
G36*
X93853Y306324D02*
X93853Y313182D01*
X105537Y313182D01*
X105537Y306324D01*
X93853Y306324D01*
G37*
G36*
X128523Y306324D02*
X128523Y313182D01*
X140207Y313182D01*
X140207Y306324D01*
X128523Y306324D01*
G37*
G36*
X202993Y306364D02*
X202993Y313222D01*
X214677Y313222D01*
X214677Y306364D01*
X202993Y306364D01*
G37*
G36*
X237663Y306364D02*
X237663Y313222D01*
X249347Y313222D01*
X249347Y306364D01*
X237663Y306364D01*
G37*
G36*
X313383Y306404D02*
X313383Y313262D01*
X325067Y313262D01*
X325067Y306404D01*
X313383Y306404D01*
G37*
G36*
X348053Y306404D02*
X348053Y313262D01*
X359737Y313262D01*
X359737Y306404D01*
X348053Y306404D01*
G37*
D10*
X440838Y497960D03*
X440838Y467960D03*
D11*
X408100Y509700D03*
X413200Y509700D03*
X188500Y403750D03*
X193600Y403750D03*
X353440Y503640D03*
X358540Y503640D03*
X354030Y511520D03*
X359130Y511520D03*
D12*
X339600Y531550D03*
X339600Y536650D03*
X330360Y530940D03*
X330360Y536040D03*
D11*
G36*
X254294Y540937D02*
X257092Y540898D01*
X257032Y536599D01*
X254234Y536638D01*
X254294Y540937D01*
G37*
G36*
X249194Y541008D02*
X251992Y540969D01*
X251932Y536670D01*
X249134Y536709D01*
X249194Y541008D01*
G37*
D12*
X325380Y552770D03*
X325380Y547670D03*
X333120Y552920D03*
X333120Y547820D03*
D11*
X214220Y539570D03*
X219320Y539570D03*
G36*
X215779Y502405D02*
X212981Y502341D01*
X212883Y506639D01*
X215681Y506703D01*
X215779Y502405D01*
G37*
G36*
X220877Y502521D02*
X218079Y502457D01*
X217981Y506755D01*
X220779Y506819D01*
X220877Y502521D01*
G37*
X53830Y593490D03*
X58930Y593490D03*
X404150Y544320D03*
X399050Y544320D03*
D12*
X86490Y344620D03*
X86490Y349720D03*
D11*
X275010Y458590D03*
X269910Y458590D03*
D12*
X294240Y402530D03*
X294240Y397430D03*
X419230Y492820D03*
X419230Y487720D03*
D13*
X89090Y617240D03*
X89090Y620940D03*
D12*
X78300Y620990D03*
X78300Y615890D03*
X109970Y582090D03*
X109970Y576990D03*
D13*
X198380Y448050D03*
X198380Y444350D03*
D14*
X339010Y341720D03*
X335310Y341720D03*
D12*
X381920Y493140D03*
X381920Y488040D03*
D14*
X119630Y341530D03*
X115930Y341530D03*
X228500Y341720D03*
X224800Y341720D03*
D13*
X302280Y337260D03*
X302280Y333560D03*
D12*
X118220Y582010D03*
X118220Y576910D03*
D13*
X256198Y330473D03*
X256198Y326773D03*
X311080Y625700D03*
X311080Y622000D03*
X284750Y625060D03*
X284750Y621360D03*
D12*
X298110Y620570D03*
X298110Y625670D03*
X410330Y492580D03*
X410330Y487480D03*
D14*
X380700Y587800D03*
X384400Y587800D03*
D11*
X385340Y579410D03*
X380240Y579410D03*
X255680Y530960D03*
X250580Y530960D03*
X275250Y476470D03*
X270150Y476470D03*
X317470Y446290D03*
X322570Y446290D03*
X374080Y459230D03*
X379180Y459230D03*
X353630Y489090D03*
X358730Y489090D03*
D15*
X72570Y329650D03*
X37570Y329650D03*
D16*
X369980Y619690D03*
X369980Y610190D03*
X369980Y600690D03*
X394980Y600690D03*
X394980Y610190D03*
X394980Y619690D03*
D15*
X151900Y307180D03*
X186900Y307180D03*
X38100Y365250D03*
X73100Y365250D03*
D11*
X125370Y503400D03*
X120270Y503400D03*
X125900Y402440D03*
X120800Y402440D03*
X125280Y394860D03*
X120180Y394860D03*
X124980Y387430D03*
X119880Y387430D03*
X125790Y511560D03*
X120690Y511560D03*
X125400Y441540D03*
X120300Y441540D03*
X125530Y433830D03*
X120430Y433830D03*
X125220Y425310D03*
X120120Y425310D03*
X125510Y417190D03*
X120410Y417190D03*
X125130Y409680D03*
X120030Y409680D03*
D17*
X293070Y597238D03*
X293070Y601238D03*
X297070Y597238D03*
X297070Y601238D03*
X301070Y597238D03*
X301070Y601238D03*
X305070Y597238D03*
X305070Y601238D03*
D18*
X284412Y334150D03*
X284412Y329150D03*
X284412Y324150D03*
X279412Y334150D03*
X279412Y329150D03*
X279412Y324150D03*
X274412Y334150D03*
X274412Y329150D03*
X274412Y324150D03*
D19*
X53990Y560520D03*
X58990Y560520D03*
X63990Y560520D03*
X68990Y560520D03*
D20*
X69240Y565770D03*
X69240Y570770D03*
D19*
X68990Y576020D03*
X63990Y576020D03*
X58990Y576020D03*
X53990Y576020D03*
D20*
X53740Y570770D03*
X53740Y565770D03*
D21*
X108230Y617080D03*
X112230Y617080D03*
X116230Y617080D03*
X108230Y613080D03*
X112230Y613080D03*
X116230Y613080D03*
X108230Y609080D03*
X112230Y609080D03*
X116230Y609080D03*
X108230Y605080D03*
X112230Y605080D03*
X116230Y605080D03*
X108230Y601080D03*
X112230Y601080D03*
X116230Y601080D03*
D22*
X102842Y519952D03*
X102842Y514952D03*
X102842Y509952D03*
X102842Y504952D03*
X102842Y499952D03*
X102842Y494952D03*
X102842Y489952D03*
X102842Y484952D03*
X102842Y479952D03*
X102842Y474952D03*
X102842Y469952D03*
X102842Y464952D03*
X102842Y459952D03*
X102842Y454952D03*
X102842Y449952D03*
X102842Y444952D03*
X102842Y439952D03*
X102842Y434952D03*
X102842Y429952D03*
X102842Y424952D03*
X102842Y419952D03*
X102842Y414952D03*
X102842Y409952D03*
X102842Y404952D03*
D23*
X76342Y527852D03*
X76342Y397052D03*
D24*
X414156Y404927D03*
X414156Y392227D03*
X401456Y404927D03*
X401456Y392227D03*
X388746Y404927D03*
X388746Y392227D03*
D25*
X222810Y577338D03*
X227810Y577338D03*
X232810Y577338D03*
X237810Y577338D03*
X217810Y577338D03*
X212810Y577338D03*
X207810Y577338D03*
X202810Y577338D03*
D26*
X252310Y577338D03*
X244310Y577338D03*
X196310Y577338D03*
X188310Y577338D03*
D27*
X391170Y492850D03*
X401170Y492850D03*
D28*
X306590Y537030D03*
X306590Y547030D03*
X316000Y542460D03*
X316000Y552460D03*
D29*
X157980Y357340D03*
X157980Y403060D03*
D30*
X143144Y616919D03*
X143144Y596359D03*
D31*
X211420Y359782D03*
X211420Y378782D03*
X190420Y369282D03*
D32*
X157210Y518130D03*
X157210Y505130D03*
X178210Y511630D03*
D33*
X95090Y327910D03*
X89590Y327910D03*
X301370Y369400D03*
X295870Y369400D03*
X262890Y370870D03*
X257390Y370870D03*
X142360Y506950D03*
X147860Y506950D03*
D34*
X232760Y561440D03*
X232760Y566940D03*
D33*
X86860Y603910D03*
X92360Y603910D03*
X141560Y519590D03*
X147060Y519590D03*
D34*
X202640Y566860D03*
X202640Y561360D03*
X37352Y572310D03*
X37352Y566810D03*
D33*
X86630Y609640D03*
X92130Y609640D03*
X314140Y326902D03*
X308640Y326902D03*
X203580Y327102D03*
X198080Y327102D03*
D34*
X322950Y603480D03*
X322950Y597980D03*
X220610Y366482D03*
X220610Y371982D03*
D33*
X137090Y501312D03*
X142590Y501312D03*
D35*
X126658Y490190D03*
X141898Y490190D03*
D36*
X350562Y329581D03*
X322558Y329581D03*
D37*
X336560Y331105D03*
D36*
X240172Y329541D03*
X212168Y329541D03*
D37*
X226170Y331065D03*
D36*
X131032Y329501D03*
X103028Y329501D03*
D37*
X117030Y331025D03*
D38*
X314370Y491378D03*
D17*
X286870Y491378D03*
X286870Y496378D03*
X286870Y501378D03*
X286870Y506378D03*
X286870Y511378D03*
X281870Y513878D03*
X281870Y503878D03*
X281870Y498878D03*
X281870Y493878D03*
X281870Y488878D03*
X286870Y486378D03*
X286870Y481378D03*
X281870Y483878D03*
X281870Y478878D03*
X281870Y473878D03*
X286870Y471378D03*
X286870Y466378D03*
X286870Y458878D03*
X291870Y458878D03*
X294370Y463878D03*
X296870Y458878D03*
X301870Y458878D03*
X306870Y458878D03*
X311870Y458878D03*
X316870Y458878D03*
X321870Y458878D03*
X326870Y458878D03*
X331870Y458878D03*
X336870Y458878D03*
X341870Y458878D03*
X334370Y463878D03*
X329370Y463878D03*
X324370Y463878D03*
X319370Y463878D03*
X314370Y463878D03*
X309370Y463878D03*
X304370Y463878D03*
X341870Y471378D03*
X346870Y468878D03*
X346870Y463878D03*
X346870Y473878D03*
X341870Y476378D03*
X346870Y478878D03*
X341870Y481378D03*
X341870Y486378D03*
X346870Y483878D03*
X346870Y488878D03*
X346870Y493878D03*
X346870Y498878D03*
X341870Y501378D03*
X341870Y506378D03*
X346870Y508878D03*
X341870Y511378D03*
X346870Y518878D03*
X281870Y518878D03*
X294370Y518878D03*
X299370Y518878D03*
X304370Y518878D03*
X306870Y523878D03*
X309370Y518878D03*
X311870Y523878D03*
X314370Y518878D03*
X316870Y523878D03*
X319370Y518878D03*
X321870Y523878D03*
X324370Y518878D03*
X326870Y523878D03*
X329370Y518878D03*
X331870Y523878D03*
X336870Y523878D03*
X341870Y523878D03*
X289370Y518878D03*
X301870Y523878D03*
D39*
X219300Y438000D03*
D40*
X212913Y444487D02*
X205987Y444487D01*
X205987Y446513D01*
X212913Y446513D01*
X212913Y444487D01*
X212913Y445128D02*
X205987Y445128D01*
X205987Y445769D02*
X212913Y445769D01*
X212913Y446410D02*
X205987Y446410D01*
X205987Y439487D02*
X212913Y439487D01*
X205987Y439487D02*
X205987Y441513D01*
X212913Y441513D01*
X212913Y439487D01*
X212913Y440128D02*
X205987Y440128D01*
X205987Y440769D02*
X212913Y440769D01*
X212913Y441410D02*
X205987Y441410D01*
X205987Y434487D02*
X212913Y434487D01*
X205987Y434487D02*
X205987Y436513D01*
X212913Y436513D01*
X212913Y434487D01*
X212913Y435128D02*
X205987Y435128D01*
X205987Y435769D02*
X212913Y435769D01*
X212913Y436410D02*
X205987Y436410D01*
X205987Y429487D02*
X212913Y429487D01*
X205987Y429487D02*
X205987Y431513D01*
X212913Y431513D01*
X212913Y429487D01*
X212913Y430128D02*
X205987Y430128D01*
X205987Y430769D02*
X212913Y430769D01*
X212913Y431410D02*
X205987Y431410D01*
X225687Y429487D02*
X232613Y429487D01*
X225687Y429487D02*
X225687Y431513D01*
X232613Y431513D01*
X232613Y429487D01*
X232613Y430128D02*
X225687Y430128D01*
X225687Y430769D02*
X232613Y430769D01*
X232613Y431410D02*
X225687Y431410D01*
X225687Y434487D02*
X232613Y434487D01*
X225687Y434487D02*
X225687Y436513D01*
X232613Y436513D01*
X232613Y434487D01*
X232613Y435128D02*
X225687Y435128D01*
X225687Y435769D02*
X232613Y435769D01*
X232613Y436410D02*
X225687Y436410D01*
X225687Y439487D02*
X232613Y439487D01*
X225687Y439487D02*
X225687Y441513D01*
X232613Y441513D01*
X232613Y439487D01*
X232613Y440128D02*
X225687Y440128D01*
X225687Y440769D02*
X232613Y440769D01*
X232613Y441410D02*
X225687Y441410D01*
X225687Y444487D02*
X232613Y444487D01*
X225687Y444487D02*
X225687Y446513D01*
X232613Y446513D01*
X232613Y444487D01*
X232613Y445128D02*
X225687Y445128D01*
X225687Y445769D02*
X232613Y445769D01*
X232613Y446410D02*
X225687Y446410D01*
D41*
X402960Y521360D03*
X417460Y521360D03*
X417460Y532860D03*
X402960Y532860D03*
D42*
G36*
X244244Y515089D02*
X244401Y505091D01*
X226404Y504809D01*
X226247Y514807D01*
X244244Y515089D01*
G37*
G36*
X243851Y540086D02*
X244008Y530088D01*
X226011Y529806D01*
X225854Y539804D01*
X243851Y540086D01*
G37*
M02*
