G04 EAGLE Gerber RS-274X export*
G75*
%MOMM*%
%FSLAX34Y34*%
%LPD*%
%INSoldermask Bottom*%
%IPPOS*%
%AMOC8*
5,1,8,0,0,1.08239X$1,22.5*%
G01*
G04 Define Apertures*
%ADD10C,2.654200*%
%ADD11C,1.270200*%
%ADD12C,0.903200*%
%ADD13C,1.373200*%
%ADD14R,1.270000X1.270000*%
%ADD15C,0.655600*%
G36*
X175881Y594767D02*
X177110Y594888D01*
X178339Y594767D01*
X179521Y594409D01*
X180610Y593826D01*
X181565Y593043D01*
X182348Y592088D01*
X182931Y590999D01*
X183289Y589817D01*
X183410Y588590D01*
X183410Y577586D01*
X183289Y576359D01*
X182931Y575177D01*
X182348Y574088D01*
X181565Y573133D01*
X180610Y572350D01*
X179521Y571767D01*
X178339Y571409D01*
X177110Y571288D01*
X175881Y571409D01*
X174699Y571767D01*
X173610Y572350D01*
X172655Y573133D01*
X171872Y574088D01*
X171289Y575177D01*
X170931Y576359D01*
X170810Y577586D01*
X170810Y588590D01*
X170931Y589817D01*
X171289Y590999D01*
X171872Y592088D01*
X172655Y593043D01*
X173610Y593826D01*
X174699Y594409D01*
X175881Y594767D01*
G37*
G36*
X262281Y594767D02*
X263510Y594888D01*
X264739Y594767D01*
X265921Y594409D01*
X267010Y593826D01*
X267965Y593043D01*
X268748Y592088D01*
X269331Y590999D01*
X269689Y589817D01*
X269810Y588590D01*
X269810Y577586D01*
X269689Y576359D01*
X269331Y575177D01*
X268748Y574088D01*
X267965Y573133D01*
X267010Y572350D01*
X265921Y571767D01*
X264739Y571409D01*
X263510Y571288D01*
X262281Y571409D01*
X261099Y571767D01*
X260010Y572350D01*
X259055Y573133D01*
X258272Y574088D01*
X257689Y575177D01*
X257331Y576359D01*
X257210Y577586D01*
X257210Y588590D01*
X257331Y589817D01*
X257689Y590999D01*
X258272Y592088D01*
X259055Y593043D01*
X260010Y593826D01*
X261099Y594409D01*
X262281Y594767D01*
G37*
G36*
X175881Y634767D02*
X177110Y634888D01*
X178339Y634767D01*
X179521Y634409D01*
X180610Y633826D01*
X181565Y633043D01*
X182348Y632088D01*
X182931Y630999D01*
X183289Y629817D01*
X183410Y628590D01*
X183410Y620586D01*
X183289Y619359D01*
X182931Y618177D01*
X182348Y617088D01*
X181565Y616133D01*
X180610Y615350D01*
X179521Y614767D01*
X178339Y614409D01*
X177110Y614288D01*
X175881Y614409D01*
X174699Y614767D01*
X173610Y615350D01*
X172655Y616133D01*
X171872Y617088D01*
X171289Y618177D01*
X170931Y619359D01*
X170810Y620586D01*
X170810Y628590D01*
X170931Y629817D01*
X171289Y630999D01*
X171872Y632088D01*
X172655Y633043D01*
X173610Y633826D01*
X174699Y634409D01*
X175881Y634767D01*
G37*
G36*
X262281Y634767D02*
X263510Y634888D01*
X264739Y634767D01*
X265921Y634409D01*
X267010Y633826D01*
X267965Y633043D01*
X268748Y632088D01*
X269331Y630999D01*
X269689Y629817D01*
X269810Y628590D01*
X269810Y620586D01*
X269689Y619359D01*
X269331Y618177D01*
X268748Y617088D01*
X267965Y616133D01*
X267010Y615350D01*
X265921Y614767D01*
X264739Y614409D01*
X263510Y614288D01*
X262281Y614409D01*
X261099Y614767D01*
X260010Y615350D01*
X259055Y616133D01*
X258272Y617088D01*
X257689Y618177D01*
X257331Y619359D01*
X257210Y620586D01*
X257210Y628590D01*
X257331Y629817D01*
X257689Y630999D01*
X258272Y632088D01*
X259055Y633043D01*
X260010Y633826D01*
X261099Y634409D01*
X262281Y634767D01*
G37*
D10*
X426856Y423977D03*
D11*
X426856Y398577D03*
D10*
X426856Y373177D03*
X395106Y423977D03*
X395106Y373177D03*
D11*
X376056Y408737D03*
X376056Y388417D03*
D12*
X249210Y588088D03*
X191410Y588088D03*
D13*
X263510Y624588D03*
X177110Y624588D03*
X263510Y583088D03*
X177110Y583088D03*
D14*
X355038Y316056D03*
X318082Y316056D03*
X244648Y316016D03*
X207692Y316016D03*
X135508Y315976D03*
X98552Y315976D03*
D15*
X279400Y318770D03*
X279400Y339090D03*
X291465Y339090D03*
X322580Y454025D03*
X351790Y479425D03*
X48260Y572135D03*
X250190Y608330D03*
X117475Y480060D03*
X356235Y441325D03*
X408305Y398145D03*
X358775Y414655D03*
X395605Y397510D03*
X382270Y396240D03*
X337820Y396875D03*
X298450Y527050D03*
X110490Y464185D03*
X341630Y464185D03*
X331470Y454025D03*
X315595Y433070D03*
X245745Y419735D03*
X339725Y375285D03*
X239395Y419735D03*
X290195Y454025D03*
X400685Y461010D03*
X286385Y449580D03*
X388620Y593725D03*
X287655Y434340D03*
X269240Y434340D03*
X179705Y469900D03*
X113030Y469900D03*
X298450Y438785D03*
X258445Y438785D03*
X167640Y475615D03*
X110490Y475615D03*
X342265Y496570D03*
X365125Y496570D03*
X358140Y518795D03*
X394335Y518795D03*
X358140Y527685D03*
X399415Y550545D03*
X374015Y465455D03*
X346710Y459105D03*
X345440Y531495D03*
X412115Y570865D03*
X443230Y429895D03*
X41910Y578485D03*
X50800Y587375D03*
X60960Y554990D03*
X74930Y567690D03*
X65405Y586740D03*
X275590Y470535D03*
X275590Y518160D03*
X198120Y351155D03*
X215265Y368300D03*
X93980Y334010D03*
X260985Y327660D03*
X298450Y344170D03*
X265430Y334645D03*
X273050Y359410D03*
X157480Y608330D03*
X81280Y608330D03*
X48260Y565785D03*
X163195Y498475D03*
X270510Y493395D03*
X229235Y452120D03*
X301625Y589280D03*
X239395Y435610D03*
X87630Y532130D03*
X151765Y487045D03*
X288290Y601345D03*
X288290Y617220D03*
X214630Y600710D03*
X241935Y591185D03*
X379730Y610870D03*
X279400Y454025D03*
X255905Y454025D03*
X201930Y492125D03*
X193675Y471170D03*
X166370Y365760D03*
X120015Y353060D03*
X161290Y307340D03*
X81915Y339090D03*
X111125Y514985D03*
X120650Y524510D03*
X318770Y619125D03*
X254000Y594360D03*
X289560Y443230D03*
X107315Y339090D03*
X299720Y463550D03*
X370205Y470535D03*
X370205Y454025D03*
X219710Y321945D03*
M02*
