M48
;GenerationSoftware,Autodesk,EAGLE,9.7.0*%
;CreationDate,2026-04-10T13:51:20Z*%
FMAT,2
ICI,OFF
METRIC,TZ,000.000
T6C0.300
T5C0.559
T4C0.650
T3C0.700
T2C1.067
T1C2.451
%
G90
M71
T1
X42686Y42398
X42686Y37318
X39511Y42398
X39511Y37318
T2
X42686Y39858
X37606Y40874
X37606Y38842
T3
X24921Y58809
X19141Y58809
T4
X26351Y62459
X17711Y62459
X26351Y58309
X17711Y58309
T5
X35504Y31606
X31808Y31606
X24465Y31602
X20769Y31602
X13551Y31598
X9855Y31598
T6
X24574Y41974
X33973Y37529
X23939Y41974
X29019Y45402
X40069Y46101
X28638Y44958
X38862Y59372
X28765Y43434
X26924Y43434
X17971Y46990
X11303Y46990
X29845Y43878
X25844Y43878
X16764Y47561
X11049Y47561
X34227Y49657
X36513Y49657
X35814Y51879
X39434Y51879
X35814Y52768
X39942Y55054
X37402Y46545
X34671Y45910
X34544Y53149
X41212Y57086
X44323Y42990
X4191Y57848
X5080Y58737
X6096Y55499
X7493Y56769
X6540Y58674
X27559Y47053
X27559Y51816
X19812Y35116
X21527Y36830
X9398Y33401
X26098Y32766
X29845Y34417
X26543Y33465
X27305Y35941
X15748Y60833
X8128Y60833
X4826Y56578
X16319Y49847
X27051Y49339
X22923Y45212
X30162Y58928
X23939Y43561
X8763Y53213
X15176Y48704
X28829Y60134
X28829Y61722
X21463Y60071
X24193Y59118
X37973Y61087
X27940Y45402
X25590Y45402
X20193Y49212
X19368Y47117
X16637Y36576
X12001Y35306
X16129Y30734
X8191Y33909
X11112Y51498
X12065Y52451
X31877Y61912
X25400Y59436
X28956Y44323
X10732Y33909
X29972Y46355
X37021Y47053
X37021Y45402
X21971Y32194
X27940Y31877
X27940Y33909
X29146Y33909
X32258Y45402
X35179Y47942
X4826Y57213
X25019Y60833
X11747Y48006
X35624Y44132
X40831Y39815
X35878Y41466
X39561Y39751
X38227Y39624
X33782Y39688
X29845Y52705
X11049Y46418
X34163Y46418
X33147Y45402
X31559Y43307
X30837Y49738
X29637Y49738
X29637Y50938
X30837Y50938
X32037Y50938
X33237Y50938
X33237Y49738
X32037Y49738
X29637Y48538
X30837Y48538
X32037Y48538
X33237Y48538
X33237Y47338
X32037Y47338
X30837Y47338
X29637Y47338
M30