G04 EAGLE Gerber RS-274X export*
G75*
%MOMM*%
%FSLAX34Y34*%
%LPD*%
%IN*%
%IPPOS*%
%AMOC8*
5,1,8,0,0,1.08239X$1,22.5*%
G01*
G04 Define Apertures*
%ADD10C,0.254000*%
D10*
X-3600Y357500D02*
X-3334Y351399D01*
X-2537Y345345D01*
X-1215Y339383D01*
X622Y333559D01*
X2958Y327917D01*
X5778Y322500D01*
X9059Y317350D01*
X12777Y312505D01*
X16903Y308003D01*
X21405Y303877D01*
X26250Y300159D01*
X31400Y296878D01*
X36817Y294058D01*
X42459Y291722D01*
X48283Y289885D01*
X54245Y288563D01*
X60299Y287766D01*
X66400Y287500D01*
X92400Y287500D01*
X92400Y305500D01*
X140400Y305500D01*
X140400Y287500D01*
X202400Y287500D01*
X202400Y305500D01*
X250400Y305500D01*
X250400Y287500D01*
X312400Y287500D01*
X312400Y305500D01*
X360400Y305500D01*
X360400Y287500D01*
X386400Y287500D01*
X392293Y287539D01*
X398159Y288091D01*
X403955Y289153D01*
X409637Y290716D01*
X415161Y292768D01*
X420485Y295293D01*
X425569Y298273D01*
X430373Y301685D01*
X434862Y305503D01*
X439001Y309697D01*
X442759Y314236D01*
X446107Y319085D01*
X449019Y324208D01*
X451474Y329564D01*
X453453Y335115D01*
X454940Y340817D01*
X455925Y346627D01*
X456400Y352500D01*
X456400Y455656D01*
X425000Y455656D01*
X425000Y480000D01*
X456400Y480000D01*
X456400Y562500D01*
X456342Y568828D01*
X455733Y575127D01*
X454577Y581350D01*
X452883Y587447D01*
X450664Y593374D01*
X447937Y599085D01*
X444722Y604536D01*
X441045Y609687D01*
X436933Y614497D01*
X432417Y618931D01*
X427532Y622955D01*
X422315Y626537D01*
X416806Y629651D01*
X411046Y632273D01*
X405079Y634383D01*
X398952Y635964D01*
X392709Y637006D01*
X386400Y637500D01*
X66400Y637500D01*
X60299Y637234D01*
X54245Y636437D01*
X48283Y635115D01*
X42459Y633278D01*
X36817Y630942D01*
X31400Y628122D01*
X26250Y624841D01*
X21405Y621123D01*
X16903Y616997D01*
X12777Y612495D01*
X9059Y607650D01*
X5778Y602500D01*
X2958Y597083D01*
X622Y591441D01*
X-1215Y585617D01*
X-2537Y579655D01*
X-3334Y573601D01*
X-3600Y567500D01*
X-3600Y531500D01*
X66400Y531500D01*
X66400Y393500D01*
X-3600Y393500D01*
X-3600Y357500D01*
X173860Y577588D02*
X173872Y577305D01*
X173909Y577024D01*
X173971Y576747D01*
X174056Y576476D01*
X174165Y576215D01*
X174295Y575963D01*
X174448Y575724D01*
X174620Y575499D01*
X174812Y575290D01*
X175021Y575098D01*
X175246Y574926D01*
X175485Y574773D01*
X175737Y574643D01*
X175998Y574534D01*
X176269Y574449D01*
X176546Y574387D01*
X176827Y574350D01*
X177110Y574338D01*
X177393Y574350D01*
X177674Y574387D01*
X177951Y574449D01*
X178222Y574534D01*
X178484Y574643D01*
X178735Y574773D01*
X178974Y574926D01*
X179199Y575098D01*
X179408Y575290D01*
X179600Y575499D01*
X179772Y575724D01*
X179925Y575963D01*
X180056Y576215D01*
X180164Y576476D01*
X180249Y576747D01*
X180311Y577024D01*
X180348Y577305D01*
X180360Y577588D01*
X180360Y588588D01*
X180348Y588871D01*
X180311Y589152D01*
X180249Y589429D01*
X180164Y589700D01*
X180056Y589962D01*
X179925Y590213D01*
X179772Y590452D01*
X179600Y590677D01*
X179408Y590886D01*
X179199Y591078D01*
X178974Y591250D01*
X178735Y591403D01*
X178484Y591534D01*
X178222Y591642D01*
X177951Y591727D01*
X177674Y591789D01*
X177393Y591826D01*
X177110Y591838D01*
X176827Y591826D01*
X176546Y591789D01*
X176269Y591727D01*
X175998Y591642D01*
X175737Y591534D01*
X175485Y591403D01*
X175246Y591250D01*
X175021Y591078D01*
X174812Y590886D01*
X174620Y590677D01*
X174448Y590452D01*
X174295Y590213D01*
X174165Y589962D01*
X174056Y589700D01*
X173971Y589429D01*
X173909Y589152D01*
X173872Y588871D01*
X173860Y588588D01*
X173860Y577588D01*
X260260Y577588D02*
X260272Y577305D01*
X260309Y577024D01*
X260371Y576747D01*
X260456Y576476D01*
X260565Y576215D01*
X260695Y575963D01*
X260848Y575724D01*
X261020Y575499D01*
X261212Y575290D01*
X261421Y575098D01*
X261646Y574926D01*
X261885Y574773D01*
X262137Y574643D01*
X262398Y574534D01*
X262669Y574449D01*
X262946Y574387D01*
X263227Y574350D01*
X263510Y574338D01*
X263793Y574350D01*
X264074Y574387D01*
X264351Y574449D01*
X264622Y574534D01*
X264884Y574643D01*
X265135Y574773D01*
X265374Y574926D01*
X265599Y575098D01*
X265808Y575290D01*
X266000Y575499D01*
X266172Y575724D01*
X266325Y575963D01*
X266456Y576215D01*
X266564Y576476D01*
X266649Y576747D01*
X266711Y577024D01*
X266748Y577305D01*
X266760Y577588D01*
X266760Y588588D01*
X266748Y588871D01*
X266711Y589152D01*
X266649Y589429D01*
X266564Y589700D01*
X266456Y589962D01*
X266325Y590213D01*
X266172Y590452D01*
X266000Y590677D01*
X265808Y590886D01*
X265599Y591078D01*
X265374Y591250D01*
X265135Y591403D01*
X264884Y591534D01*
X264622Y591642D01*
X264351Y591727D01*
X264074Y591789D01*
X263793Y591826D01*
X263510Y591838D01*
X263227Y591826D01*
X262946Y591789D01*
X262669Y591727D01*
X262398Y591642D01*
X262137Y591534D01*
X261885Y591403D01*
X261646Y591250D01*
X261421Y591078D01*
X261212Y590886D01*
X261020Y590677D01*
X260848Y590452D01*
X260695Y590213D01*
X260565Y589962D01*
X260456Y589700D01*
X260371Y589429D01*
X260309Y589152D01*
X260272Y588871D01*
X260260Y588588D01*
X260260Y577588D01*
X173860Y620588D02*
X173872Y620305D01*
X173909Y620024D01*
X173971Y619747D01*
X174056Y619476D01*
X174165Y619215D01*
X174295Y618963D01*
X174448Y618724D01*
X174620Y618499D01*
X174812Y618290D01*
X175021Y618098D01*
X175246Y617926D01*
X175485Y617773D01*
X175737Y617643D01*
X175998Y617534D01*
X176269Y617449D01*
X176546Y617387D01*
X176827Y617350D01*
X177110Y617338D01*
X177393Y617350D01*
X177674Y617387D01*
X177951Y617449D01*
X178222Y617534D01*
X178484Y617643D01*
X178735Y617773D01*
X178974Y617926D01*
X179199Y618098D01*
X179408Y618290D01*
X179600Y618499D01*
X179772Y618724D01*
X179925Y618963D01*
X180056Y619215D01*
X180164Y619476D01*
X180249Y619747D01*
X180311Y620024D01*
X180348Y620305D01*
X180360Y620588D01*
X180360Y628588D01*
X180348Y628871D01*
X180311Y629152D01*
X180249Y629429D01*
X180164Y629700D01*
X180056Y629962D01*
X179925Y630213D01*
X179772Y630452D01*
X179600Y630677D01*
X179408Y630886D01*
X179199Y631078D01*
X178974Y631250D01*
X178735Y631403D01*
X178484Y631534D01*
X178222Y631642D01*
X177951Y631727D01*
X177674Y631789D01*
X177393Y631826D01*
X177110Y631838D01*
X176827Y631826D01*
X176546Y631789D01*
X176269Y631727D01*
X175998Y631642D01*
X175737Y631534D01*
X175485Y631403D01*
X175246Y631250D01*
X175021Y631078D01*
X174812Y630886D01*
X174620Y630677D01*
X174448Y630452D01*
X174295Y630213D01*
X174165Y629962D01*
X174056Y629700D01*
X173971Y629429D01*
X173909Y629152D01*
X173872Y628871D01*
X173860Y628588D01*
X173860Y620588D01*
X260260Y620588D02*
X260272Y620305D01*
X260309Y620024D01*
X260371Y619747D01*
X260456Y619476D01*
X260565Y619215D01*
X260695Y618963D01*
X260848Y618724D01*
X261020Y618499D01*
X261212Y618290D01*
X261421Y618098D01*
X261646Y617926D01*
X261885Y617773D01*
X262137Y617643D01*
X262398Y617534D01*
X262669Y617449D01*
X262946Y617387D01*
X263227Y617350D01*
X263510Y617338D01*
X263793Y617350D01*
X264074Y617387D01*
X264351Y617449D01*
X264622Y617534D01*
X264884Y617643D01*
X265135Y617773D01*
X265374Y617926D01*
X265599Y618098D01*
X265808Y618290D01*
X266000Y618499D01*
X266172Y618724D01*
X266325Y618963D01*
X266456Y619215D01*
X266564Y619476D01*
X266649Y619747D01*
X266711Y620024D01*
X266748Y620305D01*
X266760Y620588D01*
X266760Y628588D01*
X266748Y628871D01*
X266711Y629152D01*
X266649Y629429D01*
X266564Y629700D01*
X266456Y629962D01*
X266325Y630213D01*
X266172Y630452D01*
X266000Y630677D01*
X265808Y630886D01*
X265599Y631078D01*
X265374Y631250D01*
X265135Y631403D01*
X264884Y631534D01*
X264622Y631642D01*
X264351Y631727D01*
X264074Y631789D01*
X263793Y631826D01*
X263510Y631838D01*
X263227Y631826D01*
X262946Y631789D01*
X262669Y631727D01*
X262398Y631642D01*
X262137Y631534D01*
X261885Y631403D01*
X261646Y631250D01*
X261421Y631078D01*
X261212Y630886D01*
X261020Y630677D01*
X260848Y630452D01*
X260695Y630213D01*
X260565Y629962D01*
X260456Y629700D01*
X260371Y629429D01*
X260309Y629152D01*
X260272Y628871D01*
X260260Y628588D01*
X260260Y620588D01*
M02*
