G04 EAGLE Gerber RS-274X export*
G75*
%MOMM*%
%FSLAX34Y34*%
%LPD*%
%INSoldermask Top*%
%IPPOS*%
%AMOC8*
5,1,8,0,0,1.08239X$1,22.5*%
G01*
G04 Define Apertures*
%ADD10R,2.003200X1.353200*%
%ADD11R,0.483200X0.633200*%
%ADD12R,0.633200X0.483200*%
%ADD13R,0.433200X0.423200*%
%ADD14R,0.423200X0.433200*%
%ADD15R,1.353200X1.003200*%
%ADD16R,1.403200X0.803200*%
%ADD17C,0.403200*%
%ADD18C,0.453200*%
%ADD19R,0.503200X0.553200*%
%ADD20R,0.553200X0.503200*%
%ADD21C,0.419200*%
%ADD22R,0.903200X0.503200*%
%ADD23R,1.203200X0.503200*%
%ADD24C,0.986200*%
%ADD25C,2.654200*%
%ADD26C,1.270200*%
%ADD27R,0.503200X1.353200*%
%ADD28C,0.903200*%
%ADD29R,0.803200X1.353200*%
%ADD30C,1.373200*%
%ADD31R,0.703200X0.803200*%
%ADD32R,0.803200X0.703200*%
%ADD33R,5.503200X1.103200*%
%ADD34R,2.403200X1.403200*%
%ADD35R,1.103200X1.003200*%
%ADD36R,1.253200X0.703200*%
%ADD37R,0.453200X0.553200*%
%ADD38R,0.553200X0.453200*%
%ADD39R,0.152400X1.828800*%
%ADD40R,1.371600X1.803400*%
%ADD41R,0.914400X1.295400*%
%ADD42R,1.270000X1.270000*%
%ADD43R,1.600200X1.295400*%
%ADD44C,2.203200*%
%ADD45R,5.053200X5.053200*%
%ADD46C,0.269722*%
%ADD47R,1.103200X1.503200*%
%ADD48R,1.153200X1.053200*%
%ADD49R,1.203200X2.003200*%
%ADD50C,0.655600*%
G36*
X175881Y594767D02*
X177110Y594888D01*
X178339Y594767D01*
X179521Y594409D01*
X180610Y593826D01*
X181565Y593043D01*
X182348Y592088D01*
X182931Y590999D01*
X183289Y589817D01*
X183410Y588590D01*
X183410Y577586D01*
X183289Y576359D01*
X182931Y575177D01*
X182348Y574088D01*
X181565Y573133D01*
X180610Y572350D01*
X179521Y571767D01*
X178339Y571409D01*
X177110Y571288D01*
X175881Y571409D01*
X174699Y571767D01*
X173610Y572350D01*
X172655Y573133D01*
X171872Y574088D01*
X171289Y575177D01*
X170931Y576359D01*
X170810Y577586D01*
X170810Y588590D01*
X170931Y589817D01*
X171289Y590999D01*
X171872Y592088D01*
X172655Y593043D01*
X173610Y593826D01*
X174699Y594409D01*
X175881Y594767D01*
G37*
G36*
X262281Y594767D02*
X263510Y594888D01*
X264739Y594767D01*
X265921Y594409D01*
X267010Y593826D01*
X267965Y593043D01*
X268748Y592088D01*
X269331Y590999D01*
X269689Y589817D01*
X269810Y588590D01*
X269810Y577586D01*
X269689Y576359D01*
X269331Y575177D01*
X268748Y574088D01*
X267965Y573133D01*
X267010Y572350D01*
X265921Y571767D01*
X264739Y571409D01*
X263510Y571288D01*
X262281Y571409D01*
X261099Y571767D01*
X260010Y572350D01*
X259055Y573133D01*
X258272Y574088D01*
X257689Y575177D01*
X257331Y576359D01*
X257210Y577586D01*
X257210Y588590D01*
X257331Y589817D01*
X257689Y590999D01*
X258272Y592088D01*
X259055Y593043D01*
X260010Y593826D01*
X261099Y594409D01*
X262281Y594767D01*
G37*
G36*
X175881Y634767D02*
X177110Y634888D01*
X178339Y634767D01*
X179521Y634409D01*
X180610Y633826D01*
X181565Y633043D01*
X182348Y632088D01*
X182931Y630999D01*
X183289Y629817D01*
X183410Y628590D01*
X183410Y620586D01*
X183289Y619359D01*
X182931Y618177D01*
X182348Y617088D01*
X181565Y616133D01*
X180610Y615350D01*
X179521Y614767D01*
X178339Y614409D01*
X177110Y614288D01*
X175881Y614409D01*
X174699Y614767D01*
X173610Y615350D01*
X172655Y616133D01*
X171872Y617088D01*
X171289Y618177D01*
X170931Y619359D01*
X170810Y620586D01*
X170810Y628590D01*
X170931Y629817D01*
X171289Y630999D01*
X171872Y632088D01*
X172655Y633043D01*
X173610Y633826D01*
X174699Y634409D01*
X175881Y634767D01*
G37*
G36*
X262281Y634767D02*
X263510Y634888D01*
X264739Y634767D01*
X265921Y634409D01*
X267010Y633826D01*
X267965Y633043D01*
X268748Y632088D01*
X269331Y630999D01*
X269689Y629817D01*
X269810Y628590D01*
X269810Y620586D01*
X269689Y619359D01*
X269331Y618177D01*
X268748Y617088D01*
X267965Y616133D01*
X267010Y615350D01*
X265921Y614767D01*
X264739Y614409D01*
X263510Y614288D01*
X262281Y614409D01*
X261099Y614767D01*
X260010Y615350D01*
X259055Y616133D01*
X258272Y617088D01*
X257689Y618177D01*
X257331Y619359D01*
X257210Y620586D01*
X257210Y628590D01*
X257331Y629817D01*
X257689Y630999D01*
X258272Y632088D01*
X259055Y633043D01*
X260010Y633826D01*
X261099Y634409D01*
X262281Y634767D01*
G37*
G36*
X93853Y306324D02*
X93853Y313182D01*
X105537Y313182D01*
X105537Y306324D01*
X93853Y306324D01*
G37*
G36*
X128523Y306324D02*
X128523Y313182D01*
X140207Y313182D01*
X140207Y306324D01*
X128523Y306324D01*
G37*
G36*
X202993Y306364D02*
X202993Y313222D01*
X214677Y313222D01*
X214677Y306364D01*
X202993Y306364D01*
G37*
G36*
X237663Y306364D02*
X237663Y313222D01*
X249347Y313222D01*
X249347Y306364D01*
X237663Y306364D01*
G37*
G36*
X313383Y306404D02*
X313383Y313262D01*
X325067Y313262D01*
X325067Y306404D01*
X313383Y306404D01*
G37*
G36*
X348053Y306404D02*
X348053Y313262D01*
X359737Y313262D01*
X359737Y306404D01*
X348053Y306404D01*
G37*
D10*
X440838Y497960D03*
X440838Y467960D03*
D11*
X408100Y509700D03*
X413200Y509700D03*
X188500Y403750D03*
X193600Y403750D03*
X353440Y503640D03*
X358540Y503640D03*
X354030Y511520D03*
X359130Y511520D03*
D12*
X339600Y531550D03*
X339600Y536650D03*
X330360Y530940D03*
X330360Y536040D03*
D11*
G36*
X253292Y541967D02*
X258122Y541899D01*
X258034Y535569D01*
X253204Y535637D01*
X253292Y541967D01*
G37*
G36*
X248192Y542038D02*
X253022Y541970D01*
X252934Y535640D01*
X248104Y535708D01*
X248192Y542038D01*
G37*
D12*
X325380Y552770D03*
X325380Y547670D03*
X333120Y552920D03*
X333120Y547820D03*
D11*
X214220Y539570D03*
X219320Y539570D03*
G36*
X216818Y501412D02*
X211988Y501303D01*
X211844Y507632D01*
X216674Y507741D01*
X216818Y501412D01*
G37*
G36*
X221916Y501528D02*
X217086Y501419D01*
X216942Y507748D01*
X221772Y507857D01*
X221916Y501528D01*
G37*
X53830Y593490D03*
X58930Y593490D03*
X404150Y544320D03*
X399050Y544320D03*
D12*
X86490Y344620D03*
X86490Y349720D03*
D11*
X275010Y458590D03*
X269910Y458590D03*
D12*
X294240Y402530D03*
X294240Y397430D03*
X419230Y492820D03*
X419230Y487720D03*
D13*
X89090Y617240D03*
X89090Y620940D03*
D12*
X78300Y620990D03*
X78300Y615890D03*
X109970Y582090D03*
X109970Y576990D03*
D13*
X198380Y448050D03*
X198380Y444350D03*
D14*
X339010Y341720D03*
X335310Y341720D03*
D12*
X381920Y493140D03*
X381920Y488040D03*
D14*
X119630Y341530D03*
X115930Y341530D03*
X228500Y341720D03*
X224800Y341720D03*
D13*
X302280Y337260D03*
X302280Y333560D03*
D12*
X118220Y582010D03*
X118220Y576910D03*
D13*
X256198Y330473D03*
X256198Y326773D03*
X311080Y625700D03*
X311080Y622000D03*
X284750Y625060D03*
X284750Y621360D03*
D12*
X298110Y620570D03*
X298110Y625670D03*
X410330Y492580D03*
X410330Y487480D03*
D14*
X380700Y587800D03*
X384400Y587800D03*
D11*
X385340Y579410D03*
X380240Y579410D03*
X255680Y530960D03*
X250580Y530960D03*
X275250Y476470D03*
X270150Y476470D03*
X317470Y446290D03*
X322570Y446290D03*
X374080Y459230D03*
X379180Y459230D03*
X353630Y489090D03*
X358730Y489090D03*
D15*
X72570Y329650D03*
X37570Y329650D03*
D16*
X369980Y619690D03*
X369980Y610190D03*
X369980Y600690D03*
X394980Y600690D03*
X394980Y610190D03*
X394980Y619690D03*
D15*
X151900Y307180D03*
X186900Y307180D03*
X38100Y365250D03*
X73100Y365250D03*
D11*
X125370Y503400D03*
X120270Y503400D03*
X125900Y402440D03*
X120800Y402440D03*
X125280Y394860D03*
X120180Y394860D03*
X124980Y387430D03*
X119880Y387430D03*
X125790Y511560D03*
X120690Y511560D03*
X125400Y441540D03*
X120300Y441540D03*
X125530Y433830D03*
X120430Y433830D03*
X125220Y425310D03*
X120120Y425310D03*
X125510Y417190D03*
X120410Y417190D03*
X125130Y409680D03*
X120030Y409680D03*
D17*
X293070Y597238D03*
X293070Y601238D03*
X297070Y597238D03*
X297070Y601238D03*
X301070Y597238D03*
X301070Y601238D03*
X305070Y597238D03*
X305070Y601238D03*
D18*
X284412Y334150D03*
X284412Y329150D03*
X284412Y324150D03*
X279412Y334150D03*
X279412Y329150D03*
X279412Y324150D03*
X274412Y334150D03*
X274412Y329150D03*
X274412Y324150D03*
D19*
X53990Y560520D03*
X58990Y560520D03*
X63990Y560520D03*
X68990Y560520D03*
D20*
X69240Y565770D03*
X69240Y570770D03*
D19*
X68990Y576020D03*
X63990Y576020D03*
X58990Y576020D03*
X53990Y576020D03*
D20*
X53740Y570770D03*
X53740Y565770D03*
D21*
X108230Y617080D03*
X112230Y617080D03*
X116230Y617080D03*
X108230Y613080D03*
X112230Y613080D03*
X116230Y613080D03*
X108230Y609080D03*
X112230Y609080D03*
X116230Y609080D03*
X108230Y605080D03*
X112230Y605080D03*
X116230Y605080D03*
X108230Y601080D03*
X112230Y601080D03*
X116230Y601080D03*
D22*
X102842Y519952D03*
X102842Y514952D03*
X102842Y509952D03*
X102842Y504952D03*
X102842Y499952D03*
X102842Y494952D03*
X102842Y489952D03*
X102842Y484952D03*
X102842Y479952D03*
X102842Y474952D03*
X102842Y469952D03*
X102842Y464952D03*
X102842Y459952D03*
X102842Y454952D03*
X102842Y449952D03*
X102842Y444952D03*
X102842Y439952D03*
X102842Y434952D03*
X102842Y429952D03*
X102842Y424952D03*
X102842Y419952D03*
X102842Y414952D03*
X102842Y409952D03*
X102842Y404952D03*
D23*
X76342Y527852D03*
X76342Y397052D03*
D24*
X414156Y404927D03*
X414156Y392227D03*
X401456Y404927D03*
X401456Y392227D03*
X388746Y404927D03*
X388746Y392227D03*
D25*
X426856Y423977D03*
D26*
X426856Y398577D03*
D25*
X426856Y373177D03*
X395106Y423977D03*
X395106Y373177D03*
D26*
X376056Y408737D03*
X376056Y388417D03*
D27*
X222810Y577338D03*
X227810Y577338D03*
X232810Y577338D03*
X237810Y577338D03*
X217810Y577338D03*
X212810Y577338D03*
X207810Y577338D03*
X202810Y577338D03*
D28*
X249210Y588088D03*
X191410Y588088D03*
D29*
X252310Y577338D03*
X244310Y577338D03*
X196310Y577338D03*
X188310Y577338D03*
D30*
X263510Y624588D03*
X177110Y624588D03*
X263510Y583088D03*
X177110Y583088D03*
D31*
X391170Y492850D03*
X401170Y492850D03*
D32*
X306590Y537030D03*
X306590Y547030D03*
X316000Y542460D03*
X316000Y552460D03*
D33*
X157980Y357340D03*
X157980Y403060D03*
D34*
X143144Y616919D03*
X143144Y596359D03*
D35*
X211420Y359782D03*
X211420Y378782D03*
X190420Y369282D03*
D36*
X157210Y518130D03*
X157210Y505130D03*
X178210Y511630D03*
D37*
X95090Y327910D03*
X89590Y327910D03*
X301370Y369400D03*
X295870Y369400D03*
X262890Y370870D03*
X257390Y370870D03*
X142360Y506950D03*
X147860Y506950D03*
D38*
X232760Y561440D03*
X232760Y566940D03*
D37*
X86860Y603910D03*
X92360Y603910D03*
X141560Y519590D03*
X147060Y519590D03*
D38*
X202640Y566860D03*
X202640Y561360D03*
X37352Y572310D03*
X37352Y566810D03*
D37*
X86630Y609640D03*
X92130Y609640D03*
X314140Y326902D03*
X308640Y326902D03*
X203580Y327102D03*
X198080Y327102D03*
D38*
X322950Y603480D03*
X322950Y597980D03*
X220610Y366482D03*
X220610Y371982D03*
D37*
X137090Y501312D03*
X142590Y501312D03*
D39*
X134278Y490190D03*
D40*
X126658Y490190D03*
X141898Y490190D03*
D41*
X350562Y329581D03*
X322558Y329581D03*
D42*
X355038Y316056D03*
X318082Y316056D03*
D43*
X336560Y331105D03*
D41*
X240172Y329541D03*
X212168Y329541D03*
D42*
X244648Y316016D03*
X207692Y316016D03*
D43*
X226170Y331065D03*
D41*
X131032Y329501D03*
X103028Y329501D03*
D42*
X135508Y315976D03*
X98552Y315976D03*
D43*
X117030Y331025D03*
D44*
X439238Y335795D03*
X431948Y571300D03*
X156300Y450738D03*
X370480Y335850D03*
X264638Y300262D03*
X299638Y300262D03*
X324093Y395347D03*
X282895Y369130D03*
X244180Y369040D03*
X385890Y305690D03*
X410950Y325670D03*
X323910Y421920D03*
X177570Y424374D03*
X38087Y616272D03*
D45*
X314370Y491378D03*
D17*
X286870Y491378D03*
X286870Y496378D03*
X286870Y501378D03*
X286870Y506378D03*
X286870Y511378D03*
X281870Y513878D03*
X281870Y503878D03*
X281870Y498878D03*
X281870Y493878D03*
X281870Y488878D03*
X286870Y486378D03*
X286870Y481378D03*
X281870Y483878D03*
X281870Y478878D03*
X281870Y473878D03*
X286870Y471378D03*
X286870Y466378D03*
X286870Y458878D03*
X291870Y458878D03*
X294370Y463878D03*
X296870Y458878D03*
X301870Y458878D03*
X306870Y458878D03*
X311870Y458878D03*
X316870Y458878D03*
X321870Y458878D03*
X326870Y458878D03*
X331870Y458878D03*
X336870Y458878D03*
X341870Y458878D03*
X334370Y463878D03*
X329370Y463878D03*
X324370Y463878D03*
X319370Y463878D03*
X314370Y463878D03*
X309370Y463878D03*
X304370Y463878D03*
X341870Y471378D03*
X346870Y468878D03*
X346870Y463878D03*
X346870Y473878D03*
X341870Y476378D03*
X346870Y478878D03*
X341870Y481378D03*
X341870Y486378D03*
X346870Y483878D03*
X346870Y488878D03*
X346870Y493878D03*
X346870Y498878D03*
X341870Y501378D03*
X341870Y506378D03*
X346870Y508878D03*
X341870Y511378D03*
X346870Y518878D03*
X281870Y518878D03*
X294370Y518878D03*
X299370Y518878D03*
X304370Y518878D03*
X306870Y523878D03*
X309370Y518878D03*
X311870Y523878D03*
X314370Y518878D03*
X316870Y523878D03*
X319370Y518878D03*
X321870Y523878D03*
X324370Y518878D03*
X326870Y523878D03*
X329370Y518878D03*
X331870Y523878D03*
X336870Y523878D03*
X341870Y523878D03*
X289370Y518878D03*
X301870Y523878D03*
D46*
X212918Y444482D02*
X205982Y444482D01*
X205982Y446518D01*
X212918Y446518D01*
X212918Y444482D01*
X212918Y439482D02*
X205982Y439482D01*
X205982Y441518D01*
X212918Y441518D01*
X212918Y439482D01*
X212918Y434482D02*
X205982Y434482D01*
X205982Y436518D01*
X212918Y436518D01*
X212918Y434482D01*
X212918Y429482D02*
X205982Y429482D01*
X205982Y431518D01*
X212918Y431518D01*
X212918Y429482D01*
X225682Y429482D02*
X232618Y429482D01*
X225682Y429482D02*
X225682Y431518D01*
X232618Y431518D01*
X232618Y429482D01*
X232618Y434482D02*
X225682Y434482D01*
X225682Y436518D01*
X232618Y436518D01*
X232618Y434482D01*
X232618Y439482D02*
X225682Y439482D01*
X225682Y441518D01*
X232618Y441518D01*
X232618Y439482D01*
X232618Y444482D02*
X225682Y444482D01*
X225682Y446518D01*
X232618Y446518D01*
X232618Y444482D01*
D47*
X219300Y438000D03*
D48*
X402960Y521360D03*
X417460Y521360D03*
X417460Y532860D03*
X402960Y532860D03*
D49*
G36*
X245244Y516121D02*
X245433Y504092D01*
X225404Y503777D01*
X225215Y515806D01*
X245244Y516121D01*
G37*
G36*
X244851Y541118D02*
X245040Y529089D01*
X225011Y528774D01*
X224822Y540803D01*
X244851Y541118D01*
G37*
D50*
X279400Y318770D03*
X279400Y339090D03*
X291465Y339090D03*
X322580Y454025D03*
X351790Y479425D03*
X48260Y572135D03*
X250190Y608330D03*
X117475Y480060D03*
X356235Y441325D03*
X408305Y398145D03*
X358775Y414655D03*
X395605Y397510D03*
X382270Y396240D03*
X337820Y396875D03*
X298450Y527050D03*
X110490Y464185D03*
X341630Y464185D03*
X331470Y454025D03*
X315595Y433070D03*
X245745Y419735D03*
X339725Y375285D03*
X239395Y419735D03*
X290195Y454025D03*
X400685Y461010D03*
X286385Y449580D03*
X388620Y593725D03*
X287655Y434340D03*
X269240Y434340D03*
X179705Y469900D03*
X113030Y469900D03*
X298450Y438785D03*
X258445Y438785D03*
X167640Y475615D03*
X110490Y475615D03*
X342265Y496570D03*
X365125Y496570D03*
X358140Y518795D03*
X394335Y518795D03*
X358140Y527685D03*
X399415Y550545D03*
X374015Y465455D03*
X346710Y459105D03*
X345440Y531495D03*
X412115Y570865D03*
X443230Y429895D03*
X41910Y578485D03*
X50800Y587375D03*
X60960Y554990D03*
X74930Y567690D03*
X65405Y586740D03*
X275590Y470535D03*
X275590Y518160D03*
X198120Y351155D03*
X215265Y368300D03*
X93980Y334010D03*
X260985Y327660D03*
X298450Y344170D03*
X265430Y334645D03*
X273050Y359410D03*
X157480Y608330D03*
X81280Y608330D03*
X48260Y565785D03*
X163195Y498475D03*
X270510Y493395D03*
X229235Y452120D03*
X301625Y589280D03*
X239395Y435610D03*
X87630Y532130D03*
X151765Y487045D03*
X288290Y601345D03*
X288290Y617220D03*
X214630Y600710D03*
X241935Y591185D03*
X379730Y610870D03*
X279400Y454025D03*
X255905Y454025D03*
X201930Y492125D03*
X193675Y471170D03*
X166370Y365760D03*
X120015Y353060D03*
X161290Y307340D03*
X81915Y339090D03*
X111125Y514985D03*
X120650Y524510D03*
X318770Y619125D03*
X254000Y594360D03*
X289560Y443230D03*
X107315Y339090D03*
X299720Y463550D03*
X370205Y470535D03*
X370205Y454025D03*
X219710Y321945D03*
M02*
